<svg width="143" height="104" viewBox="0 0 143 104" fill="none" xmlns="http://www.w3.org/2000/svg">
<path d="M26.9828 49.6291V42.6425H25.2964V49.6291H26.9828Z" fill="#5E080F"/>
<path d="M116.002 49.6291L116.002 42.6425L117.688 42.6425L117.688 49.6291L116.002 49.6291Z" fill="#5E080F"/>
<path d="M47.0994 68.782H40.1128V75.7686H47.0994V68.782Z" fill="#061119"/>
<path d="M95.8853 68.782H102.872V75.8891H95.8853V68.782Z" fill="#061119"/>
<path d="M61.0727 68.782H54.086V75.7686H61.0727V68.782Z" fill="#061119"/>
<path d="M81.912 68.782H88.8987V75.8891H81.912V68.782Z" fill="#061119"/>
<path d="M67.9388 68.782H60.9522V75.7686H67.9388V68.782Z" fill="#061119"/>
<path d="M75.0459 68.782H67.9388V75.8891H75.0459V68.782Z" fill="#061119"/>
<path d="M75.0459 68.782H82.0325V75.8891H75.0459V68.782Z" fill="#061119"/>
<path d="M54.086 68.782H47.0994V75.7686H54.086V68.782Z" fill="#061119"/>
<path d="M88.8987 68.782H95.8853V75.8891H88.8987V68.782Z" fill="#061119"/>
<path d="M47.0994 75.7686H40.1128V82.7553H47.0994V75.7686Z" fill="#122A3A"/>
<path d="M95.8853 75.8891H102.872V82.7553H95.8853V75.8891Z" fill="#122A3A"/>
<path d="M61.0727 75.7686H54.086V82.7553H61.0727V75.7686Z" fill="#173446"/>
<path d="M81.912 75.8891H88.8987V82.7553H81.912V75.8891Z" fill="#173446"/>
<path d="M67.9388 75.7686H60.9522V82.7553H67.9388V75.7686Z" fill="#23445D"/>
<path d="M75.0459 75.7686H67.9388V82.8757H75.0459V75.7686Z" fill="#23445D"/>
<path d="M75.0459 75.8891H82.0325V82.7553H75.0459V75.8891Z" fill="#23445D"/>
<path d="M54.086 75.7686H47.0994V82.7553H54.086V75.7686Z" fill="#122A3A"/>
<path d="M88.8987 75.8891H95.8853V82.7553H88.8987V75.8891Z" fill="#122A3A"/>
<path d="M47.0994 82.7552H40.1128V89.7419H47.0994V82.7552Z" fill="#122A3A"/>
<path d="M95.8853 82.7552H102.872V89.7419H95.8853V82.7552Z" fill="#122A3A"/>
<path d="M61.0727 82.7552H54.086V89.7419H61.0727V82.7552Z" fill="#23445D"/>
<path d="M81.912 82.7552H88.8987V89.7419H81.912V82.7552Z" fill="#23445D"/>
<path d="M67.9388 82.7552H60.9522V89.7419H67.9388V82.7552Z" fill="#375C76"/>
<path d="M75.0459 82.7552H82.0325V89.7419H75.0459V82.7552Z" fill="#375C76"/>
<path d="M67.9388 82.7552H75.2868V90.1032H67.9388V82.7552Z" fill="#5095C4"/>
<path d="M61.0727 89.7419H54.086V96.7285H61.0727V89.7419Z" fill="#122A3A"/>
<path d="M81.912 89.7419H88.8987V96.7285H81.912V89.7419Z" fill="#122A3A"/>
<path d="M67.9388 89.7419H60.9522V96.7285H67.9388V89.7419Z" fill="#23445D"/>
<path d="M75.0459 89.7419H67.9388V96.8489H75.0459V89.7419Z" fill="#23445D"/>
<path d="M75.0459 89.7419H82.0325V96.7285H75.0459V89.7419Z" fill="#23445D"/>
<path d="M61.0727 96.7285H54.086V100.945H61.0727V96.7285Z" fill="#061119"/>
<path d="M81.912 96.7285H88.8987V100.945H81.912V96.7285Z" fill="#061119"/>
<path d="M67.9388 96.7285H60.9522V101.426H67.9388V96.7285Z" fill="#173446"/>
<path d="M75.0459 96.7285H82.0325V101.426H75.0459V96.7285Z" fill="#173446"/>
<path d="M67.9388 96.7285H75.2868V101.426H67.9388V96.7285Z" fill="#173446"/>
<path d="M54.086 82.7552H47.0994V89.7419H54.086V82.7552Z" fill="#23445D"/>
<path d="M88.8987 82.7552H95.8853V89.7419H88.8987V82.7552Z" fill="#23445D"/>
<path d="M47.0994 89.7419H40.1128V95.6443H47.0994V89.7419Z" fill="#173446"/>
<path d="M95.8853 89.7419H102.872V95.6443H95.8853V89.7419Z" fill="#173446"/>
<path d="M47.0994 95.6443H40.1128V97.8126H47.0994V95.6443Z" fill="#061119"/>
<path d="M95.8853 95.6443H102.872V97.8126H95.8853V95.6443Z" fill="#061119"/>
<path d="M22.6463 39.631H15.6597V41.7992H22.6463V39.631Z" fill="#061119"/>
<path d="M120.338 39.631H127.446V41.7992H120.338V39.631Z" fill="#061119"/>
<path d="M26.9828 38.6673H22.6463V43.847H26.9828V38.6673Z" fill="#061119"/>
<path d="M116.002 38.6673H120.338V43.847H116.002V38.6673Z" fill="#061119"/>
<path d="M54.086 96.7285H47.0994V98.8967H54.086V96.7285Z" fill="#061119"/>
<path d="M88.8987 96.7285H95.8853V98.8967H88.8987V96.7285Z" fill="#061119"/>
<path d="M74.9254 101.426H60.9522V103.595H74.9254V101.426Z" fill="#061119"/>
<path d="M68.0593 101.426H82.0325V103.595H68.0593V101.426Z" fill="#061119"/>
<path d="M54.086 89.7419H47.0994V96.7285H54.086V89.7419Z" fill="#173446"/>
<path d="M88.8987 89.7419H95.8853V96.7285H88.8987V89.7419Z" fill="#173446"/>
<path d="M56.7361 36.3786H71.5526V44.6902H56.7361V36.3786Z" fill="#D3AB3B"/>
<path d="M86.369 36.3786H71.4321V44.6902H86.369V36.3786Z" fill="#D3AB3B"/>
<path d="M61.3136 56.3748H69.9866V61.9159H61.3136V56.3748Z" fill="#F6CB52"/>
<path d="M81.6711 56.3748H72.9981V61.9159H81.6711V56.3748Z" fill="#F6CB52"/>
<path d="M57.5794 53.3633H66.2524V57.6998H57.5794V53.3633Z" fill="#F6CB52"/>
<path d="M85.5258 53.3633H76.7323V57.6998H85.5258V53.3633Z" fill="#F6CB52"/>
<path d="M54.9293 51.7973H60.9522V57.8203H54.9293V51.7973Z" fill="#CA9A15"/>
<path d="M88.0555 51.7973H82.0325V57.8203H88.0555V51.7973Z" fill="#CA9A15"/>
<path d="M57.3384 57.6998H61.7954V62.1568H57.3384V57.6998Z" fill="#9D770C"/>
<path d="M85.7667 57.6998H81.1893V62.1568H85.7667V57.6998Z" fill="#9D770C"/>
<path d="M54.086 46.2562H62.7591V51.7973H54.086V46.2562Z" fill="#F6CB52"/>
<path d="M88.8987 46.2562H80.2256V51.7973H88.8987V46.2562Z" fill="#F6CB52"/>
<path d="M15.6597 11.6845H8.67303V18.6711H15.6597V11.6845Z" fill="#061119"/>
<path d="M127.446 11.6845H134.432V18.6711H127.446V11.6845Z" fill="#061119"/>
<path d="M36.6195 9.63672H29.6329V18.6711H36.6195V9.63672Z" fill="#122A3A"/>
<path d="M106.365 9.63672H113.352V18.6711H106.365V9.63672Z" fill="#122A3A"/>
<path d="M43.6061 8.31165H36.6195V18.6711H43.6061V8.31165Z" fill="#122A3A"/>
<path d="M99.3786 8.31165H106.365V18.6711H99.3786V8.31165Z" fill="#122A3A"/>
<path d="M50.5927 11.6845H43.6061V18.6711H50.5927V11.6845Z" fill="#173446"/>
<path d="M92.392 11.6845H99.3786V18.6711H92.392V11.6845Z" fill="#173446"/>
<path d="M57.5793 11.6845H50.5927V18.6711H57.5793V11.6845Z" fill="#23445D"/>
<path d="M85.5258 11.6845H92.392V18.6711H85.5258V11.6845Z" fill="#23445D"/>
<path d="M64.566 11.6845H57.5794V18.6711H64.566V11.6845Z" fill="#173446"/>
<path d="M78.4187 11.6845H85.5258V18.6711H78.4187V11.6845Z" fill="#173446"/>
<path d="M71.5526 11.6845H64.566V18.6711H71.5526V11.6845Z" fill="#23445D"/>
<path d="M71.4321 11.6845H78.4187V18.6711H71.4321V11.6845Z" fill="#23445D"/>
<path d="M64.566 11.6845H71.5526V18.6711H64.566V11.6845Z" fill="#23445D"/>
<path d="M78.4187 11.6845H71.4321V18.6711H78.4187V11.6845Z" fill="#23445D"/>
<path d="M36.6195 4.69788H29.6329V9.63669H36.6195V4.69788Z" fill="#00020A"/>
<path d="M106.365 4.69788H113.352V9.63669H106.365V4.69788Z" fill="#00020A"/>
<path d="M43.6061 3.73422H36.6195V8.31166H43.6061V3.73422Z" fill="#061119"/>
<path d="M99.3786 3.73422H106.365V8.31166H99.3786V3.73422Z" fill="#061119"/>
<path d="M50.5927 4.69788H43.6061V11.6845H50.5927V4.69788Z" fill="#122A3A"/>
<path d="M92.392 4.69788H99.3786V11.6845H92.392V4.69788Z" fill="#122A3A"/>
<path d="M57.5793 4.69788H50.5927V11.6845H57.5793V4.69788Z" fill="#122A3A"/>
<path d="M85.5258 4.69788H92.392V11.6845H85.5258V4.69788Z" fill="#122A3A"/>
<path d="M64.566 4.69788H57.5794V11.6845H64.566V4.69788Z" fill="#122A3A"/>
<path d="M78.4187 4.69788H85.5258V11.6845H78.4187V4.69788Z" fill="#122A3A"/>
<path d="M71.5526 4.69788H64.566V11.6845H71.5526V4.69788Z" fill="#122A3A"/>
<path d="M71.4321 4.69788H78.4187V11.6845H71.4321V4.69788Z" fill="#122A3A"/>
<path d="M64.566 4.69788H71.5526V11.6845H64.566V4.69788Z" fill="#122A3A"/>
<path d="M78.4187 4.69788H71.4321V11.6845H78.4187V4.69788Z" fill="#122A3A"/>
<path d="M50.5927 2.16824H43.6061V4.69788H50.5927V2.16824Z" fill="#061119"/>
<path d="M92.392 2.16824H99.3786V4.69788H92.392V2.16824Z" fill="#061119"/>
<path d="M57.5793 0.722748H50.5927V4.6979H57.5793V0.722748Z" fill="#061119"/>
<path d="M85.5258 0.722748H92.392V4.6979H85.5258V0.722748Z" fill="#061119"/>
<path d="M64.566 0H57.5794V4.69789H64.566V0Z" fill="#061119"/>
<path d="M78.4187 0H85.5258V4.69789H78.4187V0Z" fill="#061119"/>
<path d="M71.5526 0H64.566V4.69789H71.5526V0Z" fill="#061119"/>
<path d="M71.4321 0H78.4187V4.69789H71.4321V0Z" fill="#061119"/>
<path d="M64.566 0H71.5526V4.69789H64.566V0Z" fill="#061119"/>
<path d="M78.4187 0H71.4321V4.69789H78.4187V0Z" fill="#061119"/>
<path d="M57.5793 38.6673H50.5927V40.956H57.5793V38.6673Z" fill="#5E080F"/>
<path d="M85.5258 38.6673H92.392V40.956H85.5258V38.6673Z" fill="#5E080F"/>
<path d="M50.5927 38.6673H43.6061V40.956H50.5927V38.6673Z" fill="#5E080F"/>
<path d="M92.392 38.6673H99.3786V40.956H92.392V38.6673Z" fill="#5E080F"/>
<path d="M33.8489 51.6768H26.8623V54.9292H33.8489V51.6768Z" fill="#5E080F"/>
<path d="M109.136 51.6768H116.122V54.9292H109.136V51.6768Z" fill="#5E080F"/>
<path d="M57.9407 60.5908H47.8222V63.8432H57.9407V60.5908Z" fill="#45070C"/>
<path d="M85.1644 60.5908H95.1625V63.8432H85.1644V60.5908Z" fill="#45070C"/>
<path d="M26.1396 61.7954H36.2581V65.2887H26.1396V61.7954Z" fill="#75590C"/>
<path d="M116.845 61.7954H106.727V65.2887H116.845V61.7954Z" fill="#75590C"/>
<path d="M33.1262 65.2887H43.2447V68.782H33.1262V65.2887Z" fill="#75590C"/>
<path d="M109.859 65.2887H99.74V68.782H109.859V65.2887Z" fill="#75590C"/>
<path d="M40.956 67.3365H51.0746V70.8298H40.956V67.3365Z" fill="#75590C"/>
<path d="M102.029 67.3365H91.9101V70.8298H102.029V67.3365Z" fill="#75590C"/>
<path d="M47.8222 70.8298H69.9866V74.3231H47.8222V70.8298Z" fill="#75590C"/>
<path d="M95.1625 70.8298H72.9981V74.4436H95.1625V70.8298Z" fill="#75590C"/>
<path d="M29.6329 11.6845H22.6463V18.6711H29.6329V11.6845Z" fill="#122A3A"/>
<path d="M113.352 11.6845H120.338V18.6711H113.352V11.6845Z" fill="#122A3A"/>
<path d="M29.6329 6.7457H22.6463V11.6845H29.6329V6.7457Z" fill="#061119"/>
<path d="M113.352 6.7457H120.338V11.6845H113.352V6.7457Z" fill="#061119"/>
<path d="M22.6463 9.63672H15.6597V18.6711H22.6463V9.63672Z" fill="#061119"/>
<path d="M120.338 9.63672H127.446V18.6711H120.338V9.63672Z" fill="#061119"/>
<path d="M15.6597 18.6711H8.67303V25.6577H15.6597V18.6711Z" fill="#122A3A"/>
<path d="M127.446 18.6711H134.432V25.6577H127.446V18.6711Z" fill="#122A3A"/>
<path d="M36.6195 18.6711H29.6329V25.6577H36.6195V18.6711Z" fill="#23445D"/>
<path d="M106.365 18.6711H113.352V25.6577H106.365V18.6711Z" fill="#23445D"/>
<path d="M43.6061 18.6711H36.6195V25.6577H43.6061V18.6711Z" fill="#23445D"/>
<path d="M99.3786 18.6711H106.365V25.6577H99.3786V18.6711Z" fill="#23445D"/>
<path d="M50.5927 18.6711H43.6061V25.6577H50.5927V18.6711Z" fill="#23445D"/>
<path d="M92.392 18.6711H99.3786V25.6577H92.392V18.6711Z" fill="#23445D"/>
<path d="M57.5793 18.6711H50.5927V25.6577H57.5793V18.6711Z" fill="#23445D"/>
<path d="M85.5258 18.6711H92.392V25.6577H85.5258V18.6711Z" fill="#23445D"/>
<path d="M64.566 18.6711H57.5794V25.6577H64.566V18.6711Z" fill="#375C76"/>
<path d="M78.4187 18.6711H85.5258V25.6577H78.4187V18.6711Z" fill="#375C76"/>
<path d="M71.5526 18.6711H64.566V25.6577H71.5526V18.6711Z" fill="#173446"/>
<path d="M71.4321 18.6711H78.4187V25.6577H71.4321V18.6711Z" fill="#173446"/>
<path d="M64.566 18.6711H71.5526V25.6577H64.566V18.6711Z" fill="#41B1FF"/>
<path d="M78.4187 18.6711H71.4321V25.6577H78.4187V18.6711Z" fill="#41B1FF"/>
<path d="M29.6329 18.6711H22.6463V25.6577H29.6329V18.6711Z" fill="#173446"/>
<path d="M113.352 18.6711H120.338V25.6577H113.352V18.6711Z" fill="#173446"/>
<path d="M22.6463 18.6711H15.6597V25.6577H22.6463V18.6711Z" fill="#122A3A"/>
<path d="M120.338 18.6711H127.446V25.6577H120.338V18.6711Z" fill="#122A3A"/>
<path d="M15.6597 25.6577H8.67303V32.6444H15.6597V25.6577Z" fill="#122A3A"/>
<path d="M127.446 25.6577H134.432V32.6444H127.446V25.6577Z" fill="#122A3A"/>
<path d="M36.6195 25.6577H29.6329V32.6444H36.6195V25.6577Z" fill="#23445D"/>
<path d="M106.365 25.6577H113.352V32.6444H106.365V25.6577Z" fill="#23445D"/>
<path d="M43.6061 25.6577H36.6195V32.6444H43.6061V25.6577Z" fill="#23445D"/>
<path d="M99.3786 25.6577H106.365V32.6444H99.3786V25.6577Z" fill="#23445D"/>
<path d="M50.5927 25.6577H43.6061V32.6444H50.5927V25.6577Z" fill="#23445D"/>
<path d="M92.392 25.6577H99.3786V32.6444H92.392V25.6577Z" fill="#23445D"/>
<path d="M57.5793 25.6577H50.5927V32.6444H57.5793V25.6577Z" fill="#375C76"/>
<path d="M85.5258 25.6577H92.392V32.6444H85.5258V25.6577Z" fill="#375C76"/>
<path d="M64.566 25.6577H57.5794V32.6444H64.566V25.6577Z" fill="#5095C5"/>
<path d="M78.4187 25.6577H85.5258V32.6444H78.4187V25.6577Z" fill="#5095C5"/>
<path d="M71.5526 25.6577H64.566V32.6444H71.5526V25.6577Z" fill="#23445D"/>
<path d="M71.4321 25.6577H78.4187V32.6444H71.4321V25.6577Z" fill="#23445D"/>
<path d="M64.566 25.6577H71.5526V32.6444H64.566V25.6577Z" fill="#41B1FF"/>
<path d="M78.4187 25.6577H71.4321V32.6444H78.4187V25.6577Z" fill="#41B1FF"/>
<path d="M29.6329 25.6577H22.6463V32.6444H29.6329V25.6577Z" fill="#173446"/>
<path d="M113.352 25.6577H120.338V32.6444H113.352V25.6577Z" fill="#173446"/>
<path d="M40.8356 45.6539H33.849V52.6405H40.8356V45.6539Z" fill="#902327"/>
<path d="M102.149 45.6539H109.136V52.6405H102.149V45.6539Z" fill="#902327"/>
<path d="M47.8222 39.631H40.8356V46.6176H47.8222V39.631Z" fill="#B8252D"/>
<path d="M95.1625 39.631H102.149V46.6176H95.1625V39.631Z" fill="#B8252D"/>
<path d="M56.7362 40.956H47.8222V46.6176H56.7362V40.956Z" fill="#902327"/>
<path d="M86.369 40.956H95.1625V46.6176H86.369V40.956Z" fill="#902327"/>
<path d="M47.8222 46.6176H40.8356V53.6042H47.8222V46.6176Z" fill="#FF2D2D"/>
<path d="M95.1625 46.6176H102.149V53.6042H95.1625V46.6176Z" fill="#FF2D2D"/>
<path d="M55.652 46.6176H47.8222V53.6042H55.652V46.6176Z" fill="#B8252D"/>
<path d="M87.4531 46.6176H95.1625V53.6042H87.4531V46.6176Z" fill="#B8252D"/>
<path d="M55.1702 53.6042H47.8222V60.5908H55.1702V53.6042Z" fill="#902327"/>
<path d="M87.935 53.6042H95.1625V60.5908H87.935V53.6042Z" fill="#902327"/>
<path d="M47.8222 53.6042H40.8356V60.5908H47.8222V53.6042Z" fill="#902327"/>
<path d="M95.1625 53.6042H102.149V60.5908H95.1625V53.6042Z" fill="#902327"/>
<path d="M40.8356 52.6405H33.849V58.3021H40.8356V52.6405Z" fill="#902327"/>
<path d="M102.149 52.6405H109.136V58.3021H102.149V52.6405Z" fill="#902327"/>
<path d="M22.6463 25.6577H15.6597V32.6444H22.6463V25.6577Z" fill="#122A3A"/>
<path d="M120.338 25.6577H127.446V32.6444H120.338V25.6577Z" fill="#122A3A"/>
<path d="M33.1262 64.9273H26.1396V71.914H33.1262V64.9273Z" fill="#061119"/>
<path d="M109.859 64.9273H116.845V71.914H109.859V64.9273Z" fill="#061119"/>
<path d="M40.1128 68.782H33.1262V75.7686H40.1128V68.782Z" fill="#061119"/>
<path d="M102.872 68.782H109.859V75.8891H102.872V68.782Z" fill="#061119"/>
<path d="M26.1396 66.7342H23.6099V81.912H26.1396V66.7342Z" fill="#000306"/>
<path d="M116.845 66.7342H119.375V81.912H116.845V66.7342Z" fill="#000306"/>
<path d="M40.1128 75.7686H33.1262V82.7553H40.1128V75.7686Z" fill="#173446"/>
<path d="M102.872 75.8891H109.859V82.7553H102.872V75.8891Z" fill="#173446"/>
<path d="M33.1262 78.9006H26.1396V88.4168H33.1262V78.9006Z" fill="#061119"/>
<path d="M109.859 78.9006H116.845V88.4168H109.859V78.9006Z" fill="#061119"/>
<path d="M40.1128 82.7552H33.1262V90.5851H40.1128V82.7552Z" fill="#173446"/>
<path d="M102.872 82.7552H109.859V90.5851H102.872V82.7552Z" fill="#173446"/>
<path d="M15.6597 32.6443H8.67303V39.631H15.6597V32.6443Z" fill="#000306"/>
<path d="M127.446 32.6443H134.432V39.631H127.446V32.6443Z" fill="#000306"/>
<path d="M36.6195 32.6443H29.6329V38.6673H36.6195V32.6443Z" fill="#173446"/>
<path d="M106.365 32.6443H113.352V38.6673H106.365V32.6443Z" fill="#173446"/>
<path d="M33.8489 39.631H26.8623V45.6539H33.8489V39.631Z" fill="#902327"/>
<path d="M109.136 39.631H116.122V45.6539H109.136V39.631Z" fill="#902327"/>
<path d="M40.8356 40.956H33.849V45.6539H40.8356V40.956Z" fill="#902327"/>
<path d="M102.149 40.956H109.136V45.6539H102.149V40.956Z" fill="#902327"/>
<path d="M33.8489 45.6539H26.8623V51.6768H33.8489V45.6539Z" fill="#902327"/>
<path d="M109.136 45.6539H116.122V51.6768H109.136V45.6539Z" fill="#902327"/>
<path d="M43.6061 32.6443H36.6195V39.631H43.6061V32.6443Z" fill="#173446"/>
<path d="M99.3786 32.6443H106.365V39.631H99.3786V32.6443Z" fill="#173446"/>
<path d="M33.9694 54.9293H26.1396V61.9159H33.9694V54.9293Z" fill="#9E7B1A"/>
<path d="M109.015 54.9293H116.845V61.9159H109.015V54.9293Z" fill="#9E7B1A"/>
<path d="M40.956 58.3021H33.9694V65.2887H40.956V58.3021Z" fill="#9E7B1A"/>
<path d="M102.029 58.3021H109.015V65.2887H102.029V58.3021Z" fill="#9E7B1A"/>
<path d="M47.9426 60.5908H40.956V67.5774H47.9426V60.5908Z" fill="#9E7B1A"/>
<path d="M95.0421 60.5908H102.029V67.5774H95.0421V60.5908Z" fill="#9E7B1A"/>
<path d="M54.9293 63.8432H47.9426V70.8298H54.9293V63.8432Z" fill="#9E7B1A"/>
<path d="M88.0555 63.8432H95.0421V70.8298H88.0555V63.8432Z" fill="#9E7B1A"/>
<path d="M61.9159 63.8432H54.9293V70.8298H61.9159V63.8432Z" fill="#9E7B1A"/>
<path d="M81.0688 63.8432H88.0555V70.8298H81.0688V63.8432Z" fill="#9E7B1A"/>
<path d="M69.8662 66.1319H61.7954V73.1185H69.8662V66.1319Z" fill="#9E7B1A"/>
<path d="M68.6616 66.1319H81.1893V73.239H68.6616V66.1319Z" fill="#9E7B1A"/>
<path d="M50.5927 32.6443H43.6061V38.6673H50.5927V32.6443Z" fill="#23445D"/>
<path d="M92.392 32.6443H99.3786V38.6673H92.392V32.6443Z" fill="#23445D"/>
<path d="M57.5793 32.6443H50.5927V38.6673H57.5793V32.6443Z" fill="#23445D"/>
<path d="M85.5258 32.6443H92.392V38.6673H85.5258V32.6443Z" fill="#23445D"/>
<path d="M64.566 32.6443H57.5794V38.6673H64.566V32.6443Z" fill="#061119"/>
<path d="M78.4187 32.6443H85.5258V38.6673H78.4187V32.6443Z" fill="#061119"/>
<path d="M66.2524 38.6673H73.239V44.6902H66.2524V38.6673Z" fill="#C08D00"/>
<path d="M76.7323 38.6673H69.7457V44.6902H76.7323V38.6673Z" fill="#C08D00"/>
<path d="M56.7362 40.8356H66.2524V46.8585H56.7362V40.8356Z" fill="#D3AB3B"/>
<path d="M86.369 40.8356H76.7323V46.8585H86.369V40.8356Z" fill="#D3AB3B"/>
<path d="M56.7361 44.6902H65.4092V47.7017H56.7361V44.6902Z" fill="#F6CB52"/>
<path d="M86.369 44.6902H77.5755V47.7017H86.369V44.6902Z" fill="#F6CB52"/>
<path d="M57.9407 61.9159H80.8279V66.1319H57.9407V61.9159Z" fill="#F6CB52"/>
<path d="M85.1644 61.9159H62.1568V66.1319H85.1644V61.9159Z" fill="#F6CB52"/>
<path d="M63.6023 62.6386H76.3709V68.4207H63.6023V62.6386Z" fill="#FFD971"/>
<path d="M79.3824 62.6386H66.6138V68.4207H79.3824V62.6386Z" fill="#FFD971"/>
<path d="M66.2524 56.6157H73.239V62.6386H66.2524V56.6157Z" fill="#C08D00"/>
<path d="M76.7323 56.6157H69.7457V62.6386H76.7323V56.6157Z" fill="#C08D00"/>
<path d="M59.2658 47.3403H66.2524V53.3633H59.2658V47.3403Z" fill="#C08D00"/>
<path d="M83.8394 47.3403H76.7323V53.3633H83.8394V47.3403Z" fill="#C08D00"/>
<path d="M65.4092 44.6902H74.3231V56.6157H65.4092V44.6902Z" fill="#D7A200"/>
<path d="M77.5755 44.6902H68.6616V56.6157H77.5755V44.6902Z" fill="#D7A200"/>
<path d="M71.5526 32.6443H64.566V37.1013H71.5526V32.6443Z" fill="#173446"/>
<path d="M71.4321 32.6443H78.4187V37.1013H71.4321V32.6443Z" fill="#173446"/>
<path d="M64.566 32.6443H71.5526V37.1013H64.566V32.6443Z" fill="#061119"/>
<path d="M78.4187 32.6443H71.4321V37.1013H78.4187V32.6443Z" fill="#061119"/>
<path d="M29.6329 32.6443H22.6463V38.6673H29.6329V32.6443Z" fill="#173446"/>
<path d="M113.352 32.6443H120.338V38.6673H113.352V32.6443Z" fill="#173446"/>
<path d="M22.6463 32.6443H15.6597V39.631H22.6463V32.6443Z" fill="#122A3A"/>
<path d="M120.338 32.6443H127.446V39.631H120.338V32.6443Z" fill="#122A3A"/>
<path d="M8.67304 33.9694H3.97514V38.6673H8.67304V33.9694Z" fill="#000306"/>
<path d="M134.432 33.9694H139.13V38.6673H134.432V33.9694Z" fill="#000306"/>
<path d="M8.67304 26.9828H1.68642V33.9694H8.67304V26.9828Z" fill="#061119"/>
<path d="M134.432 26.8623H141.298V33.9694H134.432V26.8623Z" fill="#061119"/>
<path d="M1.68643 21.8031H0V32.0421H1.68643V21.8031Z" fill="#061119"/>
<path d="M141.298 21.8031H142.985V32.0421H141.298V21.8031Z" fill="#061119"/>
<path d="M8.67304 16.8642H1.68642V26.9828H8.67304V16.8642Z" fill="#000306"/>
<path d="M134.432 16.8642H141.298V26.8623H134.432V16.8642Z" fill="#000306"/>
<path d="M33.8489 38.6673H26.8623V39.631H33.8489V38.6673Z" fill="#5E080F"/>
<path d="M109.136 38.6673H116.122V39.631H109.136V38.6673Z" fill="#5E080F"/>
<path d="M40.8356 38.6673H33.849V40.956H40.8356V38.6673Z" fill="#5E080F"/>
<path d="M102.149 38.6673H109.136V40.956H102.149V38.6673Z" fill="#5E080F"/>
<path d="M57.9407 57.6998H55.1702V60.5908H57.9407V57.6998Z" fill="#902327"/>
<path d="M85.1644 57.6998H87.935V60.5908H85.1644V57.6998Z" fill="#902327"/>
<path d="M40.2333 90.5851H33.2467V92.7533H40.2333V90.5851Z" fill="#061119"/>
<path d="M102.751 90.5851H109.738V92.7533H102.751V90.5851Z" fill="#061119"/>
<path d="M33.1262 71.914H26.1396V81.9121H33.1262V71.914Z" fill="#173446"/>
<path d="M109.859 71.914H116.845V81.9121H109.859V71.914Z" fill="#173446"/>
</svg>
