<svg width="4273" height="4273" viewBox="0 0 4273 4273" fill="none" xmlns="http://www.w3.org/2000/svg">
<g clip-path="url(#clip0_495_871)">
<g filter="url(#filter0_f_495_871)">
<path d="M2191.08 3443.39C2942.85 3443.39 3552.28 2833.96 3552.28 2082.19C3552.28 1330.43 2942.85 721 2191.08 721C1439.31 721 829.887 1330.43 829.887 2082.19C829.887 2833.96 1439.31 3443.39 2191.08 3443.39Z" fill="url(#paint0_linear_495_871)" fill-opacity="0.51"/>
</g>
<path d="M1405.56 2849H1482.38H2206.11L2196.51 3271.11H1987.86V3209.59H1529.53V3151.18H1340.96V2940.12H1405.56V2849Z" fill="#4A7A27"/>
<path d="M2534.03 2789.69H1892.14V2868.18H2534.03V2789.69Z" fill="#040404"/>
<path fill-rule="evenodd" clip-rule="evenodd" d="M2893.91 2843.77H2955.19V2999.61H3006.73V3110H2941V3172.73H2856.3V3220.64H2490.68V3271.11H2177.14L2169.48 2843.77H2893.91Z" fill="#4A7A27"/>
<path d="M1561.61 2822.52H1477.3V2962.29H1561.61V2822.52Z" fill="#2D5B0B"/>
<path d="M2872.77 2820.3H2788.47V3066.56H2872.77V2820.3Z" fill="#2D5B0B"/>
<path d="M2789.93 2083.14V1986.9H2963.43V2170.79H2698.88V2083.14H2789.93Z" fill="#2D5B0B"/>
<path d="M1586.27 2083.14V1986.9H1414.89V2170.79H1676.21V2083.14H1586.27Z" fill="#2D5B0B"/>
<path d="M2552.07 2493.4H2460.13H2385.93V2414.36H1971.37V2493.4H2052.02V2657.93H1964.92V2493.4H1802V2583.73H1722.96V2904.72H1964.92V2980.54H2224.62V2912.79H2297.21V2980.54H2385.93V2904.72H2632.72V2572.44H2552.07V2493.4Z" fill="#599A2A"/>
<path d="M2218.18 1999.81V1836.89H2303.67V1669.13H2469.81V1751.4H2792.42V1836.89H2876.3V1999.81H2792.42V2090.14H2710.16V2165.95H2631.12V2248.22H2545.63V2327.25H2792.42V2165.95H3045.67V2248.22H3126.33V2415.97H3045.67V2490.17H3126.33V2738.58H2958.57V2825.69H2811.78V2911.18H2710.16V2582.12H2631.12V2490.17H2545.63V2415.97H2458.52V2327.25H2137.53V1999.81H2218.18Z" fill="#599A2A"/>
<path d="M2140.9 2000.55V1838.06H2055.55V1670.74H1889.68V1752.79H1567.59V1838.06H1483.85V2000.55H1567.59V2090.65H1649.73V2166.26H1728.64V2248.31H1813.99V2327.14H1567.59V2166.26H1314.76V2248.31H1234.24V2415.63H1314.76V2489.64H1234.24V2737.4H1401.72V2824.27H1560.5V2899.89H1649.73V2581.34H1728.64V2489.64H1813.99V2415.63H1900.95V2327.14H2221.43V2000.55H2140.9Z" fill="#599A2A"/>
<path d="M2053.64 2493.4H1966.54V2661.16H2053.64V2493.4Z" fill="#040404"/>
<path d="M2379.5 2493.4H2292.39V2661.16H2379.5V2493.4Z" fill="#040404"/>
<path d="M1969.77 2412.75H1885.89V2496.63H1969.77V2412.75Z" fill="#040404"/>
<path d="M2466.59 2412.75H2382.71V2496.63H2466.59V2412.75Z" fill="#040404"/>
<path d="M2550.49 2412.75H2466.61V2496.63H2550.49V2412.75Z" fill="#2D5B0B"/>
<path d="M1889.13 2412.75H1805.25V2496.63H1889.13V2412.75Z" fill="#2D5B0B"/>
<path d="M2631.12 2493.4H2547.24V2577.28H2631.12V2493.4Z" fill="#2D5B0B"/>
<path d="M1805.24 2493.4H1721.36V2577.28H1805.24V2493.4Z" fill="#2D5B0B"/>
<path d="M2715.44 2576.9H2631.71V2871.68H2715.44V2576.9Z" fill="#2D5B0B"/>
<path d="M2466.59 2328.87H1885.89V2412.75H2466.59V2328.87Z" fill="#2D5B0B"/>
<path d="M2715.02 2241.76H2631.14V2325.64H2715.02V2241.76Z" fill="#B8252D"/>
<path d="M1643.93 2241.76H1727.81V2325.64H1643.93V2241.76Z" fill="#B8252D"/>
<path d="M2715.02 2161.11H2631.14V2244.99H2715.02V2161.11Z" fill="#5E080F"/>
<path d="M1643.94 2161.11H1727.82V2244.99H1643.94V2161.11Z" fill="#5E080F"/>
<path d="M1310.91 2161.38H1394.79V2245.26H1310.91V2161.38Z" fill="#4A7A27"/>
<path d="M2961.52 2161.38H3045.4V2245.26H2961.52V2161.38Z" fill="#4A7A27"/>
<path d="M1803.43 2325.56H1887.31V2409.44H1803.43V2325.56Z" fill="#4A7A27"/>
<path d="M1721.34 2409.87H1805.22V2493.75H1721.34V2409.87Z" fill="#4A7A27"/>
<path d="M2466.78 2330H2550.66V2413.88H2466.78V2330Z" fill="#4A7A27"/>
<path d="M2544.42 2400.99H2628.73V2494.17H2544.42V2400.99Z" fill="#4A7A27"/>
<path d="M2635.39 2003.87H2553.3V2088.18H2635.39V2003.87Z" fill="#1E3D07"/>
<path d="M2553.31 2037.15H2469V2121.46H2553.31V2037.15Z" fill="#1E3D07"/>
<path d="M2468.99 2019.4H2384.69V2150.3H2468.99V2019.4Z" fill="#1E3D07"/>
<path d="M1481.73 1899.59H2879.43V2017.17H1481.73V1899.59Z" fill="#1E3D07"/>
<path d="M2879.43 2243.47H2963.31V2327.35H2879.43V2243.47Z" fill="#6DB539"/>
<path d="M1475.08 2241.25H1392.99V2325.56H1475.08V2241.25Z" fill="#6DB539"/>
<path d="M2879.43 2325.56H2963.31V2409.44H2879.43V2325.56Z" fill="#95E05E"/>
<path d="M1475.08 2323.34H1392.99V2405.43H1475.08V2323.34Z" fill="#95E05E"/>
<path d="M2795.13 2325.56H2879.01V2409.44H2795.13V2325.56Z" fill="#6DB539"/>
<path d="M2382.47 2491.95H2466.35V2575.83H2382.47V2491.95Z" fill="#474747"/>
<path d="M1881.08 2491.95H1964.96V2575.83H1881.08V2491.95Z" fill="#474747"/>
<path d="M1559.38 2323.34H1475.08V2405.43H1559.38V2323.34Z" fill="#6DB539"/>
<path d="M2795.13 2409.87H2879.01V2493.75H2795.13V2409.87Z" fill="#95E05E"/>
<path d="M1559.38 2405.43H1475.08V2489.74H1559.38V2405.43Z" fill="#95E05E"/>
<path d="M2710.82 2409.87H2794.7V2493.75H2710.82V2409.87Z" fill="#6DB539"/>
<path d="M1641.47 2405.43H1559.38V2489.74H1641.47V2405.43Z" fill="#6DB539"/>
<path d="M2710.82 2491.95H2794.7V2575.83H2710.82V2491.95Z" fill="#6DB539"/>
<path d="M1641.47 2487.51H1559.38V2569.6H1641.47V2487.51Z" fill="#6DB539"/>
<path d="M2788.47 2565.16H2872.35V2649.04H2788.47V2565.16Z" fill="#6DB539"/>
<path d="M2060.78 2161.38H2260.45V2245.69H2060.78V2161.38Z" fill="#6DB539"/>
<path d="M1965.38 2633.94V2833.61H1881.07V2633.94H1965.38Z" fill="#6DB539"/>
<path d="M2378.04 2818.08V2618.41H2462.34V2818.08H2378.04Z" fill="#6DB539"/>
<path d="M2007.54 2243.47H2298.17V2327.78H2007.54V2243.47Z" fill="#6DB539"/>
<path d="M1883.3 2580.7V2871.33H1799V2580.7H1883.3Z" fill="#6DB539"/>
<path d="M2460.12 2871.32V2580.69H2544.43V2871.32H2460.12Z" fill="#6DB539"/>
<path d="M1563.82 2558.51H1481.73V2642.82H1563.82V2558.51Z" fill="#6DB539"/>
<path d="M3043.6 2247.91H3127.91V2332.22H3043.6V2247.91Z" fill="#4A7A27"/>
<path d="M3043.6 2330H3127.91V2416.52H3043.6V2330Z" fill="#2D5B0B"/>
<path d="M2963.74 2400.99H3047.62V2484.87H2963.74V2400.99Z" fill="#4A7A27"/>
<path d="M2872.78 2824.74H2956.66V2908.62H2872.78V2824.74Z" fill="#1F3F07"/>
<path d="M1483.96 2822.52H1401.87V2906.83H1483.96V2822.52Z" fill="#1F3F07"/>
<path d="M1310.91 2409.87H1394.79V2493.75H1310.91V2409.87Z" fill="#4A7A27"/>
<path d="M1233.25 2241.25H1317.56V2327.77H1233.25V2241.25Z" fill="#4A7A27"/>
<path d="M1233.25 2327.78H1317.56V2420.96H1233.25V2327.78Z" fill="#2D5B0B"/>
<path d="M2631.12 2241.76H2547.24V2325.64H2631.12V2241.76Z" fill="#5E080F"/>
<path d="M1727.83 2241.76H1811.71V2325.64H1727.83V2241.76Z" fill="#5E080F"/>
<path d="M2798.89 2167.56H2715.01V2325.64H2798.89V2167.56Z" fill="#B8252D"/>
<path d="M1560.06 2167.56H1643.94V2325.64H1560.06V2167.56Z" fill="#B8252D"/>
<path d="M1559.39 2241.76H1643.27V2325.64H1559.39V2241.76Z" fill="#C23A41"/>
<path d="M2715.26 2241.76H2799.14V2325.64H2715.26V2241.76Z" fill="#C23A41"/>
<path d="M2118.46 2163.6H2202.34V2247.48H2118.46V2163.6Z" fill="#95E05E"/>
<path d="M2420.19 2740.43V2824.74H1912.14V2740.43H2420.19Z" fill="#6DB539"/>
<path d="M2071.88 2824.74V2740.43H2249.36V2824.74H2071.88Z" fill="#95E05E"/>
<path d="M1404.64 2652.53V2556.29H1233.26V2740.18H1494.57V2652.53H1404.64Z" fill="#4A7A27"/>
<path d="M2945.27 2650.65V2549.63H3125.69V2742.65H2850.59V2650.65H2945.27Z" fill="#4A7A27"/>
<path d="M2097.97 3165.3V3080.99H2275.45V3165.3H2097.97Z" fill="#5D9335"/>
<path d="M2814.87 2983.31H2899.17V3160.8H2814.87V2983.31Z" fill="#5D9335"/>
<path d="M1523 2959H1438V3139H1523V2959Z" fill="#5D9335"/>
<path d="M2143.32 3080.99V3040.87H2228.79V3080.99H2143.32Z" fill="#5D9335"/>
<path d="M2899.16 3028.66H2939.28V3114.13H2899.16V3028.66Z" fill="#5D9335"/>
<path d="M1438 3005H1398V3091H1438V3005Z" fill="#5D9335"/>
<path d="M2682.29 3196.11H1702.02V3271.11H2682.29V3196.11Z" fill="#346212"/>
<path d="M2506.12 3271.11H1899.12V3457.75H2506.12V3271.11Z" fill="#224608"/>
<path d="M2268.9 3220.53H2731.13V3293.79H2268.9V3220.53Z" fill="#224608"/>
<path d="M1637.48 2871.68H1483.99V2937.96H1637.48V2871.68Z" fill="#1F3F07"/>
<path d="M2738.11 2871.68H2891.61V2937.96H2738.11V2871.68Z" fill="#1F3F07"/>
<path d="M1790.98 2871.68H1637.48V2962.38H1790.98V2871.68Z" fill="#214508"/>
<path d="M1722.95 3107.15H1834.58V3199.6H1722.95V3107.15Z" fill="#437121"/>
<path d="M1722.95 3021.68H1790.98V3114.13H1722.95V3021.68Z" fill="#437121"/>
<path d="M2584.61 2871.68H2738.11V2962.38H2584.61V2871.68Z" fill="#2D5B0B"/>
<path d="M2354.38 3367.05H2507.87V3457.75H2354.38V3367.05Z" fill="#152A04"/>
<path d="M1899.12 3367.05H2054.36V3457.75H1899.12V3367.05Z" fill="#152A04"/>
<path d="M1747.38 3271.11H1900.87V3361.81H1747.38V3271.11Z" fill="#1A3506"/>
<path d="M2502.63 3271.11H2656.13V3361.81H2502.63V3271.11Z" fill="#1A3506"/>
<path d="M2042.15 2871.68H1790.98V2990.29H2042.15V2871.68Z" fill="#599A2A"/>
<path d="M2333.45 2871.68H2584.62V2990.29H2333.45V2871.68Z" fill="#599A2A"/>
<path d="M2333.44 2871.68H2042.15V3019.94H2333.44V2871.68Z" fill="#599A2A"/>
<path d="M2490.43 2985.05H2415.42V3044.36H2490.43V2985.05Z" fill="#B2C1A7"/>
<path d="M1869.47 2985.05H1944.47V3044.36H1869.47V2985.05Z" fill="#B2C1A7"/>
<path d="M2474.73 3042.61H2431.12V3077.49H2474.73V3042.61Z" fill="#B2C1A7"/>
<path d="M1885.16 3042.61H1928.77V3077.49H1885.16V3042.61Z" fill="#B2C1A7"/>
<path d="M2443.32 3042.61H2387.51V3138.54H2443.32V3042.61Z" fill="#B2C1A7"/>
<path d="M1916.56 3042.61H1972.38V3138.54H1916.56V3042.61Z" fill="#B2C1A7"/>
<path d="M2415.42 2985.05H2361.35V3046.1H2415.42V2985.05Z" fill="#B2C1A7"/>
<path d="M1944.47 2985.05H1998.54V3044.36H1944.47V2985.05Z" fill="#B2C1A7"/>
<path d="M2361.35 2983.31H2307.28V3044.36H2361.35V2983.31Z" fill="#94A687"/>
<path d="M1998.55 2983.31H2052.62V3044.36H1998.55V2983.31Z" fill="#94A687"/>
<path d="M1724.69 2576.9H1637.48V3210.07H1724.69V2576.9Z" fill="#2D5B0B"/>
<path d="M2699.74 2723.41H2769.51V3230.99H2699.74V2723.41Z" fill="#346212"/>
<path d="M1599.11 2723.41H1668.88V3210.06H1599.11V2723.41Z" fill="#346212"/>
<path d="M2612.52 2962.38H2696.83V3055.56H2612.52V2962.38Z" fill="#437121"/>
<path d="M2584.62 3056.57H2696.25V3149.02H2584.62V3056.57Z" fill="#437121"/>
<path d="M1981.1 3335.64V3251.92H2424.14V3335.64H1981.1Z" fill="#2D590C"/>
<path d="M2162.51 3251.92H2246.23V3335.64H2162.51V3251.92Z" fill="#437121"/>
<path d="M2117.15 3419.96V3335.65H2294.63V3419.96H2117.15Z" fill="#2D590C"/>
<path d="M2957 2743H3040.88V2826.88H2957V2743Z" fill="#4A7A27"/>
<path d="M1321.12 2737H1405V2820.88H1321.12V2737Z" fill="#4A7A27"/>
<path d="M2957 2827H3040.88V2910.88H2957V2827Z" fill="#4A7A27"/>
<path d="M1321.12 2821H1405V2904.88H1321.12V2821Z" fill="#4A7A27"/>
<path d="M2953 2909H3041V2999H2953V2909Z" fill="#4A7A27"/>
<path d="M1321 2903H1409V2993H1321V2903Z" fill="#4A7A27"/>
<path d="M2265.85 2072.7L2019.47 2103.89L2022.59 2128.53L2268.97 2097.34L2265.85 2072.7Z" fill="#061119"/>
<path d="M2065.83 1745.03L2059.91 1698.24L2124.32 1690.09L2130.24 1736.88L2197.23 1728.4L2220.24 1910.14L2153.25 1918.62L2164.86 2010.39L2100.45 2018.54L2088.83 1926.77L2023.13 1935.09L2000.13 1753.35L2065.83 1745.03Z" fill="#666666"/>
<path d="M2443.93 1699.7L2542.48 1687.23L2551.84 1761.14L2453.28 1773.62L2443.93 1699.7Z" fill="#061119"/>
<path d="M2222.19 1727.76L2320.74 1715.29L2330.09 1789.2L2231.54 1801.68L2222.19 1727.76Z" fill="#173446"/>
<path d="M2099 1743.36L2222.19 1727.77L2231.55 1801.68L2108.36 1817.28L2099 1743.36Z" fill="#122A3A"/>
<path d="M2320.74 1715.29L2443.93 1699.7L2453.29 1773.61L2330.09 1789.21L2320.74 1715.29Z" fill="#173446"/>
<path d="M2453.29 1773.62L2551.84 1761.14L2564.31 1859.69L2465.76 1872.17L2453.29 1773.62Z" fill="#122A3A"/>
<path d="M2231.54 1801.69L2330.09 1789.21L2342.56 1887.76L2244.01 1900.24L2231.54 1801.69Z" fill="#23445D"/>
<path d="M2108.35 1817.27L2231.54 1801.68L2244.01 1900.23L2120.82 1915.83L2108.35 1817.27Z" fill="#173446"/>
<path d="M2330.1 1789.21L2453.29 1773.62L2465.76 1872.17L2342.57 1887.77L2330.1 1789.21Z" fill="#122A3A"/>
<path d="M2465.76 1872.17L2564.31 1859.7L2573.66 1933.61L2475.11 1946.09L2465.76 1872.17Z" fill="#122A3A"/>
<path d="M2244.02 1900.24L2342.57 1887.76L2351.93 1961.68L2253.37 1974.15L2244.02 1900.24Z" fill="#23445D"/>
<path d="M2120.83 1915.83L2244.02 1900.24L2253.38 1974.15L2130.18 1989.75L2120.83 1915.83Z" fill="#375C76"/>
<path d="M2253.37 1974.15L2351.92 1961.68L2361.27 2035.59L2262.72 2048.07L2253.37 1974.15Z" fill="#122A3A"/>
<path d="M2130.19 1989.74L2253.38 1974.15L2262.73 2048.06L2139.54 2063.66L2130.19 1989.74Z" fill="#23445D"/>
<path d="M2262.73 2048.06L2361.28 2035.59L2364.4 2060.23L2265.85 2072.7L2262.73 2048.06Z" fill="#061119"/>
<path d="M2139.54 2063.66L2262.73 2048.07L2268.97 2097.35L2145.78 2112.94L2139.54 2063.66Z" fill="#173446"/>
<path d="M2342.57 1887.76L2465.76 1872.17L2475.11 1946.09L2351.92 1961.68L2342.57 1887.76Z" fill="#23445D"/>
<path d="M2475.12 1946.08L2573.67 1933.61L2579.91 1982.89L2481.35 1995.36L2475.12 1946.08Z" fill="#173446"/>
<path d="M2351.92 1961.67L2475.11 1946.08L2484.47 2019.99L2361.27 2035.59L2351.92 1961.67Z" fill="#173446"/>
<path d="M2659.44 1622.36L2782.63 1606.77L2795.1 1705.32L2671.91 1720.92L2659.44 1622.36Z" fill="#061119"/>
<path d="M2542.48 1687.22L2665.67 1671.63L2675.02 1745.54L2551.83 1761.14L2542.48 1687.22Z" fill="#122A3A"/>
<path d="M2782.63 1606.77L2807.27 1603.65L2832.22 1800.75L2807.58 1803.87L2782.63 1606.77Z" fill="#000306"/>
<path d="M2671.91 1720.91L2795.1 1705.32L2801.34 1754.6L2678.15 1770.19L2671.91 1720.91Z" fill="#173446"/>
<path d="M2551.84 1761.14L2675.03 1745.55L2687.51 1844.1L2564.31 1859.7L2551.84 1761.14Z" fill="#122A3A"/>
<path d="M2678.15 1770.18L2801.34 1754.59L2816.93 1877.78L2693.74 1893.37L2678.15 1770.18Z" fill="#061119"/>
<path d="M2564.31 1859.69L2687.5 1844.1L2696.86 1918.02L2573.66 1933.61L2564.31 1859.69Z" fill="#173446"/>
<path d="M1778.69 1783.91L1655.5 1799.5L1664.86 1873.41L1788.05 1857.82L1778.69 1783.91Z" fill="#061119"/>
<path d="M2000.44 1755.84L1877.25 1771.43L1886.61 1845.34L2009.8 1829.75L2000.44 1755.84Z" fill="#061119"/>
<path d="M2099 1743.37L2000.45 1755.84L2009.81 1829.75L2108.36 1817.28L2099 1743.37Z" fill="#061119"/>
<path d="M1877.25 1771.42L1778.7 1783.9L1788.06 1857.81L1886.61 1845.34L1877.25 1771.42Z" fill="#061119"/>
<path d="M1788.06 1857.82L1664.87 1873.41L1677.35 1971.96L1800.54 1956.37L1788.06 1857.82Z" fill="#122A3A"/>
<path d="M2009.8 1829.76L1886.61 1845.35L1899.08 1943.9L2022.27 1928.31L2009.8 1829.76Z" fill="#173446"/>
<path d="M2108.35 1817.28L2009.8 1829.75L2022.28 1928.3L2120.83 1915.83L2108.35 1817.28Z" fill="#23445D"/>
<path d="M1886.6 1845.35L1788.05 1857.82L1800.53 1956.37L1899.08 1943.9L1886.6 1845.35Z" fill="#122A3A"/>
<path d="M1800.53 1956.37L1677.34 1971.96L1686.7 2045.88L1809.89 2030.28L1800.53 1956.37Z" fill="#122A3A"/>
<path d="M2022.27 1928.31L1899.08 1943.9L1908.43 2017.81L2031.63 2002.22L2022.27 1928.31Z" fill="#23445D"/>
<path d="M2120.82 1915.83L2022.27 1928.3L2031.63 2002.22L2130.18 1989.74L2120.82 1915.83Z" fill="#375C76"/>
<path d="M2031.62 2002.22L1908.43 2017.81L1917.79 2091.72L2040.98 2076.13L2031.62 2002.22Z" fill="#122A3A"/>
<path d="M2130.18 1989.74L2031.63 2002.22L2040.98 2076.13L2139.54 2063.66L2130.18 1989.74Z" fill="#23445D"/>
<path d="M2040.99 2076.14L1917.8 2091.73L1920.92 2116.37L2044.11 2100.78L2040.99 2076.14Z" fill="#061119"/>
<path d="M2139.53 2063.65L2040.98 2076.13L2047.22 2125.41L2145.77 2112.93L2139.53 2063.65Z" fill="#173446"/>
<path d="M1899.08 1943.9L1800.53 1956.37L1809.89 2030.29L1908.44 2017.81L1899.08 1943.9Z" fill="#23445D"/>
<path d="M1809.89 2030.29L1686.7 2045.88L1692.94 2095.16L1816.13 2079.56L1809.89 2030.29Z" fill="#173446"/>
<path d="M1816.12 2079.56L1692.93 2095.15L1696.05 2119.79L1819.24 2104.19L1816.12 2079.56Z" fill="#061119"/>
<path d="M1420.98 1528.78L1347.07 1538.14L1350.19 1562.78L1424.1 1553.42L1420.98 1528.78Z" fill="#061119"/>
<path d="M2579.9 1982.88L2481.35 1995.36L2484.47 2020L2583.02 2007.52L2579.9 1982.88Z" fill="#061119"/>
<path d="M1908.44 2017.81L1809.89 2030.29L1819.25 2104.2L1917.8 2091.73L1908.44 2017.81Z" fill="#173446"/>
<path d="M1882.87 1420.26L2129.25 1389.07L2138.61 1462.98L1892.22 1494.17L1882.87 1420.26Z" fill="#D3AB3B"/>
<path d="M2129.25 1389.08L2350.99 1361.01L2360.34 1434.93L2138.6 1462.99L2129.25 1389.08Z" fill="#D3AB3B"/>
<path d="M1984.85 1632.65L2132.68 1613.94L2138.92 1663.22L1991.09 1681.93L1984.85 1632.65Z" fill="#F6CB52"/>
<path d="M2132.67 1613.93L2280.5 1595.22L2286.74 1644.49L2138.91 1663.21L2132.67 1613.93Z" fill="#F6CB52"/>
<path d="M1929.34 1589.6L2052.53 1574.01L2061.89 1647.93L1938.7 1663.52L1929.34 1589.6Z" fill="#F6CB52"/>
<path d="M2175.72 1558.42L2298.91 1542.83L2308.27 1616.74L2185.07 1632.34L2175.72 1558.42Z" fill="#F6CB52"/>
<path d="M1880.06 1595.85L1978.61 1583.37L1987.97 1657.29L1889.41 1669.76L1880.06 1595.85Z" fill="#CA9A15"/>
<path d="M2274.27 1545.94L2372.82 1533.47L2382.18 1607.38L2283.62 1619.86L2274.27 1545.94Z" fill="#CA9A15"/>
<path d="M1938.69 1663.53L1987.97 1657.29L1994.21 1706.57L1944.93 1712.8L1938.69 1663.53Z" fill="#9D770C"/>
<path d="M2283.62 1619.87L2357.54 1610.51L2363.78 1659.79L2289.86 1669.14L2283.62 1619.87Z" fill="#9D770C"/>
<path d="M1846.06 1525.05L1993.89 1506.34L2003.25 1580.25L1855.42 1598.97L1846.06 1525.05Z" fill="#F6CB52"/>
<path d="M2212.51 1453.63L2360.34 1434.92L2372.81 1533.47L2224.99 1552.19L2212.51 1453.63Z" fill="#F6CB52"/>
<path d="M1183.33 1233.45L1084.78 1245.92L1094.14 1319.84L1192.69 1307.36L1183.33 1233.45Z" fill="#061119"/>
<path d="M2883.37 1018.26L2981.92 1005.79L2991.27 1079.7L2892.72 1092.18L2883.37 1018.26Z" fill="#061119"/>
<path d="M1525.15 1165.15L1401.96 1180.74L1414.44 1279.29L1537.63 1263.7L1525.15 1165.15Z" fill="#122A3A"/>
<path d="M2535.31 1037.28L2633.86 1024.81L2646.33 1123.36L2547.78 1135.84L2535.31 1037.28Z" fill="#122A3A"/>
<path d="M1645.22 1124.92L1522.03 1140.51L1537.62 1263.7L1660.82 1248.11L1645.22 1124.92Z" fill="#122A3A"/>
<path d="M2409.01 1028.23L2532.2 1012.64L2547.79 1135.83L2424.6 1151.42L2409.01 1028.23Z" fill="#122A3A"/>
<path d="M1750 1161.72L1651.45 1174.19L1660.81 1248.11L1759.36 1235.63L1750 1161.72Z" fill="#173446"/>
<path d="M2316.69 1089.99L2415.24 1077.51L2424.59 1151.43L2326.04 1163.9L2316.69 1089.99Z" fill="#173446"/>
<path d="M1873.2 1146.12L1750.01 1161.71L1759.36 1235.63L1882.55 1220.03L1873.2 1146.12Z" fill="#23445D"/>
<path d="M2193.5 1105.58L2316.69 1089.99L2326.05 1163.9L2202.86 1179.5L2193.5 1105.58Z" fill="#23445D"/>
<path d="M1971.75 1133.65L1873.2 1146.12L1882.56 1220.04L1981.11 1207.56L1971.75 1133.65Z" fill="#173446"/>
<path d="M2094.95 1118.05L2193.5 1105.58L2202.86 1179.49L2104.3 1191.97L2094.95 1118.05Z" fill="#173446"/>
<path d="M2094.94 1118.06L1971.75 1133.65L1981.11 1207.56L2104.3 1191.97L2094.94 1118.06Z" fill="#23445D"/>
<path d="M1971.76 1133.64L2094.95 1118.05L2104.3 1191.97L1981.11 1207.56L1971.76 1133.64Z" fill="#23445D"/>
<path d="M1522.03 1140.51L1398.84 1156.1L1401.96 1180.74L1525.15 1165.15L1522.03 1140.51Z" fill="#00020A"/>
<path d="M2532.2 1012.65L2630.75 1000.17L2633.87 1024.81L2535.32 1037.28L2532.2 1012.65Z" fill="#00020A"/>
<path d="M1642.1 1100.28L1518.91 1115.87L1522.03 1140.51L1645.22 1124.92L1642.1 1100.28Z" fill="#061119"/>
<path d="M2405.88 1003.6L2529.07 988.008L2532.19 1012.65L2409 1028.24L2405.88 1003.6Z" fill="#061119"/>
<path d="M1743.77 1112.44L1645.22 1124.91L1651.46 1174.19L1750.01 1161.71L1743.77 1112.44Z" fill="#122A3A"/>
<path d="M2310.45 1040.71L2409 1028.24L2415.24 1077.51L2316.68 1089.99L2310.45 1040.71Z" fill="#122A3A"/>
<path d="M1866.97 1096.85L1743.78 1112.44L1750.02 1161.72L1873.21 1146.12L1866.97 1096.85Z" fill="#122A3A"/>
<path d="M2187.26 1056.3L2310.45 1040.71L2316.69 1089.99L2193.5 1105.58L2187.26 1056.3Z" fill="#122A3A"/>
<path d="M1965.51 1084.38L1866.96 1096.85L1873.2 1146.13L1971.75 1133.65L1965.51 1084.38Z" fill="#122A3A"/>
<path d="M2088.71 1068.78L2187.26 1056.3L2193.49 1105.58L2094.94 1118.05L2088.71 1068.78Z" fill="#122A3A"/>
<path d="M2088.71 1068.78L1965.52 1084.37L1971.76 1133.65L2094.95 1118.05L2088.71 1068.78Z" fill="#122A3A"/>
<path d="M1965.52 1084.37L2088.71 1068.78L2094.95 1118.06L1971.76 1133.65L1965.52 1084.37Z" fill="#122A3A"/>
<path d="M1737.53 1063.15L1638.98 1075.63L1645.22 1124.91L1743.77 1112.43L1737.53 1063.15Z" fill="#061119"/>
<path d="M2304.21 991.435L2402.76 978.961L2408.99 1028.24L2310.44 1040.71L2304.21 991.435Z" fill="#061119"/>
<path d="M1857.61 1022.93L1734.42 1038.52L1743.77 1112.43L1866.96 1096.84L1857.61 1022.93Z" fill="#061119"/>
<path d="M2177.9 982.39L2301.09 966.797L2310.45 1040.71L2187.25 1056.3L2177.9 982.39Z" fill="#061119"/>
<path d="M1956.16 1010.46L1857.61 1022.93L1866.97 1096.84L1965.52 1084.37L1956.16 1010.46Z" fill="#061119"/>
<path d="M2079.36 994.865L2177.91 982.391L2187.27 1056.3L2088.71 1068.78L2079.36 994.865Z" fill="#061119"/>
<path d="M2079.35 994.868L1956.16 1010.46L1965.52 1084.38L2088.71 1068.78L2079.35 994.868Z" fill="#061119"/>
<path d="M1956.16 1010.46L2079.35 994.863L2088.71 1068.78L1965.52 1084.37L1956.16 1010.46Z" fill="#061119"/>
<path d="M1535.12 1639.51L1436.57 1651.98L1439.69 1676.62L1538.24 1664.14L1535.12 1639.51Z" fill="#5E080F"/>
<path d="M2717.75 1489.81L2816.3 1477.34L2819.42 1501.98L2720.87 1514.45L2717.75 1489.81Z" fill="#5E080F"/>
<path d="M1941.81 1688.16L1769.34 1709.99L1772.46 1734.63L1944.93 1712.8L1941.81 1688.16Z" fill="#45070C"/>
<path d="M2336.02 1638.26L2508.49 1616.43L2511.61 1641.07L2339.14 1662.9L2336.02 1638.26Z" fill="#45070C"/>
<path d="M2656.31 1597.72L2828.78 1575.89L2831.9 1600.53L2659.43 1622.36L2656.31 1597.72Z" fill="#75590C"/>
<path d="M1424.41 1753.65L1596.88 1731.82L1600 1756.46L1427.53 1778.29L1424.41 1753.65Z" fill="#75590C"/>
<path d="M2585.52 1631.71L2733.35 1613L2739.59 1662.28L2591.76 1680.99L2585.52 1631.71Z" fill="#75590C"/>
<path d="M1550.72 1762.69L1698.55 1743.98L1704.79 1793.26L1556.96 1811.97L1550.72 1762.69Z" fill="#75590C"/>
<path d="M2419.28 1702.82L2591.75 1680.99L2597.99 1730.26L2425.52 1752.09L2419.28 1702.82Z" fill="#75590C"/>
<path d="M1680.15 1796.38L1827.98 1777.67L1834.22 1826.95L1686.39 1845.66L1680.15 1796.38Z" fill="#75590C"/>
<path d="M2154.51 1786.4L2499.44 1742.74L2502.56 1767.38L2157.63 1811.04L2154.51 1786.4Z" fill="#75590C"/>
<path d="M1784.94 1833.18L2154.51 1786.4L2157.63 1811.04L1788.05 1857.82L1784.94 1833.18Z" fill="#75590C"/>
<path d="M1433.45 1627.34L1420.98 1528.79L1396.34 1531.91L1408.82 1630.46L1433.45 1627.34Z" fill="#5E080F"/>
<path d="M2813.19 1452.7L2800.71 1354.15L2849.99 1347.91L2862.46 1446.46L2813.19 1452.7Z" fill="#5E080F"/>
<path d="M1405.07 1205.38L1306.52 1217.85L1315.88 1291.77L1414.43 1279.29L1405.07 1205.38Z" fill="#122A3A"/>
<path d="M2636.98 1049.44L2760.17 1033.85L2769.52 1107.77L2646.33 1123.36L2636.98 1049.44Z" fill="#122A3A"/>
<path d="M1398.84 1156.1L1300.29 1168.57L1306.53 1217.85L1405.08 1205.37L1398.84 1156.1Z" fill="#061119"/>
<path d="M2630.74 1000.17L2753.93 984.574L2760.17 1033.85L2636.98 1049.44L2630.74 1000.17Z" fill="#061119"/>
<path d="M1303.4 1193.21L1180.21 1208.8L1192.69 1307.35L1315.88 1291.76L1303.4 1193.21Z" fill="#061119"/>
<path d="M2757.06 1009.21L2880.25 993.621L2892.72 1092.17L2769.53 1107.77L2757.06 1009.21Z" fill="#061119"/>
<path d="M1192.69 1307.35L1094.14 1319.83L1103.5 1393.74L1202.05 1381.27L1192.69 1307.35Z" fill="#122A3A"/>
<path d="M2892.72 1092.17L2991.27 1079.7L3000.63 1153.61L2902.07 1166.09L2892.72 1092.17Z" fill="#122A3A"/>
<path d="M1537.62 1263.7L1414.43 1279.29L1423.79 1353.2L1546.98 1337.61L1537.62 1263.7Z" fill="#23445D"/>
<path d="M2547.79 1135.83L2646.34 1123.36L2655.7 1197.27L2557.14 1209.75L2547.79 1135.83Z" fill="#23445D"/>
<path d="M1660.81 1248.11L1537.62 1263.7L1546.98 1337.61L1670.17 1322.02L1660.81 1248.11Z" fill="#23445D"/>
<path d="M2424.6 1151.42L2547.79 1135.83L2557.14 1209.74L2433.95 1225.34L2424.6 1151.42Z" fill="#23445D"/>
<path d="M1759.36 1235.63L1660.81 1248.1L1670.16 1322.02L1768.72 1309.54L1759.36 1235.63Z" fill="#23445D"/>
<path d="M2326.05 1163.9L2424.6 1151.43L2433.96 1225.34L2335.4 1237.82L2326.05 1163.9Z" fill="#23445D"/>
<path d="M1882.56 1220.04L1759.37 1235.63L1768.73 1309.54L1891.92 1293.95L1882.56 1220.04Z" fill="#23445D"/>
<path d="M2202.85 1179.49L2326.04 1163.9L2335.39 1237.81L2212.2 1253.41L2202.85 1179.49Z" fill="#23445D"/>
<path d="M1981.11 1207.56L1882.56 1220.04L1891.91 1293.95L1990.47 1281.48L1981.11 1207.56Z" fill="#375C76"/>
<path d="M2104.31 1191.96L2202.86 1179.49L2212.22 1253.4L2113.66 1265.88L2104.31 1191.96Z" fill="#375C76"/>
<path d="M2104.3 1191.97L1981.11 1207.56L1990.47 1281.47L2113.66 1265.88L2104.3 1191.97Z" fill="#173446"/>
<path d="M1981.11 1207.56L2104.3 1191.97L2113.66 1265.88L1990.47 1281.48L1981.11 1207.56Z" fill="#375C76"/>
<path d="M1414.43 1279.29L1315.88 1291.76L1325.23 1365.68L1423.79 1353.2L1414.43 1279.29Z" fill="#173446"/>
<path d="M2646.34 1123.36L2769.53 1107.77L2778.89 1181.68L2655.7 1197.28L2646.34 1123.36Z" fill="#173446"/>
<path d="M1315.88 1291.77L1192.69 1307.36L1202.05 1381.27L1325.24 1365.68L1315.88 1291.77Z" fill="#122A3A"/>
<path d="M2769.53 1107.76L2892.72 1092.17L2902.07 1166.09L2778.88 1181.68L2769.53 1107.76Z" fill="#122A3A"/>
<path d="M1202.05 1381.28L1103.5 1393.75L1112.86 1467.66L1211.41 1455.19L1202.05 1381.28Z" fill="#122A3A"/>
<path d="M2902.08 1166.08L3000.63 1153.61L3009.98 1227.52L2911.43 1240L2902.08 1166.08Z" fill="#122A3A"/>
<path d="M1546.98 1337.61L1423.79 1353.2L1433.14 1427.11L1556.34 1411.52L1546.98 1337.61Z" fill="#23445D"/>
<path d="M2557.15 1209.74L2655.7 1197.27L2665.05 1271.18L2566.5 1283.66L2557.15 1209.74Z" fill="#23445D"/>
<path d="M1670.17 1322.02L1546.98 1337.61L1556.34 1411.52L1679.53 1395.93L1670.17 1322.02Z" fill="#23445D"/>
<path d="M2433.95 1225.34L2557.14 1209.75L2566.5 1283.66L2443.31 1299.26L2433.95 1225.34Z" fill="#23445D"/>
<path d="M1768.72 1309.55L1670.17 1322.02L1679.52 1395.93L1778.08 1383.46L1768.72 1309.55Z" fill="#23445D"/>
<path d="M2335.4 1237.81L2433.95 1225.34L2443.3 1299.25L2344.75 1311.73L2335.4 1237.81Z" fill="#23445D"/>
<path d="M1891.91 1293.95L1768.72 1309.54L1778.07 1383.45L1901.27 1367.86L1891.91 1293.95Z" fill="#375C76"/>
<path d="M2212.21 1253.4L2335.4 1237.81L2344.75 1311.72L2221.56 1327.32L2212.21 1253.4Z" fill="#375C76"/>
<path d="M1990.46 1281.47L1891.91 1293.95L1901.27 1367.86L1999.82 1355.39L1990.46 1281.47Z" fill="#375C76"/>
<path d="M2113.66 1265.88L2212.21 1253.41L2221.57 1327.32L2123.01 1339.8L2113.66 1265.88Z" fill="#375C76"/>
<path d="M2113.65 1265.89L1990.46 1281.48L1999.82 1355.39L2123.01 1339.8L2113.65 1265.89Z" fill="#23445D"/>
<path d="M1990.47 1281.47L2113.66 1265.88L2123.02 1339.79L1999.82 1355.39L1990.47 1281.47Z" fill="#375C76"/>
<path d="M1423.78 1353.21L1325.23 1365.68L1334.59 1439.59L1433.14 1427.12L1423.78 1353.21Z" fill="#173446"/>
<path d="M1648.96 1550L1525.77 1565.59L1535.13 1639.5L1658.32 1623.91L1648.96 1550Z" fill="#902327"/>
<path d="M2585.21 1431.49L2708.4 1415.9L2717.75 1489.81L2594.56 1505.41L2585.21 1431.49Z" fill="#902327"/>
<path d="M1741.27 1488.24L1642.72 1500.72L1648.96 1550L1747.51 1537.52L1741.27 1488.24Z" fill="#B8252D"/>
<path d="M2480.42 1394.69L2578.97 1382.21L2585.21 1431.49L2486.65 1443.96L2480.42 1394.69Z" fill="#B8252D"/>
<path d="M1889.11 1469.54L1741.28 1488.25L1747.52 1537.53L1895.35 1518.81L1889.11 1469.54Z" fill="#902327"/>
<path d="M2332.59 1413.4L2480.42 1394.69L2486.66 1443.97L2338.83 1462.68L2332.59 1413.4Z" fill="#902327"/>
<path d="M1747.51 1537.53L1648.96 1550L1661.44 1648.55L1759.99 1636.08L1747.51 1537.53Z" fill="#C23A41"/>
<path d="M2486.66 1443.96L2585.21 1431.49L2597.69 1530.04L2499.13 1542.52L2486.66 1443.96Z" fill="#C23A41"/>
<path d="M1870.71 1521.93L1747.52 1537.52L1759.99 1636.07L1883.18 1620.48L1870.71 1521.93Z" fill="#B8252D"/>
<path d="M2363.47 1459.55L2486.66 1443.96L2499.13 1542.51L2375.94 1558.11L2363.47 1459.55Z" fill="#B8252D"/>
<path d="M1883.18 1620.49L1759.99 1636.08L1769.34 1709.99L1892.54 1694.4L1883.18 1620.49Z" fill="#902327"/>
<path d="M2375.95 1558.11L2499.14 1542.52L2508.5 1616.43L2385.31 1632.03L2375.95 1558.11Z" fill="#902327"/>
<path d="M1759.99 1636.08L1661.44 1648.55L1670.8 1722.47L1769.35 1709.99L1759.99 1636.08Z" fill="#902327"/>
<path d="M2499.13 1542.51L2597.68 1530.04L2607.04 1603.95L2508.48 1616.43L2499.13 1542.51Z" fill="#902327"/>
<path d="M1658.32 1623.91L1535.13 1639.5L1544.48 1713.41L1667.68 1697.82L1658.32 1623.91Z" fill="#902327"/>
<path d="M2594.57 1505.4L2717.76 1489.81L2727.11 1563.72L2603.92 1579.32L2594.57 1505.4Z" fill="#902327"/>
<path d="M2655.69 1197.27L2778.88 1181.68L2788.23 1255.59L2665.04 1271.19L2655.69 1197.27Z" fill="#173446"/>
<path d="M1325.24 1365.68L1202.05 1381.27L1211.41 1455.18L1334.6 1439.59L1325.24 1365.68Z" fill="#122A3A"/>
<path d="M1550.72 1762.7L1427.53 1778.29L1440.01 1876.84L1563.2 1861.25L1550.72 1762.7Z" fill="#061119"/>
<path d="M1655.51 1799.49L1556.96 1811.97L1566.32 1885.88L1664.87 1873.41L1655.51 1799.49Z" fill="#061119"/>
<path d="M1430.65 1802.92L1406.01 1806.04L1427.84 1978.51L1452.48 1975.39L1430.65 1802.92Z" fill="#000306"/>
<path d="M1563.19 1861.25L1440 1876.84L1446.24 1926.12L1569.43 1910.52L1563.19 1861.25Z" fill="#173446"/>
<path d="M1664.87 1873.42L1566.32 1885.89L1578.79 1984.44L1677.35 1971.97L1664.87 1873.42Z" fill="#173446"/>
<path d="M1569.43 1910.53L1446.24 1926.12L1461.83 2049.31L1585.02 2033.72L1569.43 1910.53Z" fill="#061119"/>
<path d="M1677.34 1971.97L1578.79 1984.44L1588.14 2058.36L1686.7 2045.88L1677.34 1971.97Z" fill="#173446"/>
<path d="M2778.89 1181.68L2902.08 1166.09L2911.43 1240L2788.24 1255.6L2778.89 1181.68Z" fill="#122A3A"/>
<path d="M1211.4 1455.19L1112.85 1467.66L1125.33 1566.21L1223.88 1553.74L1211.4 1455.19Z" fill="#000306"/>
<path d="M2911.44 1240.01L3009.99 1227.53L3022.46 1326.08L2923.91 1338.56L2911.44 1240.01Z" fill="#000306"/>
<path d="M1556.33 1411.53L1433.14 1427.12L1445.62 1525.67L1568.81 1510.08L1556.33 1411.53Z" fill="#173446"/>
<path d="M1519.53 1516.31L1420.98 1528.79L1427.22 1578.07L1525.77 1565.59L1519.53 1516.31Z" fill="#902327"/>
<path d="M2702.16 1366.62L2800.71 1354.15L2806.95 1403.42L2708.4 1415.9L2702.16 1366.62Z" fill="#902327"/>
<path d="M1642.73 1500.72L1519.54 1516.31L1525.78 1565.58L1648.97 1549.99L1642.73 1500.72Z" fill="#902327"/>
<path d="M2578.98 1382.21L2702.17 1366.62L2708.41 1415.9L2585.21 1431.49L2578.98 1382.21Z" fill="#902327"/>
<path d="M1525.76 1565.58L1427.21 1578.06L1436.57 1651.97L1535.12 1639.5L1525.76 1565.58Z" fill="#902327"/>
<path d="M2708.4 1415.9L2806.95 1403.42L2816.3 1477.34L2717.75 1489.81L2708.4 1415.9Z" fill="#902327"/>
<path d="M2566.5 1283.67L2665.05 1271.19L2677.53 1369.74L2578.97 1382.22L2566.5 1283.67Z" fill="#173446"/>
<path d="M1679.53 1395.94L1556.34 1411.53L1568.81 1510.08L1692.01 1494.49L1679.53 1395.94Z" fill="#173446"/>
<path d="M1538.24 1664.15L1439.69 1676.62L1449.05 1750.54L1547.6 1738.06L1538.24 1664.15Z" fill="#9E7B1A"/>
<path d="M2819.42 1501.98L2696.23 1517.57L2705.59 1591.48L2828.78 1575.89L2819.42 1501.98Z" fill="#9E7B1A"/>
<path d="M1667.67 1697.83L1544.48 1713.42L1550.72 1762.7L1673.91 1747.1L1667.67 1697.83Z" fill="#9E7B1A"/>
<path d="M2702.47 1566.85L2579.28 1582.44L2585.52 1631.72L2708.71 1616.12L2702.47 1566.85Z" fill="#9E7B1A"/>
<path d="M1769.34 1709.99L1670.79 1722.46L1680.14 1796.38L1778.7 1783.9L1769.34 1709.99Z" fill="#9E7B1A"/>
<path d="M2582.4 1607.08L2483.85 1619.55L2493.21 1693.47L2591.76 1680.99L2582.4 1607.08Z" fill="#9E7B1A"/>
<path d="M1895.65 1719.04L1772.46 1734.63L1784.94 1833.18L1908.13 1817.59L1895.65 1719.04Z" fill="#9E7B1A"/>
<path d="M1994.2 1706.56L1895.65 1719.04L1908.12 1817.59L2006.68 1805.12L1994.2 1706.56Z" fill="#9E7B1A"/>
<path d="M2363.77 1659.79L2265.22 1672.26L2277.69 1770.81L2376.25 1758.34L2363.77 1659.79Z" fill="#9E7B1A"/>
<path d="M2486.97 1644.19L2363.78 1659.78L2376.26 1758.33L2499.45 1742.74L2486.97 1644.19Z" fill="#9E7B1A"/>
<path d="M2145.15 1712.49L1997.32 1731.2L2009.79 1829.75L2157.62 1811.04L2145.15 1712.49Z" fill="#9E7B1A"/>
<path d="M2268.34 1696.9L2145.15 1712.49L2157.62 1811.04L2280.81 1795.45L2268.34 1696.9Z" fill="#9E7B1A"/>
<path d="M2443.31 1299.25L2566.5 1283.66L2578.97 1382.21L2455.78 1397.81L2443.31 1299.25Z" fill="#173446"/>
<path d="M1778.07 1383.46L1679.52 1395.93L1691.99 1494.48L1790.55 1482.01L1778.07 1383.46Z" fill="#23445D"/>
<path d="M2344.76 1311.74L2443.31 1299.26L2455.78 1397.81L2357.23 1410.29L2344.76 1311.74Z" fill="#23445D"/>
<path d="M1901.27 1367.87L1778.08 1383.46L1790.55 1482.01L1913.74 1466.42L1901.27 1367.87Z" fill="#23445D"/>
<path d="M2221.56 1327.32L2344.75 1311.73L2357.22 1410.28L2234.03 1425.88L2221.56 1327.32Z" fill="#23445D"/>
<path d="M1999.82 1355.38L1901.27 1367.86L1913.74 1466.41L2012.3 1453.94L1999.82 1355.38Z" fill="#061119"/>
<path d="M2123.01 1339.79L2221.56 1327.32L2234.03 1425.87L2135.48 1438.35L2123.01 1339.79Z" fill="#061119"/>
<path d="M2036.93 1450.82L2160.12 1435.23L2163.24 1459.87L2040.05 1475.46L2036.93 1450.82Z" fill="#C08D00"/>
<path d="M1889.1 1469.53L2036.93 1450.82L2046.29 1524.73L1898.46 1543.45L1889.1 1469.53Z" fill="#D3AB3B"/>
<path d="M1892.22 1494.17L2040.05 1475.46L2046.29 1524.74L1898.46 1543.45L1892.22 1494.17Z" fill="#F6CB52"/>
<path d="M2187.88 1456.75L2311.07 1441.16L2317.31 1490.44L2194.12 1506.03L2187.88 1456.75Z" fill="#F6CB52"/>
<path d="M1941.81 1688.16L2336.02 1638.26L2342.26 1687.54L1948.05 1737.44L1941.81 1688.16Z" fill="#F6CB52"/>
<path d="M2018.84 1703.45L2240.58 1675.38L2246.82 1724.66L2025.07 1752.72L2018.84 1703.45Z" fill="#FFD971"/>
<path d="M2058.76 1623.29L2181.95 1607.7L2191.3 1681.61L2068.11 1697.21L2058.76 1623.29Z" fill="#C08D00"/>
<path d="M2169.48 1509.15L2268.03 1496.67L2274.27 1545.95L2175.72 1558.42L2169.48 1509.15Z" fill="#C08D00"/>
<path d="M1947.74 1537.21L2046.29 1524.74L2052.53 1574.01L1953.97 1586.49L1947.74 1537.21Z" fill="#C08D00"/>
<path d="M2040.05 1475.46L2187.88 1456.75L2206.59 1604.58L2058.76 1623.29L2040.05 1475.46Z" fill="#D7A200"/>
<path d="M2123.01 1339.8L1999.82 1355.39L2009.18 1429.3L2132.37 1413.71L2123.01 1339.8Z" fill="#173446"/>
<path d="M1999.82 1355.39L2123.01 1339.8L2132.36 1413.72L2009.17 1429.31L1999.82 1355.39Z" fill="#061119"/>
<path d="M1433.14 1427.12L1334.59 1439.59L1347.06 1538.14L1445.62 1525.67L1433.14 1427.12Z" fill="#173446"/>
<path d="M2665.05 1271.19L2788.24 1255.6L2800.71 1354.15L2677.52 1369.75L2665.05 1271.19Z" fill="#173446"/>
<path d="M1334.59 1439.6L1211.4 1455.19L1223.87 1553.74L1347.06 1538.15L1334.59 1439.6Z" fill="#122A3A"/>
<path d="M2788.24 1255.59L2911.43 1240L2923.9 1338.55L2800.71 1354.15L2788.24 1255.59Z" fill="#122A3A"/>
<path d="M1115.97 1492.29L1042.05 1501.65L1051.41 1575.56L1125.32 1566.21L1115.97 1492.29Z" fill="#000306"/>
<path d="M3013.11 1252.16L3087.02 1242.81L3096.38 1316.72L3022.46 1326.08L3013.11 1252.16Z" fill="#000306"/>
<path d="M1106.61 1418.38L983.422 1433.97L992.778 1507.88L1115.97 1492.29L1106.61 1418.38Z" fill="#061119"/>
<path d="M3003.75 1178.25L3126.94 1162.66L3136.3 1236.57L3013.11 1252.17L3003.75 1178.25Z" fill="#061119"/>
<path d="M1091.02 1295.2L967.828 1310.79L983.421 1433.98L1106.61 1418.39L1091.02 1295.2Z" fill="#000306"/>
<path d="M2988.15 1055.06L3111.34 1039.47L3126.93 1162.66L3003.74 1178.25L2988.15 1055.06Z" fill="#000306"/>
<path d="M1938.69 1663.52L1889.41 1669.76L1892.53 1694.4L1941.8 1688.16L1938.69 1663.52Z" fill="#902327"/>
<path d="M2332.9 1613.63L2382.18 1607.39L2385.3 1632.03L2336.02 1638.27L2332.9 1613.63Z" fill="#902327"/>
<path d="M1686.7 2045.88L1588.15 2058.35L1591.27 2082.99L1689.82 2070.52L1686.7 2045.88Z" fill="#061119"/>
<path d="M2696.86 1918.02L2573.67 1933.61L2576.79 1958.25L2699.98 1942.65L2696.86 1918.02Z" fill="#061119"/>
<path d="M2923.9 1338.56L2800.71 1354.15L2806.95 1403.42L2930.14 1387.83L2923.9 1338.56Z" fill="#061119"/>
</g>
<defs>
<filter id="filter0_f_495_871" x="-120.113" y="-229" width="4622.39" height="4622.39" filterUnits="userSpaceOnUse" color-interpolation-filters="sRGB">
<feFlood flood-opacity="0" result="BackgroundImageFix"/>
<feBlend mode="normal" in="SourceGraphic" in2="BackgroundImageFix" result="shape"/>
<feGaussianBlur stdDeviation="475" result="effect1_foregroundBlur_495_871"/>
</filter>
<linearGradient id="paint0_linear_495_871" x1="2191.08" y1="721" x2="2191.08" y2="3443.39" gradientUnits="userSpaceOnUse">
<stop stop-color="#FF2D2D"/>
<stop offset="0.864535" stop-color="#2044FF"/>
</linearGradient>
<clipPath id="clip0_495_871">
<rect width="4273" height="4273" fill="white"/>
</clipPath>
</defs>
</svg>
