<svg width="167" height="167" viewBox="0 0 167 167" fill="none" xmlns="http://www.w3.org/2000/svg">
<g clip-path="url(#clip0_132_383)">
<g filter="url(#filter0_f_132_383)">
<path d="M85.9481 144.542C119.661 144.542 146.99 117.212 146.99 83.5C146.99 49.7876 119.661 22.4583 85.9481 22.4583C52.2357 22.4583 24.9064 49.7876 24.9064 83.5C24.9064 117.212 52.2357 144.542 85.9481 144.542Z" fill="url(#paint0_linear_132_383)" fill-opacity="0.51"/>
</g>
<path d="M44.1714 81.6374V75.464H42.6813V81.6374H44.1714Z" fill="#5E080F"/>
<path d="M122.829 81.6374L122.829 75.464L124.319 75.464L124.319 81.6374L122.829 81.6374Z" fill="#5E080F"/>
<path d="M61.9464 98.5609H55.7731V104.734H61.9464V98.5609Z" fill="#061119"/>
<path d="M105.054 98.5609H111.227V104.841H105.054V98.5609Z" fill="#061119"/>
<path d="M74.2932 98.5609H68.1199V104.734H74.2932V98.5609Z" fill="#061119"/>
<path d="M92.7068 98.5609H98.8801V104.841H92.7068V98.5609Z" fill="#061119"/>
<path d="M80.3601 98.5609H74.1868V104.734H80.3601V98.5609Z" fill="#061119"/>
<path d="M86.6399 98.5609H80.3601V104.841H86.6399V98.5609Z" fill="#061119"/>
<path d="M86.6399 98.5609H92.8132V104.841H86.6399V98.5609Z" fill="#061119"/>
<path d="M68.1198 98.5609H61.9464V104.734H68.1198V98.5609Z" fill="#061119"/>
<path d="M98.8802 98.5609H105.054V104.841H98.8802V98.5609Z" fill="#061119"/>
<path d="M61.9464 104.734H55.7731V110.908H61.9464V104.734Z" fill="#122A3A"/>
<path d="M105.054 104.841H111.227V110.908H105.054V104.841Z" fill="#122A3A"/>
<path d="M74.2932 104.734H68.1199V110.908H74.2932V104.734Z" fill="#173446"/>
<path d="M92.7068 104.841H98.8801V110.908H92.7068V104.841Z" fill="#173446"/>
<path d="M80.3601 104.734H74.1868V110.908H80.3601V104.734Z" fill="#23445D"/>
<path d="M86.6399 104.734H80.3601V111.014H86.6399V104.734Z" fill="#23445D"/>
<path d="M86.6399 104.841H92.8132V110.908H86.6399V104.841Z" fill="#23445D"/>
<path d="M68.1198 104.734H61.9464V110.908H68.1198V104.734Z" fill="#122A3A"/>
<path d="M98.8802 104.841H105.054V110.908H98.8802V104.841Z" fill="#122A3A"/>
<path d="M61.9464 110.908H55.7731V117.081H61.9464V110.908Z" fill="#122A3A"/>
<path d="M105.054 110.908H111.227V117.081H105.054V110.908Z" fill="#122A3A"/>
<path d="M74.2932 110.908H68.1199V117.081H74.2932V110.908Z" fill="#23445D"/>
<path d="M92.7068 110.908H98.8801V117.081H92.7068V110.908Z" fill="#23445D"/>
<path d="M80.3601 110.908H74.1868V117.081H80.3601V110.908Z" fill="#375C76"/>
<path d="M86.6399 110.908H92.8132V117.081H86.6399V110.908Z" fill="#375C76"/>
<path d="M80.3601 110.908H86.8528V117.4H80.3601V110.908Z" fill="#5095C4"/>
<path d="M74.2932 117.081H68.1199V123.254H74.2932V117.081Z" fill="#122A3A"/>
<path d="M92.7068 117.081H98.8801V123.254H92.7068V117.081Z" fill="#122A3A"/>
<path d="M80.3601 117.081H74.1868V123.254H80.3601V117.081Z" fill="#23445D"/>
<path d="M86.6399 117.081H80.3601V123.361H86.6399V117.081Z" fill="#23445D"/>
<path d="M86.6399 117.081H92.8132V123.254H86.6399V117.081Z" fill="#23445D"/>
<path d="M74.2932 123.254H68.1199V126.98H74.2932V123.254Z" fill="#061119"/>
<path d="M92.7068 123.254H98.8801V126.98H92.7068V123.254Z" fill="#061119"/>
<path d="M80.3601 123.254H74.1868V127.405H80.3601V123.254Z" fill="#173446"/>
<path d="M86.6399 123.254H92.8132V127.405H86.6399V123.254Z" fill="#173446"/>
<path d="M80.3601 123.254H86.8528V127.405H80.3601V123.254Z" fill="#173446"/>
<path d="M68.1198 110.908H61.9464V117.081H68.1198V110.908Z" fill="#23445D"/>
<path d="M98.8802 110.908H105.054V117.081H98.8802V110.908Z" fill="#23445D"/>
<path d="M61.9464 117.081H55.7731V122.296H61.9464V117.081Z" fill="#173446"/>
<path d="M105.054 117.081H111.227V122.296H105.054V117.081Z" fill="#173446"/>
<path d="M61.9464 122.296H55.7731V124.212H61.9464V122.296Z" fill="#061119"/>
<path d="M105.054 122.296H111.227V124.212H105.054V122.296Z" fill="#061119"/>
<path d="M40.3397 72.8031H34.1664V74.7189H40.3397V72.8031Z" fill="#061119"/>
<path d="M126.66 72.8031H132.94V74.7189H126.66V72.8031Z" fill="#061119"/>
<path d="M44.1715 71.9516H40.3397V76.5284H44.1715V71.9516Z" fill="#061119"/>
<path d="M122.829 71.9516H126.66V76.5284H122.829V71.9516Z" fill="#061119"/>
<path d="M68.1198 123.254H61.9464V125.17H68.1198V123.254Z" fill="#061119"/>
<path d="M98.8802 123.254H105.054V125.17H98.8802V123.254Z" fill="#061119"/>
<path d="M86.5335 127.405H74.1868V129.321H86.5335V127.405Z" fill="#061119"/>
<path d="M80.4665 127.405H92.8132V129.321H80.4665V127.405Z" fill="#061119"/>
<path d="M68.1198 117.081H61.9464V123.254H68.1198V117.081Z" fill="#173446"/>
<path d="M98.8802 117.081H105.054V123.254H98.8802V117.081Z" fill="#173446"/>
<path d="M70.4614 69.9292H83.5532V77.2734H70.4614V69.9292Z" fill="#D3AB3B"/>
<path d="M96.645 69.9292H83.4468V77.2734H96.645V69.9292Z" fill="#D3AB3B"/>
<path d="M74.5061 87.5978H82.1696V92.4939H74.5061V87.5978Z" fill="#F6CB52"/>
<path d="M92.4939 87.5978H84.8304V92.4939H92.4939V87.5978Z" fill="#F6CB52"/>
<path d="M71.2065 84.9369H78.87V88.7686H71.2065V84.9369Z" fill="#F6CB52"/>
<path d="M95.8999 84.9369H88.13V88.7686H95.8999V84.9369Z" fill="#F6CB52"/>
<path d="M68.8649 83.5532H74.1868V88.8751H68.8649V83.5532Z" fill="#CA9A15"/>
<path d="M98.1351 83.5532H92.8132V88.8751H98.1351V83.5532Z" fill="#CA9A15"/>
<path d="M70.9936 88.7686H74.9318V92.7068H70.9936V88.7686Z" fill="#9D770C"/>
<path d="M96.1129 88.7686H92.0682V92.7068H96.1129V88.7686Z" fill="#9D770C"/>
<path d="M68.1198 78.6571H75.7833V83.5532H68.1198V78.6571Z" fill="#F6CB52"/>
<path d="M98.8802 78.6571H91.2167V83.5532H98.8802V78.6571Z" fill="#F6CB52"/>
<path d="M34.1664 48.1096H27.993V54.283H34.1664V48.1096Z" fill="#061119"/>
<path d="M132.94 48.1096H139.113V54.283H132.94V48.1096Z" fill="#061119"/>
<path d="M52.6864 46.3002H46.5131V54.283H52.6864V46.3002Z" fill="#122A3A"/>
<path d="M114.314 46.3002H120.487V54.283H114.314V46.3002Z" fill="#122A3A"/>
<path d="M58.8598 45.1294H52.6864V54.283H58.8598V45.1294Z" fill="#122A3A"/>
<path d="M108.14 45.1294H114.314V54.283H108.14V45.1294Z" fill="#122A3A"/>
<path d="M65.0331 48.1096H58.8597V54.283H65.0331V48.1096Z" fill="#173446"/>
<path d="M101.967 48.1096H108.14V54.283H101.967V48.1096Z" fill="#173446"/>
<path d="M71.2066 48.1096H65.0332V54.283H71.2066V48.1096Z" fill="#23445D"/>
<path d="M95.8999 48.1096H101.967V54.283H95.8999V48.1096Z" fill="#23445D"/>
<path d="M77.3799 48.1096H71.2065V54.283H77.3799V48.1096Z" fill="#173446"/>
<path d="M89.6201 48.1096H95.8999V54.283H89.6201V48.1096Z" fill="#173446"/>
<path d="M83.5532 48.1096H77.3799V54.283H83.5532V48.1096Z" fill="#23445D"/>
<path d="M83.4468 48.1096H89.6201V54.283H83.4468V48.1096Z" fill="#23445D"/>
<path d="M77.3799 48.1096H83.5532V54.283H77.3799V48.1096Z" fill="#23445D"/>
<path d="M89.6201 48.1096H83.4468V54.283H89.6201V48.1096Z" fill="#23445D"/>
<path d="M52.6864 41.9363H46.5131V46.3002H52.6864V41.9363Z" fill="#00020A"/>
<path d="M114.314 41.9363H120.487V46.3002H114.314V41.9363Z" fill="#00020A"/>
<path d="M58.8598 41.0848H52.6864V45.1294H58.8598V41.0848Z" fill="#061119"/>
<path d="M108.14 41.0848H114.314V45.1294H108.14V41.0848Z" fill="#061119"/>
<path d="M65.0331 41.9363H58.8597V48.1096H65.0331V41.9363Z" fill="#122A3A"/>
<path d="M101.967 41.9363H108.14V48.1096H101.967V41.9363Z" fill="#122A3A"/>
<path d="M71.2066 41.9363H65.0332V48.1096H71.2066V41.9363Z" fill="#122A3A"/>
<path d="M95.8999 41.9363H101.967V48.1096H95.8999V41.9363Z" fill="#122A3A"/>
<path d="M77.3799 41.9363H71.2065V48.1096H77.3799V41.9363Z" fill="#122A3A"/>
<path d="M89.6201 41.9363H95.8999V48.1096H89.6201V41.9363Z" fill="#122A3A"/>
<path d="M83.5532 41.9363H77.3799V48.1096H83.5532V41.9363Z" fill="#122A3A"/>
<path d="M83.4468 41.9363H89.6201V48.1096H83.4468V41.9363Z" fill="#122A3A"/>
<path d="M77.3799 41.9363H83.5532V48.1096H77.3799V41.9363Z" fill="#122A3A"/>
<path d="M89.6201 41.9363H83.4468V48.1096H89.6201V41.9363Z" fill="#122A3A"/>
<path d="M65.0331 39.7011H58.8597V41.9363H65.0331V39.7011Z" fill="#061119"/>
<path d="M101.967 39.7011H108.14V41.9363H101.967V39.7011Z" fill="#061119"/>
<path d="M71.2066 38.4238H65.0332V41.9363H71.2066V38.4238Z" fill="#061119"/>
<path d="M95.8999 38.4238H101.967V41.9363H95.8999V38.4238Z" fill="#061119"/>
<path d="M77.3799 37.7852H71.2065V41.9363H77.3799V37.7852Z" fill="#061119"/>
<path d="M89.6201 37.7852H95.8999V41.9363H89.6201V37.7852Z" fill="#061119"/>
<path d="M83.5532 37.7852H77.3799V41.9363H83.5532V37.7852Z" fill="#061119"/>
<path d="M83.4468 37.7852H89.6201V41.9363H83.4468V37.7852Z" fill="#061119"/>
<path d="M77.3799 37.7852H83.5532V41.9363H77.3799V37.7852Z" fill="#061119"/>
<path d="M89.6201 37.7852H83.4468V41.9363H89.6201V37.7852Z" fill="#061119"/>
<path d="M71.2066 71.9516H65.0332V73.9739H71.2066V71.9516Z" fill="#5E080F"/>
<path d="M95.8999 71.9516H101.967V73.9739H95.8999V71.9516Z" fill="#5E080F"/>
<path d="M65.0331 71.9516H58.8597V73.9739H65.0331V71.9516Z" fill="#5E080F"/>
<path d="M101.967 71.9516H108.14V73.9739H101.967V71.9516Z" fill="#5E080F"/>
<path d="M50.2384 83.4468H44.0651V86.3206H50.2384V83.4468Z" fill="#5E080F"/>
<path d="M116.762 83.4468H122.935V86.3206H116.762V83.4468Z" fill="#5E080F"/>
<path d="M71.5258 91.3231H62.5851V94.1969H71.5258V91.3231Z" fill="#45070C"/>
<path d="M95.5806 91.3231H104.415V94.1969H95.5806V91.3231Z" fill="#45070C"/>
<path d="M43.4263 92.3875H52.3671V95.4742H43.4263V92.3875Z" fill="#75590C"/>
<path d="M123.574 92.3875H114.633V95.4742H123.574V92.3875Z" fill="#75590C"/>
<path d="M49.5998 95.4742H58.5405V98.5609H49.5998V95.4742Z" fill="#75590C"/>
<path d="M117.4 95.4742H108.459V98.5609H117.4V95.4742Z" fill="#75590C"/>
<path d="M56.5181 97.2836H65.4589V100.37H56.5181V97.2836Z" fill="#75590C"/>
<path d="M110.482 97.2836H101.541V100.37H110.482V97.2836Z" fill="#75590C"/>
<path d="M62.5851 100.37H82.1696V103.457H62.5851V100.37Z" fill="#75590C"/>
<path d="M104.415 100.37H84.8304V103.563H104.415V100.37Z" fill="#75590C"/>
<path d="M46.5131 48.1096H40.3397V54.283H46.5131V48.1096Z" fill="#122A3A"/>
<path d="M120.487 48.1096H126.66V54.283H120.487V48.1096Z" fill="#122A3A"/>
<path d="M46.5131 43.7457H40.3397V48.1096H46.5131V43.7457Z" fill="#061119"/>
<path d="M120.487 43.7457H126.66V48.1096H120.487V43.7457Z" fill="#061119"/>
<path d="M40.3397 46.3002H34.1664V54.283H40.3397V46.3002Z" fill="#061119"/>
<path d="M126.66 46.3002H132.94V54.283H126.66V46.3002Z" fill="#061119"/>
<path d="M34.1664 54.283H27.993V60.4563H34.1664V54.283Z" fill="#122A3A"/>
<path d="M132.94 54.283H139.113V60.4563H132.94V54.283Z" fill="#122A3A"/>
<path d="M52.6864 54.283H46.5131V60.4563H52.6864V54.283Z" fill="#23445D"/>
<path d="M114.314 54.283H120.487V60.4563H114.314V54.283Z" fill="#23445D"/>
<path d="M58.8598 54.283H52.6864V60.4563H58.8598V54.283Z" fill="#23445D"/>
<path d="M108.14 54.283H114.314V60.4563H108.14V54.283Z" fill="#23445D"/>
<path d="M65.0331 54.283H58.8597V60.4563H65.0331V54.283Z" fill="#23445D"/>
<path d="M101.967 54.283H108.14V60.4563H101.967V54.283Z" fill="#23445D"/>
<path d="M71.2066 54.283H65.0332V60.4563H71.2066V54.283Z" fill="#23445D"/>
<path d="M95.8999 54.283H101.967V60.4563H95.8999V54.283Z" fill="#23445D"/>
<path d="M77.3799 54.283H71.2065V60.4563H77.3799V54.283Z" fill="#375C76"/>
<path d="M89.6201 54.283H95.8999V60.4563H89.6201V54.283Z" fill="#375C76"/>
<path d="M83.5532 54.283H77.3799V60.4563H83.5532V54.283Z" fill="#173446"/>
<path d="M83.4468 54.283H89.6201V60.4563H83.4468V54.283Z" fill="#173446"/>
<path d="M77.3799 54.283H83.5532V60.4563H77.3799V54.283Z" fill="#41B1FF"/>
<path d="M89.6201 54.283H83.4468V60.4563H89.6201V54.283Z" fill="#41B1FF"/>
<path d="M46.5131 54.283H40.3397V60.4563H46.5131V54.283Z" fill="#173446"/>
<path d="M120.487 54.283H126.66V60.4563H120.487V54.283Z" fill="#173446"/>
<path d="M40.3397 54.283H34.1664V60.4563H40.3397V54.283Z" fill="#122A3A"/>
<path d="M126.66 54.283H132.94V60.4563H126.66V54.283Z" fill="#122A3A"/>
<path d="M34.1664 60.4563H27.993V66.6297H34.1664V60.4563Z" fill="#122A3A"/>
<path d="M132.94 60.4563H139.113V66.6297H132.94V60.4563Z" fill="#122A3A"/>
<path d="M52.6864 60.4563H46.5131V66.6297H52.6864V60.4563Z" fill="#23445D"/>
<path d="M114.314 60.4563H120.487V66.6297H114.314V60.4563Z" fill="#23445D"/>
<path d="M58.8598 60.4563H52.6864V66.6297H58.8598V60.4563Z" fill="#23445D"/>
<path d="M108.14 60.4563H114.314V66.6297H108.14V60.4563Z" fill="#23445D"/>
<path d="M65.0331 60.4563H58.8597V66.6297H65.0331V60.4563Z" fill="#23445D"/>
<path d="M101.967 60.4563H108.14V66.6297H101.967V60.4563Z" fill="#23445D"/>
<path d="M71.2066 60.4563H65.0332V66.6297H71.2066V60.4563Z" fill="#375C76"/>
<path d="M95.8999 60.4563H101.967V66.6297H95.8999V60.4563Z" fill="#375C76"/>
<path d="M77.3799 60.4563H71.2065V66.6297H77.3799V60.4563Z" fill="#5095C5"/>
<path d="M89.6201 60.4563H95.8999V66.6297H89.6201V60.4563Z" fill="#5095C5"/>
<path d="M83.5532 60.4563H77.3799V66.6297H83.5532V60.4563Z" fill="#23445D"/>
<path d="M83.4468 60.4563H89.6201V66.6297H83.4468V60.4563Z" fill="#23445D"/>
<path d="M77.3799 60.4563H83.5532V66.6297H77.3799V60.4563Z" fill="#41B1FF"/>
<path d="M89.6201 60.4563H83.4468V66.6297H89.6201V60.4563Z" fill="#41B1FF"/>
<path d="M46.5131 60.4563H40.3397V66.6297H46.5131V60.4563Z" fill="#173446"/>
<path d="M120.487 60.4563H126.66V66.6297H120.487V60.4563Z" fill="#173446"/>
<path d="M56.4118 78.1249H50.2384V84.2983H56.4118V78.1249Z" fill="#902327"/>
<path d="M110.588 78.1249H116.762V84.2983H110.588V78.1249Z" fill="#902327"/>
<path d="M62.5851 72.8031H56.4117V78.9764H62.5851V72.8031Z" fill="#B8252D"/>
<path d="M104.415 72.8031H110.588V78.9764H104.415V72.8031Z" fill="#B8252D"/>
<path d="M70.4614 73.9739H62.5851V78.9764H70.4614V73.9739Z" fill="#902327"/>
<path d="M96.645 73.9739H104.415V78.9764H96.645V73.9739Z" fill="#902327"/>
<path d="M62.5851 78.9764H56.4117V85.1498H62.5851V78.9764Z" fill="#FF2D2D"/>
<path d="M104.415 78.9764H110.588V85.1498H104.415V78.9764Z" fill="#FF2D2D"/>
<path d="M69.5035 78.9764H62.5851V85.1498H69.5035V78.9764Z" fill="#B8252D"/>
<path d="M97.6029 78.9764H104.415V85.1498H97.6029V78.9764Z" fill="#B8252D"/>
<path d="M69.0778 85.1498H62.5851V91.3231H69.0778V85.1498Z" fill="#902327"/>
<path d="M98.0287 85.1498H104.415V91.3231H98.0287V85.1498Z" fill="#902327"/>
<path d="M62.5851 85.1498H56.4117V91.3231H62.5851V85.1498Z" fill="#902327"/>
<path d="M104.415 85.1498H110.588V91.3231H104.415V85.1498Z" fill="#902327"/>
<path d="M56.4118 84.2983H50.2384V89.3008H56.4118V84.2983Z" fill="#902327"/>
<path d="M110.588 84.2983H116.762V89.3008H110.588V84.2983Z" fill="#902327"/>
<path d="M40.3397 60.4563H34.1664V66.6297H40.3397V60.4563Z" fill="#122A3A"/>
<path d="M126.66 60.4563H132.94V66.6297H126.66V60.4563Z" fill="#122A3A"/>
<path d="M49.5998 95.1549H43.4264V101.328H49.5998V95.1549Z" fill="#061119"/>
<path d="M117.4 95.1549H123.574V101.328H117.4V95.1549Z" fill="#061119"/>
<path d="M55.7731 98.5609H49.5997V104.734H55.7731V98.5609Z" fill="#061119"/>
<path d="M111.227 98.5609H117.4V104.841H111.227V98.5609Z" fill="#061119"/>
<path d="M43.4263 96.7514H41.1912V110.163H43.4263V96.7514Z" fill="#000306"/>
<path d="M123.574 96.7514H125.809V110.163H123.574V96.7514Z" fill="#000306"/>
<path d="M55.7731 104.734H49.5997V110.908H55.7731V104.734Z" fill="#173446"/>
<path d="M111.227 104.841H117.4V110.908H111.227V104.841Z" fill="#173446"/>
<path d="M49.5998 107.502H43.4264V115.91H49.5998V107.502Z" fill="#061119"/>
<path d="M117.4 107.502H123.574V115.91H117.4V107.502Z" fill="#061119"/>
<path d="M55.7731 110.908H49.5997V117.826H55.7731V110.908Z" fill="#173446"/>
<path d="M111.227 110.908H117.4V117.826H111.227V110.908Z" fill="#173446"/>
<path d="M34.1664 66.6297H27.993V72.8031H34.1664V66.6297Z" fill="#000306"/>
<path d="M132.94 66.6297H139.113V72.8031H132.94V66.6297Z" fill="#000306"/>
<path d="M52.6864 66.6297H46.5131V71.9516H52.6864V66.6297Z" fill="#173446"/>
<path d="M114.314 66.6297H120.487V71.9516H114.314V66.6297Z" fill="#173446"/>
<path d="M50.2384 72.8031H44.0651V78.1249H50.2384V72.8031Z" fill="#902327"/>
<path d="M116.762 72.8031H122.935V78.1249H116.762V72.8031Z" fill="#902327"/>
<path d="M56.4118 73.9739H50.2384V78.1249H56.4118V73.9739Z" fill="#902327"/>
<path d="M110.588 73.9739H116.762V78.1249H110.588V73.9739Z" fill="#902327"/>
<path d="M50.2384 78.1249H44.0651V83.4468H50.2384V78.1249Z" fill="#902327"/>
<path d="M116.762 78.1249H122.935V83.4468H116.762V78.1249Z" fill="#902327"/>
<path d="M58.8598 66.6297H52.6864V72.8031H58.8598V66.6297Z" fill="#173446"/>
<path d="M108.14 66.6297H114.314V72.8031H108.14V66.6297Z" fill="#173446"/>
<path d="M50.3448 86.3206H43.4264V92.4939H50.3448V86.3206Z" fill="#9E7B1A"/>
<path d="M116.655 86.3206H123.574V92.4939H116.655V86.3206Z" fill="#9E7B1A"/>
<path d="M56.5182 89.3008H50.3448V95.4742H56.5182V89.3008Z" fill="#9E7B1A"/>
<path d="M110.482 89.3008H116.655V95.4742H110.482V89.3008Z" fill="#9E7B1A"/>
<path d="M62.6915 91.3231H56.5182V97.4965H62.6915V91.3231Z" fill="#9E7B1A"/>
<path d="M104.308 91.3231H110.482V97.4965H104.308V91.3231Z" fill="#9E7B1A"/>
<path d="M68.8649 94.1969H62.6915V100.37H68.8649V94.1969Z" fill="#9E7B1A"/>
<path d="M98.1351 94.1969H104.308V100.37H98.1351V94.1969Z" fill="#9E7B1A"/>
<path d="M75.0382 94.1969H68.8649V100.37H75.0382V94.1969Z" fill="#9E7B1A"/>
<path d="M91.9618 94.1969H98.1351V100.37H91.9618V94.1969Z" fill="#9E7B1A"/>
<path d="M82.0631 96.2193H74.9318V102.393H82.0631V96.2193Z" fill="#9E7B1A"/>
<path d="M80.9988 96.2193H92.0682V102.499H80.9988V96.2193Z" fill="#9E7B1A"/>
<path d="M65.0331 66.6297H58.8597V71.9516H65.0331V66.6297Z" fill="#23445D"/>
<path d="M101.967 66.6297H108.14V71.9516H101.967V66.6297Z" fill="#23445D"/>
<path d="M71.2066 66.6297H65.0332V71.9516H71.2066V66.6297Z" fill="#23445D"/>
<path d="M95.8999 66.6297H101.967V71.9516H95.8999V66.6297Z" fill="#23445D"/>
<path d="M77.3799 66.6297H71.2065V71.9516H77.3799V66.6297Z" fill="#061119"/>
<path d="M89.6201 66.6297H95.8999V71.9516H89.6201V66.6297Z" fill="#061119"/>
<path d="M78.87 71.9516H85.0433V77.2734H78.87V71.9516Z" fill="#C08D00"/>
<path d="M88.13 71.9516H81.9567V77.2734H88.13V71.9516Z" fill="#C08D00"/>
<path d="M70.4615 73.8674H78.87V79.1893H70.4615V73.8674Z" fill="#D3AB3B"/>
<path d="M96.645 73.8674H88.13V79.1893H96.645V73.8674Z" fill="#D3AB3B"/>
<path d="M70.4614 77.2734H78.1249V79.9344H70.4614V77.2734Z" fill="#F6CB52"/>
<path d="M96.645 77.2734H88.8751V79.9344H96.645V77.2734Z" fill="#F6CB52"/>
<path d="M71.5258 92.4939H91.7489V96.2192H71.5258V92.4939Z" fill="#F6CB52"/>
<path d="M95.5806 92.4939H75.2511V96.2192H95.5806V92.4939Z" fill="#F6CB52"/>
<path d="M76.5283 93.1326H87.8107V98.2416H76.5283V93.1326Z" fill="#FFD971"/>
<path d="M90.4717 93.1326H79.1893V98.2416H90.4717V93.1326Z" fill="#FFD971"/>
<path d="M78.87 87.8107H85.0433V93.1326H78.87V87.8107Z" fill="#C08D00"/>
<path d="M88.13 87.8107H81.9567V93.1326H88.13V87.8107Z" fill="#C08D00"/>
<path d="M72.6966 79.615H78.87V84.9369H72.6966V79.615Z" fill="#C08D00"/>
<path d="M94.4098 79.615H88.13V84.9369H94.4098V79.615Z" fill="#C08D00"/>
<path d="M78.1249 77.2734H86.0012V87.8107H78.1249V77.2734Z" fill="#D7A200"/>
<path d="M88.8751 77.2734H80.9988V87.8107H88.8751V77.2734Z" fill="#D7A200"/>
<path d="M83.5532 66.6297H77.3799V70.5679H83.5532V66.6297Z" fill="#173446"/>
<path d="M83.4468 66.6297H89.6201V70.5679H83.4468V66.6297Z" fill="#173446"/>
<path d="M77.3799 66.6297H83.5532V70.5679H77.3799V66.6297Z" fill="#061119"/>
<path d="M89.6201 66.6297H83.4468V70.5679H89.6201V66.6297Z" fill="#061119"/>
<path d="M46.5131 66.6297H40.3397V71.9516H46.5131V66.6297Z" fill="#173446"/>
<path d="M120.487 66.6297H126.66V71.9516H120.487V66.6297Z" fill="#173446"/>
<path d="M40.3397 66.6297H34.1664V72.8031H40.3397V66.6297Z" fill="#122A3A"/>
<path d="M126.66 66.6297H132.94V72.8031H126.66V66.6297Z" fill="#122A3A"/>
<path d="M27.993 67.8005H23.8419V71.9516H27.993V67.8005Z" fill="#000306"/>
<path d="M139.113 67.8005H143.265V71.9516H139.113V67.8005Z" fill="#000306"/>
<path d="M27.9929 61.6272H21.8196V67.8005H27.9929V61.6272Z" fill="#061119"/>
<path d="M139.113 61.5207H145.18V67.8005H139.113V61.5207Z" fill="#061119"/>
<path d="M21.8196 57.0504H20.3295V66.0975H21.8196V57.0504Z" fill="#061119"/>
<path d="M145.18 57.0504H146.671V66.0975H145.18V57.0504Z" fill="#061119"/>
<path d="M27.9929 52.6864H21.8196V61.6271H27.9929V52.6864Z" fill="#000306"/>
<path d="M139.113 52.6864H145.18V61.5207H139.113V52.6864Z" fill="#000306"/>
<path d="M50.2384 71.9516H44.0651V72.8031H50.2384V71.9516Z" fill="#5E080F"/>
<path d="M116.762 71.9516H122.935V72.8031H116.762V71.9516Z" fill="#5E080F"/>
<path d="M56.4118 71.9516H50.2384V73.9739H56.4118V71.9516Z" fill="#5E080F"/>
<path d="M110.588 71.9516H116.762V73.9739H110.588V71.9516Z" fill="#5E080F"/>
<path d="M71.5258 88.7686H69.0778V91.3231H71.5258V88.7686Z" fill="#902327"/>
<path d="M95.5806 88.7686H98.0287V91.3231H95.5806V88.7686Z" fill="#902327"/>
<path d="M55.8795 117.826H49.7062V119.742H55.8795V117.826Z" fill="#061119"/>
<path d="M111.12 117.826H117.294V119.742H111.12V117.826Z" fill="#061119"/>
<path d="M49.5998 101.328H43.4264V110.163H49.5998V101.328Z" fill="#173446"/>
<path d="M117.4 101.328H123.574V110.163H117.4V101.328Z" fill="#173446"/>
</g>
<defs>
<filter id="filter0_f_132_383" x="-7.02479" y="-9.47291" width="185.946" height="185.946" filterUnits="userSpaceOnUse" color-interpolation-filters="sRGB">
<feFlood flood-opacity="0" result="BackgroundImageFix"/>
<feBlend mode="normal" in="SourceGraphic" in2="BackgroundImageFix" result="shape"/>
<feGaussianBlur stdDeviation="15.9656" result="effect1_foregroundBlur_132_383"/>
</filter>
<linearGradient id="paint0_linear_132_383" x1="85.9481" y1="22.4583" x2="85.9481" y2="144.542" gradientUnits="userSpaceOnUse">
<stop stop-color="#FF2D2D"/>
<stop offset="0.864535" stop-color="#2044FF"/>
</linearGradient>
<clipPath id="clip0_132_383">
<rect width="167" height="167" fill="white"/>
</clipPath>
</defs>
</svg>
