<svg width="276" height="170" viewBox="0 0 276 170" fill="none" xmlns="http://www.w3.org/2000/svg">
<g opacity="0.05" clip-path="url(#clip0_5_237)">
<path d="M228.05 117.85L231.66 119.24C231.51 119.37 231.37 119.54 231.21 119.74C229.57 121.89 228.15 125.12 228.99 125.95C229.81 126.77 231.72 130.41 230.39 131.25C229.07 132.07 227.82 132.32 228.07 133.57C228.32 134.81 228.65 135.64 227.24 136.22C225.84 136.8 225.09 137.21 224.94 139.45C224.77 141.67 220.31 146.56 219.55 146.56C218.81 146.56 215.83 133.07 217.4 130.59C218.98 128.1 224.93 121.4 226.58 119.41C227.01 118.92 227.51 118.4 228.05 117.85Z" fill="#F3FFF8"/>
<path d="M209.71 48.91C211.35 50.23 209.37 51.4 206.72 51.4C204.07 51.4 200.3 48.78 201.42 46.42C201.7 45.85 203.25 45.76 203.91 46.92C204.58 48.08 208.04 47.58 209.71 48.91Z" fill="#F3FFF8"/>
<path d="M198.11 45.09C201.26 46.92 199.43 49.9 196.79 49.9C194.15 49.9 191.18 52.06 187.87 51.4C185.63 50.95 185.51 47.49 186.21 44.69C186.66 42.9 188.69 42.04 190.3 42.93C190.31 42.94 190.33 42.94 190.34 42.96C191.84 43.77 194.98 43.28 198.11 45.09Z" fill="#F3FFF8"/>
<path d="M196.27 58.44C196.89 59.3 197.2 60.45 196.79 61.43C194.9 61.84 193.02 60.86 191.33 59.89C191.14 59.78 190.93 59.64 190.91 59.43C190.87 59.17 191.12 58.97 191.33 58.79C192.14 58.17 192.71 57.27 192.92 56.27C193.08 56.04 193.61 56.15 193.9 56.35C194.78 56.97 195.66 57.58 196.27 58.44Z" fill="#F3FFF8"/>
<path d="M129.76 16.62C131.75 16.62 133.4 23.08 131.9 25.07C130.42 27.06 123.8 28.71 122.14 28.54C120.48 28.38 123.8 20.77 126.28 17.29C126.29 17.29 127.78 16.62 129.76 16.62Z" fill="#F3FFF8"/>
<path d="M120.65 9.50999C123.8 9.50999 123.96 12.33 123.14 15.14C122.32 17.95 122.98 20.77 121.82 21.26C120.65 21.76 115.86 20.44 113.72 19.45C111.56 18.46 112.89 12.66 113.55 11.02C113.54 11.01 117.51 9.50999 120.65 9.50999Z" fill="#F3FFF8"/>
<path d="M117.18 -0.969999C118 -0.799999 120.33 1.74 120.16 4.88C119.99 8.02 118.17 8.02 115.7 9.51C113.21 11.01 110.72 9.02 110.4 6.37C110.06 3.72 109.62 3.77 112.77 -0.529999C112.77 -0.519999 116.36 -1.13 117.18 -0.969999Z" fill="#F3FFF8"/>
<path d="M65.44 38.54C65.77 37.88 70.41 33.68 70.41 37.1C70.41 40.53 69.09 42.4 64 44.83C58.93 47.25 53.41 51.23 50.65 59.17C47.9 67.11 47.34 68.33 48.23 70.09C48.85 71.33 50.14 73.31 50.84 74.34C51.08 74.71 50.87 75.2 50.43 75.28C48.54 75.65 45.16 75.68 44.7 74.83C44.14 73.84 44.04 71.41 42.94 71.19C41.83 70.98 39.51 69.53 41.5 67.34C43.49 65.13 49.67 50.46 49.67 49.24C49.67 48.02 55.73 42.06 58.28 41.52C60.8 40.96 65.11 39.2 65.44 38.54Z" fill="#F3FFF8"/>
<path d="M31.98 168.42L31.45 168.23L30.79 166.91L30.38 166.59L29.21 166.75L28.22 167.08L27.73 166.59L25.74 165.35L24.34 165.43L22.1 164.69L21.5 164.93C19.88 163.63 18.52 162.24 17.98 162.12C17.26 161.96 16.78 160.8 17.49 159.52C18.21 158.25 19.15 156.92 19.42 156.77C19.7 156.6 21.02 155.94 19.7 155.94C19.28 155.94 18.81 156.01 18.34 156.11C18.5 155.47 18.74 154.64 18.95 154.43C19.32 154.06 20.41 154.1 20.98 154.1C21.56 154.1 21.44 153.6 21.48 153.23C21.52 152.86 20.65 152.41 20.65 152.41L21.56 151.58L20.57 151.13L21.48 150.96C21.48 150.96 21.73 150.18 21.77 150.01C21.81 149.85 21.15 149.81 20.86 149.81C20.57 149.81 19.83 149.4 19.83 149.4L18.7 148.49C18.7 148.49 18.38 148.65 18.04 148.9C17.72 149.15 17.01 147.54 17.01 147.54C17.01 147.54 16.06 148.12 15.74 148.12C15.4 148.12 14.61 147.33 14.61 147.33L13.99 147.91L13.58 147L13.54 146.22L13.21 146.26L13.25 145.27L11.52 145.39L11.39 144.12H12.09L11.19 142.91L10.73 142.25L9.91 142.62L9.41 142.91L9.33 142.58L8.42 142.45L8.43 143.2L7.3 143.23V141.96H6.85L6.78 140.15L8.38 140.36L9.27 139.31L8.66 138.82V138.26L7.56 138.54L7.67 137.22L6.85 137.15L6.47 135.67L5.81 135.29L6.13 134.46L5.59 133.92L5.97 133.42L6.02 132.81L5.41 132.6L4.97 131.99L4.08 132.53L3.54 132.81L3.47 131.87L2.42 131.99L1.35 131.39L1.16 129.06L0.25 129.31L0.5 127.73L0 127.23L0.04 127.14L0.66 125.5C0.66 125.5 0.08 123.36 0.16 122.85C0.25 122.36 1.48 121.27 1.48 121.27L1.16 120.62C2.11 120.24 2.58 119.28 3.15 119.28C3.89 119.28 5.04 119.28 4.63 118.87C4.22 118.46 2.8 118.3 2.56 117.96C2.36 117.72 2.03 117.06 0.6 117.19C2.26 115.12 6.35 109.97 6.94 108.86C7.68 107.46 4.46 105.38 4.46 105.38L5.36 104.15L4.62 103.32L4.54 101.33H3.89L3.64 100.75L4.13 100.18L3.72 99.85L3.89 97.86L4.63 97.69C4.63 97.69 2.72 92.65 2.72 92.39C2.72 92.14 3.81 90.73 3.89 90.4C3.97 90.07 4.55 88.82 3.89 88.08C3.23 87.3 1.99 86.8 1.99 86.8L2.24 84.24C2.24 84.24 2.21 83.88 2.25 83.38L2.98 83L3.39 81.76L4.63 81.19V80.1L5.29 80.52H6.03L6 79.72C7.39 80.53 9.36 81.49 10.75 81.6C12.91 81.76 14.56 82.09 16.96 84.41C19.36 86.73 23.33 88.05 23.42 90.29C23.5 92.53 23.99 92.94 22.25 94.59C20.52 96.25 19.52 96.99 15.72 95.25C11.91 93.52 9.76 92.44 9.26 92.19C8.76 91.94 8.27 91.53 9.34 93.1C10.43 94.66 12.57 95.5 12.65 96.73C12.73 97.97 12.9 101.13 13.23 102.2C13.56 103.27 15.47 104.85 16.38 104.93C17.28 105.02 18.37 105.02 18.11 104.19C17.86 103.36 16.87 102.79 16.2 101.71C15.54 100.62 15.95 99.47 17.52 100.47C19.1 101.46 23.07 102.38 22.15 100.8C21.24 99.22 20.24 98.81 21.24 97.98C22.23 97.16 24.72 93.52 26.38 94.34C28.04 95.17 29.03 95.41 29.03 94.18C29.03 93.64 28.82 92.95 28.59 92.18L31.26 91.72C31.37 91.91 31.52 92.05 31.75 92.17C33.07 92.83 32.41 93.04 35.17 89.73C37.94 86.42 41.91 82.9 44.56 84.22C47.21 85.54 47.54 84.76 49.53 84.55C51.52 84.32 53.5 84.22 55.37 83.44C57.25 82.67 56.26 79.92 55.16 79.36C54.05 78.8 55.16 77.7 57.48 78.7C59.8 79.69 62.88 80.02 64.87 82.24C66.86 84.44 68.41 86.09 69.07 86.09C69.73 86.09 71.82 85.65 69.73 82.78C67.62 79.92 65.97 76.49 66.63 74.84C67.29 73.18 69.17 69.54 70.17 66.13C71.16 62.71 71.49 61.72 73.26 62.16C75.03 62.6 77.89 63.26 76.9 67.56C75.91 71.86 77.35 72.31 77.23 74.41C77.12 76.5 76.36 83.9 77.46 83.9C78.56 83.9 80.44 84.89 79.88 81.36C79.34 77.82 78.56 70.77 81.1 69.22C83.64 67.68 87.06 65.14 87.95 65.7C88.82 66.24 91.04 69.01 92.13 69.01C93.24 69.01 94.01 68.12 93.02 66.69C92.03 65.25 89.6 61.17 90.15 59.74C90.71 58.3 99.87 58.63 100.64 56.97C101.41 55.31 97.99 53.66 99.98 51.24C101.97 48.82 104.51 45.39 107.37 45.39C110.24 45.39 111.24 44.07 112.67 43.52C114.11 42.96 116.54 42.41 118.96 42.3C121.4 42.19 121.5 40.64 123.05 39.98C124.59 39.32 125.25 38.43 125.7 36.23C126.14 34.02 127.46 31.26 129.22 30.71C130.99 30.15 134.3 31.81 133.64 32.59C132.98 33.36 130.77 35.12 131.76 35.01C132.75 34.9 136.17 35.45 136.39 36.67C136.62 37.89 142.24 36.9 143.34 37.99C144.44 39.09 149.07 44.28 146.32 47.59C143.57 50.9 138.27 55.43 138.93 56.3C139.59 57.19 142.12 56.96 144.77 57.41C147.42 57.85 154.37 57.62 155.69 59.5C157.01 61.38 163.3 63.91 163.3 61.49C163.3 59.07 162.64 57.41 167.72 59.61C172.79 61.82 173.35 62.81 172.69 64.47C172.03 66.13 171.37 67.67 172.36 69.33C173.35 70.99 176.21 76.61 177.1 72.42C177.99 68.22 177.43 67.45 179.75 69.22C182.07 70.99 190.12 71.33 190.67 69.45C191.23 67.57 190.01 63.6 194.64 64.26C199.27 64.92 205.13 65.15 206.56 66.8C207.99 68.46 209.1 69.55 210.53 71.66C211.96 73.75 214.73 73.75 216.59 73.2C218.47 72.66 224.53 72.87 224.65 75.08C224.76 77.29 223.87 80.71 227.4 80.27C230.94 79.82 234.35 79.82 235.45 80.48C236.56 81.14 238.1 79.49 238.88 79.38C239.65 79.27 245.38 76.96 249.8 78.61C254.21 80.27 259.73 84.34 262.71 86.33C265.69 88.32 267.56 89.2 267.56 89.97C267.56 90.74 267.12 93.28 267.89 93.28C268.67 93.28 269.28 91.88 269.28 91.88C269.77 91.88 272.62 92.16 272.75 92.37C273 92.78 275.98 96.09 275.98 96.09C275.32 97.18 274.66 97.41 274.74 97.76C274.82 98.08 273.26 98.25 272.75 98.99C272.25 99.74 271.35 103.88 270.84 103.72C270.35 103.55 266.05 101.89 265.97 100.98C265.88 100.07 264.73 98.33 263.23 98.66C261.75 98.99 260.58 97 260.75 96.51C260.91 96.01 259.51 95.11 259.35 96.01C259.18 96.92 260.33 98.99 259.18 100.15C258.03 101.3 255.87 102.39 255.13 101.88C254.38 101.38 252.97 101.14 253.55 102.04C254.13 102.95 254.95 103.21 255.7 104.12C256.45 105.03 256.2 105.85 256.94 106.68C257.68 107.51 258.6 109.75 257.85 110.33C257.11 110.9 254.79 109.58 253.71 110.08C252.64 110.57 243.04 116.2 242.96 117.44C242.88 118.68 241.89 119.84 240.47 117.11C239.07 114.38 236.75 120.01 235.43 119.68C234.23 119.38 233.1 117.92 231.66 119.26L228.05 117.87C229.67 116.27 231.57 114.51 232.13 112.89C232.88 110.74 234.12 108.59 231.88 109.5C229.66 110.41 230.65 111 228 114.21C225.35 117.44 225.51 118.35 225.26 117.03C225.02 115.71 225.92 112.63 223.78 112.63C221.64 112.63 217.24 116.85 216.17 118.51C215.1 120.17 217.75 121.66 214.93 121.9C212.12 122.15 211.29 121.49 204.84 121.24C198.38 121 195.98 120.5 190.18 127.7C184.39 134.9 182.33 136.47 186.13 137.13C189.94 137.79 193.08 135.73 193.33 139.46C193.58 143.18 191.5 155.84 185.97 161.22C180.42 166.61 179.76 167.68 178.26 166.61C177.6 166.13 176.38 166.81 175.14 167.88L174.95 166.77L174.67 166.57L175.95 166.19L176.19 163.3C176.19 163.3 175.29 161.88 175.61 161.55C175.95 161.22 177.11 159.99 177.94 160.56C178.76 161.14 178.84 161.31 179.58 159.9C180.33 158.5 181.25 157 181 156.43C180.75 155.85 181.91 154.6 181.91 154.6V152.94L179.09 153.44C179.09 153.44 178.68 154.51 177.59 154.51C176.52 154.51 174.78 154.51 174.94 153.85C175.11 153.19 174.78 151.53 174.78 151.53L174.12 151.28L172.95 150.05L171.88 149.8L170.15 149.55L169.74 147.82L168.42 145.42C168.42 145.42 168.42 142.68 168.09 142.68C167.76 142.68 167.51 140.28 164.53 139.54C161.55 138.8 160.23 139.62 159.72 139.62C159.23 139.62 157.57 140.03 157.32 141.02C157.07 142.01 158.07 141.68 158.07 141.68L158.23 143C158.23 143 156.75 144.17 156.57 144.91C156.4 145.65 155.5 147.31 155.66 147.64C155.83 147.97 155.25 149.22 154.26 149.47C153.51 149.66 152.5 149.4 151.56 149.1C151.27 149.01 150.98 148.9 150.7 148.81C149.55 148.39 148.63 148.97 148.22 148.56C147.8 148.15 147.31 147.41 146.15 148.73C144.98 150.05 143.16 150.72 141.09 150.72C139.02 150.72 136.96 150.22 136.63 149.4C136.3 148.57 135.31 148.74 135.31 148.74C135.31 148.74 134.73 147.07 133.07 147.42C131.41 147.74 128.77 148.82 127.69 147.5C126.6 146.18 126.45 144.93 126.45 144.93L124.72 144.11L122.64 144.02L122.73 143.45L121.23 142.7C119.16 144.86 119.57 146.51 119.91 147C120.24 147.5 119.75 149.32 119.01 149.24C118.26 149.16 117.02 148.17 116.02 148.5C115.04 148.83 113.72 148.41 113.29 147.43C112.88 146.42 111.3 147.09 111.3 147.09L111.22 146.6L109.74 146.11L104.6 149.83L103.02 150.08C103.02 150.08 102.83 150.34 102.61 150.53H102.6C102.47 150.65 102.32 150.74 102.2 150.74C102.08 150.74 101.83 150.66 101.55 150.54C101.05 150.31 100.46 149.98 100.46 149.83C100.46 149.58 100.54 149.08 100.54 149.08C100.54 149.08 99.55 150.5 98.63 149.91C97.72 149.33 97.31 148.41 97.31 148.41L96.14 147.59C96.14 147.59 95.9 146.11 94.74 146.19C93.59 146.27 93.18 146.68 93.18 146.68L91.94 146.6L91.28 146.27C91.28 146.27 90.7 144.61 90.45 145.03C90.2 145.45 89.13 146.69 89.13 146.69C89.13 146.69 86.23 140.65 85.99 140.4C85.74 140.16 83.42 138 83.42 138C83.42 138 83.17 137.34 83.5 137.09C83.83 136.85 84.9 135.69 82.92 136.76C80.93 137.83 79.45 138.59 79.45 138.59L78.13 139.33C78.13 139.33 77.72 138.42 78.13 138.26C78.54 138.09 78.95 137.6 78.95 137.6L76.55 137.76L75.64 136.86C75.64 136.86 74.16 138.01 74.08 137.27C74 136.52 74.16 135.19 73.91 135.03C73.66 134.87 73.91 133.96 73.58 133.96C73.25 133.96 72.92 134.37 72.02 134.21C71.11 134.04 70.35 133.3 70.35 133.3L69.53 134.21L69.12 134.78L64.39 135.53L64.23 136.51L61.66 136.93L59.44 137.83L58.35 137.75L57.28 137.51L56.62 138.66L57.69 139.15L57.28 139.73L58.94 140.56L56.95 140.39C56.95 140.39 56.7 141.38 56.79 141.79C56.87 142.21 56.7 142.37 55.96 142.88C55.22 143.37 55.63 143.95 55.63 143.95C55.63 143.95 56.62 144.2 57.21 144.78C57.78 145.35 58.36 147 57.29 147C56.22 147 55.13 146.42 55.13 146.42L54.56 147.33C54.56 147.33 52.83 146.26 52.65 145.93C52.48 145.6 51.5 145.76 51.5 145.76L51.08 146.51L50.18 145.76C50.18 145.76 49.27 146.1 48.86 146.59C48.44 147.08 48.2 147.5 48.2 147.5L46.29 146L46.04 147.32L45.13 145.74L44.06 144.67H42.7L42.29 144.01C42.29 144.01 41.2 144.67 40.89 144.84C40.55 145 40.55 144.26 40.55 144.26L39.65 144.18L37.33 145.84L37.24 146.66L35.92 147.07C35.92 147.07 36.5 149.15 36.09 149.06C35.68 148.98 34.28 147.58 34.28 147.58L33.11 148.9L33.19 150.97L32.45 152.8L33.44 152.96L33.36 154.46H34.94L36.58 156.86L35.43 157.02L37.34 158.21C37.33 158.22 37.33 158.22 37.31 158.24C36.04 159.23 33.55 161.06 33.55 161.78C33.55 162.5 34.33 163.44 34.38 164.65C34.43 165.85 34.54 167.46 35.53 168.34C35.69 168.47 35.85 168.64 35.99 168.84L34.76 170.02L33.69 169.69L32.95 168.78L31.98 168.42Z" fill="#F3FFF8"/>
<path d="M30.45 84.99C31.11 85.43 34.2 87.86 32.77 88.63C31.59 89.27 30.77 90.81 31.29 91.72L28.62 92.18C28.34 91.19 28.06 90.03 28.25 88.86C28.57 86.75 29.79 84.55 30.45 84.99Z" fill="#F3FFF8"/>
<path d="M15.28 160.29C15.39 160.57 15.89 161.3 15.07 161.23C14.24 161.18 13.3 161.68 12.47 162.06C11.64 162.44 11.03 163.11 10.75 161.89C10.49 160.68 9.04 159.97 9.16 159.8C9.27 159.63 11.3 159.08 10.75 158.86C10.63 158.81 10.45 158.78 10.23 158.77L10.88 158.44L12.54 159.18C12.61 159.6 12.84 159.99 13.24 160.03C13.9 160.08 15.17 160.03 15.28 160.29Z" fill="#F3FFF8"/>
</g>
<defs>
<clipPath id="clip0_5_237">
<rect width="276" height="170.98" fill="white" transform="translate(0 -1)"/>
</clipPath>
</defs>
</svg>
