<svg width="40" height="40" viewBox="0 0 40 40" fill="none" xmlns="http://www.w3.org/2000/svg">
<path d="M40 20C40 31.05 31.05 40 20 40C8.95 40 0 31.05 0 20C0 8.95 8.95 0 20 0C31.05 0 40 8.95 40 20Z" fill="url(#paint0_linear_222_684)"/>
<path d="M16.3334 29.1665C15.6834 29.1665 15.8001 28.9165 15.5667 28.2998L13.6667 22.0332L25.4667 14.6665L26.8501 15.0332L25.7001 18.1665L16.3334 29.1665Z" fill="#C8DAEA"/>
<path d="M16.3333 29.1666C16.8333 29.1666 17.0499 28.9333 17.3333 28.6667C17.7666 28.25 23.3333 22.8333 23.3333 22.8333L19.9166 22L16.7499 24L16.3333 29V29.1666Z" fill="#A9C9DD"/>
<path d="M16.6666 24.0666L24.7332 30.0166C25.6499 30.5166 26.3165 30.2666 26.5499 29.1666L29.8332 13.6999C30.1665 12.3499 29.3165 11.7499 28.4332 12.1499L9.16656 19.5833C7.8499 20.1166 7.86656 20.8499 8.93323 21.1666L13.8832 22.7166L25.3332 15.4999C25.8665 15.1666 26.3665 15.3499 25.9665 15.7166L16.6666 24.0666Z" fill="url(#paint1_linear_222_684)"/>
<defs>
<linearGradient id="paint0_linear_222_684" x1="25.8617" y1="6.32167" x2="15.8617" y2="29.6547" gradientUnits="userSpaceOnUse">
<stop stop-color="#37AEE2"/>
<stop offset="1" stop-color="#1E96C8"/>
</linearGradient>
<linearGradient id="paint1_linear_222_684" x1="21.4984" y1="20.6258" x2="25.6651" y2="27.2924" gradientUnits="userSpaceOnUse">
<stop stop-color="#EFF7FC"/>
<stop offset="1" stop-color="white"/>
</linearGradient>
</defs>
</svg>
