<svg width="97" height="40" viewBox="0 0 97 40" fill="none" xmlns="http://www.w3.org/2000/svg">
<path d="M20 40C31.0457 40 40 31.0457 40 20C40 8.95431 31.0457 0 20 0C8.95431 0 0 8.95431 0 20C0 31.0457 8.95431 40 20 40Z" fill="#0088CC"/>
<path fill-rule="evenodd" clip-rule="evenodd" d="M14.4349 13.2173H25.6523C26.0492 13.2173 26.4457 13.2755 26.8602 13.4687C27.3569 13.7003 27.6204 14.0653 27.8049 14.3352C27.8193 14.3562 27.8327 14.3779 27.8452 14.4C28.0622 14.7863 28.174 15.2034 28.174 15.6521C28.174 16.0783 28.0726 16.5427 27.8452 16.9475C27.843 16.9514 27.8408 16.9553 27.8386 16.9591L20.7516 29.133C20.5953 29.4015 20.3077 29.5662 19.997 29.5651C19.6864 29.564 19.3999 29.3972 19.2455 29.1276L12.2887 16.9797C12.2867 16.9764 12.2847 16.9731 12.2827 16.9698C12.1234 16.7075 11.8772 16.3017 11.8342 15.7781C11.7946 15.2966 11.9028 14.8143 12.1447 14.3959C12.3867 13.9776 12.7509 13.6431 13.1889 13.4384C13.6587 13.219 14.1347 13.2173 14.4349 13.2173ZM19.1305 14.9564H14.4349C14.1264 14.9564 14.0079 14.9754 13.9252 15.0141C13.8107 15.0676 13.7145 15.1554 13.6502 15.2666C13.5859 15.3778 13.5569 15.5066 13.5674 15.6356C13.5735 15.7096 13.6037 15.7941 13.7814 16.0874C13.7852 16.0935 13.7888 16.0997 13.7924 16.106L19.1305 25.4274V14.9564ZM20.8697 14.9564V25.4734L26.3314 16.0911C26.3931 15.9791 26.4349 15.8174 26.4349 15.6521C26.4349 15.5179 26.4071 15.4015 26.3449 15.2815C26.2797 15.1877 26.24 15.1381 26.2068 15.1041C26.1783 15.075 26.1564 15.0594 26.1254 15.045C25.9962 14.9848 25.8641 14.9564 25.6523 14.9564H20.8697Z" fill="white"/>
<path d="M57.126 28.73V15.552H52V13.22H65.09V15.552H59.964V28.73H57.126Z" fill="#3070A6"/>
<path d="M65.6438 20.964C65.6438 19.336 65.9371 17.928 66.5238 16.74C67.1251 15.552 67.9831 14.6353 69.0978 13.99C70.2124 13.33 71.5398 13 73.0798 13C74.6051 13 75.9251 13.33 77.0398 13.99C78.1544 14.6353 79.0124 15.552 79.6138 16.74C80.2298 17.928 80.5378 19.3287 80.5378 20.942C80.5378 22.57 80.2298 23.9853 79.6138 25.188C79.0124 26.376 78.1544 27.3 77.0398 27.96C75.9251 28.62 74.6051 28.95 73.0798 28.95C71.5398 28.95 70.2124 28.62 69.0978 27.96C67.9978 27.3 67.1471 26.376 66.5458 25.188C65.9444 23.9853 65.6438 22.5773 65.6438 20.964ZM68.6138 20.964C68.6138 22.1227 68.7751 23.12 69.0978 23.956C69.4351 24.792 69.9338 25.43 70.5938 25.87C71.2684 26.31 72.0971 26.53 73.0798 26.53C74.5171 26.53 75.6244 26.0387 76.4018 25.056C77.1791 24.0733 77.5678 22.7093 77.5678 20.964C77.5678 19.7907 77.3918 18.7933 77.0398 17.972C76.7024 17.136 76.1964 16.5053 75.5218 16.08C74.8618 15.64 74.0478 15.42 73.0798 15.42C71.5984 15.42 70.4838 15.904 69.7358 16.872C68.9878 17.84 68.6138 19.204 68.6138 20.964Z" fill="#3070A6"/>
<path d="M83.4662 28.73V13.22H85.6002L94.5982 24.858H94.0262V13.22H96.6662V28.73H94.5322L85.5562 17.092H86.1062V28.73H83.4662Z" fill="#3070A6"/>
</svg>
