<svg width="30" height="31" viewBox="0 0 30 31" fill="none" xmlns="http://www.w3.org/2000/svg">
<path d="M24.425 6.85006C23.1717 5.60559 21.6824 4.62399 20.0447 3.96286C18.4069 3.30173 16.6535 2.97439 14.8875 3.00006C11.5723 2.99177 8.38957 4.30078 6.0395 6.63913C3.68944 8.97747 2.36453 12.1536 2.35624 15.4688C2.34795 18.784 3.65696 21.9667 5.99531 24.3168C8.33365 26.6669 11.5098 27.9918 14.825 28.0001C15.5394 28.0122 16.2375 27.7868 16.8099 27.3592C17.3823 26.9316 17.7965 26.326 17.9875 25.6376C18.1092 25.1404 18.108 24.621 17.9838 24.1244C17.8597 23.6278 17.6164 23.169 17.275 22.7876C17.1961 22.6977 17.1446 22.5871 17.1266 22.4689C17.1086 22.3507 17.125 22.2298 17.1736 22.1205C17.2223 22.0113 17.3013 21.9184 17.4013 21.8527C17.5012 21.787 17.6179 21.7514 17.7375 21.7501H19.8C21.7412 21.7591 23.6139 21.0335 25.0422 19.7188C26.4705 18.4042 27.3485 16.5978 27.5 14.6626C27.5465 13.2196 27.2977 11.7823 26.769 10.4389C26.2402 9.09546 25.4426 7.87422 24.425 6.85006ZM19.85 19.2501H17.7875C17.1851 19.2466 16.5948 19.4181 16.0879 19.7436C15.5811 20.0691 15.1796 20.5347 14.9322 21.0838C14.6847 21.633 14.6019 22.2422 14.6938 22.8375C14.7857 23.4328 15.0484 23.9886 15.45 24.4376C15.5282 24.5165 15.5834 24.6151 15.6099 24.723C15.6363 24.8309 15.6329 24.944 15.6 25.0501C15.5375 25.3126 15.25 25.4751 14.8625 25.5001C13.4429 25.4819 12.0434 25.1616 10.7572 24.5606C9.471 23.9595 8.32751 23.0915 7.40279 22.0143C6.47807 20.937 5.79334 19.6752 5.39413 18.3128C4.99492 16.9503 4.89039 15.5185 5.08749 14.1126C5.44395 11.75 6.62443 9.5896 8.42016 8.01348C10.2159 6.43735 12.5111 5.54706 14.9 5.50006H15C16.4135 5.48155 17.8165 5.74632 19.1261 6.27874C20.4357 6.81116 21.6254 7.60045 22.625 8.60006C23.405 9.38055 24.0178 10.3118 24.4262 11.3369C24.8345 12.362 25.0297 13.4595 25 14.5626C24.8706 15.8414 24.2732 17.0273 23.3226 17.8925C22.3721 18.7577 21.1353 19.2412 19.85 19.2501Z" fill="#31FF7D"/>
<path d="M15 10.5C16.0355 10.5 16.875 9.66053 16.875 8.625C16.875 7.58947 16.0355 6.75 15 6.75C13.9645 6.75 13.125 7.58947 13.125 8.625C13.125 9.66053 13.9645 10.5 15 10.5Z" fill="#31FF7D"/>
<path d="M19.0625 9.49996C18.7415 9.68541 18.4826 9.96187 18.3187 10.2944C18.1547 10.6269 18.093 11.0006 18.1414 11.3682C18.1898 11.7358 18.346 12.0808 18.5905 12.3596C18.8349 12.6383 19.1564 12.8384 19.5145 12.9345C19.8726 13.0306 20.2511 13.0183 20.6023 12.8993C20.9534 12.7803 21.2614 12.5599 21.4872 12.2659C21.7131 11.9719 21.8467 11.6175 21.8713 11.2475C21.8958 10.8776 21.8101 10.5087 21.625 10.1875C21.502 9.97396 21.3381 9.7868 21.1427 9.63668C20.9473 9.48656 20.7242 9.37643 20.4862 9.31258C20.2483 9.24873 20 9.23241 19.7557 9.26457C19.5114 9.29672 19.2759 9.37671 19.0625 9.49996ZM10.9375 9.49996C10.6163 9.31486 10.2473 9.22916 9.87741 9.25368C9.50747 9.2782 9.1531 9.41185 8.8591 9.63772C8.5651 9.8636 8.34466 10.1716 8.22565 10.5227C8.10663 10.8738 8.09439 11.2524 8.19046 11.6104C8.28653 11.9685 8.48661 12.2901 8.7654 12.5345C9.04419 12.7789 9.38918 12.9352 9.75676 12.9835C10.1243 13.0319 10.498 12.9702 10.8305 12.8063C11.1631 12.6423 11.4395 12.3835 11.625 12.0625C11.7482 11.8491 11.8282 11.6135 11.8604 11.3692C11.8925 11.1249 11.8762 10.8767 11.8124 10.6387C11.7485 10.4007 11.6384 10.1777 11.4883 9.98226C11.3382 9.78686 11.151 9.62297 10.9375 9.49996ZM7.69999 14.575C7.39246 14.7826 7.15345 15.0769 7.01324 15.4204C6.87302 15.764 6.83791 16.1415 6.91234 16.505C6.98678 16.8685 7.16741 17.2018 7.43137 17.4626C7.69533 17.7234 8.03074 17.9001 8.39515 17.9702C8.75955 18.0402 9.13656 18.0006 9.47843 17.8563C9.8203 17.712 10.1117 17.4695 10.3156 17.1595C10.5196 16.8495 10.627 16.4859 10.6242 16.1148C10.6214 15.7438 10.5086 15.3819 10.3 15.075C10.163 14.8704 9.98674 14.695 9.7815 14.559C9.57627 14.423 9.3461 14.329 9.10431 14.2825C8.86252 14.236 8.61392 14.2379 8.37287 14.2881C8.13182 14.3383 7.90312 14.4358 7.69999 14.575Z" fill="#31FF7D"/>
</svg>
