<?xml version="1.0" encoding="utf-8"?>
<!-- Generator: Adobe Illustrator 25.4.0, SVG Export Plug-In . SVG Version: 6.00 Build 0)  -->
<svg version="1.1" id="Слой_1" xmlns="http://www.w3.org/2000/svg" xmlns:xlink="http://www.w3.org/1999/xlink" x="0px" y="0px"
	 viewBox="0 0 103 65" style="enable-background:new 0 0 103 65;" xml:space="preserve">
<style type="text/css">
	.st0{fill:#53D347;}
	.st1{fill:url(#SVGID_1_);}
	.st2{fill:#ED4242;}
	.st3{fill:url(#SVGID_00000003811041492617123020000009729607397410620045_);}
	.st4{fill:none;stroke:#121C23;stroke-width:6;}
</style>
<path class="st0" d="M12,6h29c6.6,0,12,5.4,12,12v29c0,6.6-5.4,12-12,12H12C5.4,59,0,53.6,0,47V18C0,11.4,5.4,6,12,6z"/>
<linearGradient id="SVGID_1_" gradientUnits="userSpaceOnUse" x1="26.5" y1="59.89" x2="26.5" y2="6.89" gradientTransform="matrix(1 0 0 -1 0 65.89)">
	<stop  offset="0" style="stop-color:#ADD085"/>
	<stop  offset="1" style="stop-color:#007F12"/>
</linearGradient>
<path class="st1" d="M12,6h29c6.6,0,12,5.4,12,12v29c0,6.6-5.4,12-12,12H12C5.4,59,0,53.6,0,47V18C0,11.4,5.4,6,12,6z"/>
<path class="st2" d="M56,3h29c8.3,0,15,6.7,15,15v29c0,8.3-6.7,15-15,15H56c-8.3,0-15-6.7-15-15V18C41,9.7,47.7,3,56,3z"/>
<linearGradient id="SVGID_00000084505917831141058000000010189365194044541613_" gradientUnits="userSpaceOnUse" x1="70.5" y1="59.89" x2="70.5" y2="6.89" gradientTransform="matrix(1 0 0 -1 0 65.89)">
	<stop  offset="0" style="stop-color:#FFFF99"/>
	<stop  offset="1" style="stop-color:#A9AA38"/>
</linearGradient>
<path style="fill:url(#SVGID_00000084505917831141058000000010189365194044541613_);" d="M56,3h29c8.3,0,15,6.7,15,15v29
	c0,8.3-6.7,15-15,15H56c-8.3,0-15-6.7-15-15V18C41,9.7,47.7,3,56,3z"/>
<path class="st4" d="M56,3h29c8.3,0,15,6.7,15,15v29c0,8.3-6.7,15-15,15H56c-8.3,0-15-6.7-15-15V18C41,9.7,47.7,3,56,3z"/>
</svg>
