<svg width="30" height="30" viewBox="0 0 30 30" fill="none" xmlns="http://www.w3.org/2000/svg">
<path d="M25.7408 18.7601C25.9079 18.9527 26 19.2002 26 19.4563C26 19.7125 25.9079 19.9599 25.7408 20.1526L25.6457 20.2486L20.4342 24.7064C20.2357 24.8995 19.9693 25.0051 19.6938 24.9998C19.4183 24.9946 19.1561 24.8789 18.9649 24.6783C18.7738 24.4778 18.6693 24.2087 18.6745 23.9303C18.6797 23.6518 18.7942 23.3869 18.9927 23.1938L19.0877 23.0977L24.2993 18.64C24.4032 18.5504 24.5236 18.4825 24.6535 18.44C24.7835 18.3976 24.9205 18.3814 25.0566 18.3926C25.1927 18.4037 25.3253 18.4419 25.4468 18.505C25.5683 18.5681 25.6763 18.6547 25.7645 18.7601H25.7408ZM25.7408 12.0695C25.9079 12.2621 26 12.5096 26 12.7657C26 13.0219 25.9079 13.2694 25.7408 13.462L25.6457 13.5501L12.5851 24.7064C12.3822 24.8741 12.1243 24.9587 11.8626 24.9433C11.6009 24.928 11.3544 24.8139 11.172 24.6235C10.9897 24.4332 10.8847 24.1806 10.878 23.9158C10.8713 23.651 10.9632 23.3933 11.1357 23.1938L11.2307 23.0977L24.2676 11.9414C24.372 11.8523 24.4928 11.7849 24.623 11.7431C24.7533 11.7013 24.8904 11.6859 25.0266 11.6978C25.1627 11.7097 25.2952 11.7487 25.4164 11.8125C25.5376 11.8762 25.6452 11.9636 25.7329 12.0695H25.7408ZM25.7408 5.3709C25.9079 5.56355 26 5.811 26 6.06717C26 6.32334 25.9079 6.57078 25.7408 6.76343L25.6457 6.85947L4.75983 24.7064C4.56132 24.8995 4.29501 25.0051 4.01948 24.9998C3.74395 24.9946 3.48177 24.8789 3.29061 24.6783C3.09946 24.4778 2.99499 24.2087 3.00019 23.9303C3.00538 23.6518 3.11982 23.3869 3.31833 23.1938L3.41338 23.0977L24.2676 5.25085C24.3715 5.16128 24.4919 5.09331 24.6218 5.05085C24.7518 5.00839 24.8888 4.99228 25.0249 5.00343C25.161 5.01458 25.2937 5.05278 25.4151 5.11584C25.5366 5.1789 25.6446 5.26558 25.7329 5.3709H25.7408ZM17.9155 5.3789C18.0826 5.57156 18.1747 5.819 18.1747 6.07517C18.1747 6.33134 18.0826 6.57878 17.9155 6.77144L17.8205 6.86747L4.75983 18.0158C4.55606 18.1828 4.29758 18.2663 4.03571 18.2497C3.77384 18.2331 3.52772 18.1176 3.34622 17.9261C3.16472 17.7346 3.0611 17.4812 3.05593 17.2161C3.05077 16.9511 3.14443 16.6937 3.31833 16.4952L3.41338 16.4072L16.4423 5.25085C16.6553 5.07244 16.9292 4.98586 17.2049 5.00982C17.4805 5.03378 17.7358 5.16635 17.9155 5.3789ZM10.0981 5.3789C10.2668 5.57078 10.36 5.81852 10.36 6.07517C10.36 6.33182 10.2668 6.57956 10.0981 6.77144L10.0031 6.86747L4.79151 11.3252C4.59301 11.5183 4.32669 11.6239 4.05116 11.6187C3.77563 11.6134 3.51345 11.4978 3.32229 11.2972C3.13114 11.0966 3.02667 10.8275 3.03187 10.5491C3.03707 10.2707 3.15151 10.0058 3.35001 9.81261L3.44506 9.72458L8.65663 5.25885C8.86864 5.07949 9.14194 4.99155 9.41756 5.01401C9.69317 5.03647 9.94899 5.16753 10.1298 5.3789H10.0981Z" fill="#31FF7D"/>
</svg>
