<svg width="30" height="31" viewBox="0 0 30 31" fill="none" xmlns="http://www.w3.org/2000/svg">
<path d="M27.8571 16.5714C26.1607 13.9375 24.0346 11.9677 21.4788 10.6618C22.1596 11.8226 22.5 13.0781 22.5 14.4286C22.5 16.4933 21.7662 18.2595 20.2985 19.7271C18.8309 21.1948 17.0647 21.9286 15 21.9286C12.9353 21.9286 11.1691 21.1948 9.70145 19.7271C8.23382 18.2595 7.5 16.4933 7.5 14.4286C7.5 13.0781 7.8404 11.8226 8.5212 10.6618C5.9654 11.9677 3.83929 13.9375 2.14286 16.5714C3.62723 18.8594 5.48828 20.6814 7.726 22.0374C9.96373 23.3934 12.3884 24.0714 15 24.0714C17.6116 24.0714 20.0363 23.3934 22.274 22.0374C24.5117 20.6814 26.3728 18.8594 27.8571 16.5714ZM15.8036 10.1429C15.8036 9.91966 15.7254 9.72993 15.5692 9.57368C15.4129 9.41743 15.2232 9.3393 15 9.3393C13.6049 9.3393 12.4079 9.83875 11.409 10.8376C10.4102 11.8365 9.91071 13.0335 9.91071 14.4286C9.91071 14.6518 9.98884 14.8415 10.1451 14.9978C10.3013 15.154 10.4911 15.2322 10.7143 15.2322C10.9375 15.2322 11.1272 15.154 11.2835 14.9978C11.4397 14.8415 11.5179 14.6518 11.5179 14.4286C11.5179 13.4688 11.8583 12.6485 12.5391 11.9677C13.2199 11.2868 14.0402 10.9464 15 10.9464C15.2232 10.9464 15.4129 10.8683 15.5692 10.7121C15.7254 10.5558 15.8036 10.3661 15.8036 10.1429ZM30 16.5714C30 16.9509 29.8884 17.336 29.6652 17.7266C28.1027 20.2935 26.0017 22.3499 23.3622 23.8957C20.7227 25.4414 17.9353 26.2143 15 26.2143C12.0647 26.2143 9.27734 25.4386 6.63783 23.8873C3.99833 22.336 1.89732 20.2824 0.334821 17.7266C0.111607 17.336 0 16.9509 0 16.5714C0 16.192 0.111607 15.8069 0.334821 15.4163C1.89732 12.8605 3.99833 10.8069 6.63783 9.2556C9.27734 7.70426 12.0647 6.92859 15 6.92859C17.9353 6.92859 20.7227 7.70426 23.3622 9.2556C26.0017 10.8069 28.1027 12.8605 29.6652 15.4163C29.8884 15.8069 30 16.192 30 16.5714Z" fill="#31FF7D"/>
</svg>
