<svg width="28" height="28" viewBox="0 0 28 28" fill="none" xmlns="http://www.w3.org/2000/svg">
<g clip-path="url(#clip0_224_3410)">
<path d="M-0.000232697 2.7998H23.7998V4.1998C23.7998 4.4798 23.7998 4.6198 23.9398 4.8998L25.6198 3.2198C26.1798 2.6598 27.0198 2.6598 27.5798 3.2198C28.1398 3.7798 28.1398 4.6198 27.5798 5.1798L25.8998 6.8598C26.1798 6.9998 26.3198 6.9998 26.5998 6.9998H27.9998V12.5998H25.4798L27.9998 23.5198C28.1398 23.9398 27.9998 24.3598 27.7198 24.6398C27.4398 25.0598 27.0198 25.1998 26.5998 25.1998H18.1998C17.4998 25.1998 16.9398 24.6398 16.7998 23.9398L16.5198 20.9998C11.7598 20.8598 7.83977 17.2198 7.13977 12.5998H-0.000232697V2.7998ZM19.4598 22.3998H24.9198L22.6798 12.5998H18.3398L19.4598 22.3998ZM16.0998 18.1998L15.6798 14.4198L14.9798 15.1198C14.1398 15.9598 13.2998 15.3998 13.0198 15.1198C12.4598 14.5598 12.4598 13.7198 13.0198 13.1598L13.5798 12.5998H9.93977C10.4998 15.5398 13.0198 17.9198 16.0998 18.1998ZM2.79977 9.7998H25.1998V9.6598C23.2398 9.0998 21.6998 7.5598 21.1398 5.5998H2.79977V9.7998Z" fill="#31FF7D"/>
</g>
<defs>
<clipPath id="clip0_224_3410">
<rect width="28" height="28" fill="white" transform="matrix(-1 0 0 1 28 0)"/>
</clipPath>
</defs>
</svg>
