<svg width="27" height="27" viewBox="0 0 27 27" fill="none" xmlns="http://www.w3.org/2000/svg">
<g clip-path="url(#clip0_222_631)">
<path d="M26.5 2.65002H3.97498V3.97502C3.97498 4.24002 3.97498 4.37252 3.84248 4.63752L2.25248 3.04752C1.72248 2.51752 0.927478 2.51752 0.397478 3.04752C-0.132522 3.57752 -0.132522 4.37252 0.397478 4.90252L1.98748 6.49252C1.72248 6.62502 1.58998 6.62502 1.32498 6.62502H-2.15583e-05V11.925H2.38498L-2.15583e-05 22.26C-0.132522 22.6575 -2.15657e-05 23.055 0.264978 23.32C0.529978 23.7175 0.927478 23.85 1.32498 23.85H9.27498C9.93748 23.85 10.4675 23.32 10.6 22.6575L10.865 19.875C15.37 19.7425 19.08 16.2975 19.7425 11.925H26.5V2.65002ZM8.08248 21.2H2.91498L5.03498 11.925H9.14248L8.08248 21.2ZM11.2625 17.225L11.66 13.6475L12.3225 14.31C13.1175 15.105 13.9125 14.575 14.1775 14.31C14.7075 13.78 14.7075 12.985 14.1775 12.455L13.6475 11.925H17.0925C16.5625 14.7075 14.1775 16.96 11.2625 17.225ZM23.85 9.27502H2.64998V9.14252C4.50498 8.61252 5.96248 7.15502 6.49248 5.30002H23.85V9.27502Z" fill="#31FF7D"/>
</g>
<defs>
<clipPath id="clip0_222_631">
<rect width="26.5" height="26.5" fill="white"/>
</clipPath>
</defs>
</svg>
