<svg width="30" height="30" viewBox="0 0 30 30" fill="none" xmlns="http://www.w3.org/2000/svg">
<path d="M24.2582 13.5354C23.6155 11.9309 23.0543 10.2935 22.5766 8.62985C22.4899 8.29974 22.4177 7.96582 22.3603 7.62908C22.1073 6.28622 21.726 4.25618 19.8295 4.23443C18.9789 4.23443 18.2551 4.79483 17.8884 5.71757L17.7652 5.443C17.6002 5.07465 17.4308 4.6943 17.2159 4.3282C16.9915 3.94641 16.6927 3.61597 16.3381 3.35744C15.7544 2.93433 15.0225 2.87956 14.5121 3.23216C14.1924 3.45197 13.9511 3.80906 13.833 4.23818C13.6864 4.77382 13.7003 5.33047 13.7531 5.81885C13.7069 5.73633 13.66 5.65005 13.6123 5.56228C13.22 4.83759 12.6817 3.84582 11.5523 3.70779C10.8043 3.61851 10.0402 3.97561 9.64859 4.60427C9.32812 5.11966 9.32225 5.66581 9.41612 6.15344C9.30082 6.08054 9.17812 6.02067 9.05018 5.97489C8.87118 5.9099 8.68278 5.87617 8.49284 5.87511C7.2513 5.87511 6.57883 7.317 6.49743 8.34102C6.40283 9.54209 6.8399 10.6501 7.2953 11.6824C7.50724 12.164 7.72944 12.6404 7.95164 13.1183C8.10931 13.4574 8.26698 13.7957 8.42171 14.1378C8.52364 14.3606 8.62265 14.5842 8.72018 14.8092C8.27406 14.6233 7.81492 14.4718 7.34663 14.3561C6.37349 14.1311 5.19502 14.5062 4.54601 15.2436C4.14121 15.7012 3.95127 16.2721 4.01067 16.8498C4.11627 17.8813 4.94348 18.5843 5.43848 19.0036L10.6349 23.4125C12.0583 24.6196 13.6724 25.9887 15.6546 26.6249C16.4305 26.874 17.2475 27 18.0835 27C19.6117 27 21.1459 26.5626 22.4021 25.7682C24.2912 24.5739 25.6105 22.5003 25.9317 20.2212L25.9566 20.0164C26.1861 17.9608 25.4638 16.3149 24.7657 14.723C24.5898 14.3301 24.4207 13.9342 24.2582 13.5354ZM24.498 19.8513L24.4782 20.0089C24.2193 21.8521 23.1545 23.5281 21.6306 24.4921C20.6025 25.1418 19.3426 25.4996 18.0827 25.4996C17.4084 25.5017 16.7378 25.3984 16.0939 25.1935C14.386 24.6451 12.9552 23.4313 11.5714 22.2572L6.37496 17.8491C5.93789 17.4785 5.50815 17.0839 5.46855 16.6937C5.46268 16.6367 5.44582 16.4627 5.63502 16.2474C5.87776 15.9721 6.32069 15.7875 6.73723 15.7875C6.83696 15.7875 6.93376 15.798 7.00636 15.8153C7.7309 16.0006 8.27944 16.2144 8.73045 16.4852L8.82945 16.5535C9.21152 16.8235 9.55765 17.0463 9.92726 17.0463C10.2001 17.0463 10.4479 16.9226 10.6078 16.7065C10.7919 16.4567 10.8315 16.1334 10.7229 15.744C10.6526 15.511 10.559 15.286 10.4435 15.0726C10.3973 14.981 10.3504 14.8895 10.3115 14.7957C10.1336 14.3615 9.94702 13.9311 9.75199 13.5046C9.59579 13.1596 9.43592 12.816 9.27605 12.4716C9.05825 12.0035 8.84045 11.5361 8.63218 11.0635C8.25524 10.2105 7.89297 9.30653 7.95971 8.46105C8.00297 7.91191 8.32784 7.37551 8.49284 7.37551C8.51867 7.37673 8.54415 7.38204 8.56838 7.39127C8.75391 7.45729 8.95045 7.73261 9.14038 7.99893C9.21518 8.10396 9.28852 8.20674 9.36332 8.30201C10.3225 9.52784 11.1204 10.8985 11.8317 12.1528C11.9586 12.4169 12.0759 12.6247 12.205 12.8145C12.3106 12.9763 12.4735 13.0897 12.6594 13.1307C12.8453 13.1718 13.0395 13.1372 13.2009 13.0343C13.5368 12.8205 13.646 12.3711 13.4488 12.0208L13.1481 11.4911C13.0967 11.3828 13.0463 11.2741 12.997 11.1648L12.8892 10.9277C12.5849 10.2717 12.2932 9.60968 12.0143 8.94193L11.8127 8.4618C11.5626 7.87065 11.3265 7.31175 11.1299 6.73409L11.05 6.50603C10.8711 5.99965 10.7537 5.62455 10.8865 5.41149C10.9686 5.27795 11.1358 5.18118 11.3793 5.19918C11.7349 5.2427 11.9982 5.67931 12.3297 6.29147C12.3979 6.41676 12.4639 6.53904 12.5299 6.65232C12.9266 7.335 13.3058 8.05294 13.6724 8.74688L13.9357 9.24576C14.0626 9.48508 14.185 9.73339 14.3075 9.98246C14.6258 10.6261 14.9543 11.2923 15.3892 11.8887C15.4907 12.0261 15.6354 12.1236 15.7988 12.165C15.9623 12.2064 16.1347 12.189 16.2871 12.1159C16.4396 12.0428 16.5629 11.9184 16.6364 11.7634C16.7099 11.6084 16.7291 11.4323 16.6908 11.2646C16.6588 11.1263 16.6199 10.9899 16.5742 10.8557L16.429 10.4431C16.344 10.1952 16.2608 9.94664 16.1797 9.69738C16.0332 9.24949 15.8958 8.79852 15.7676 8.34477C15.5248 7.47904 15.3745 6.81061 15.2792 6.17744C15.208 5.69657 15.1186 5.09866 15.244 4.64554C15.2689 4.55251 15.3041 4.503 15.2968 4.494C15.3664 4.50825 15.4321 4.53823 15.4889 4.58177C15.6737 4.71605 15.8402 4.8991 15.9568 5.09941C16.1298 5.39424 16.2758 5.72132 16.4305 6.06641C16.5354 6.30048 16.6395 6.53304 16.7517 6.75885C16.8962 7.04693 17.2013 7.93666 17.4462 8.6516C17.6919 9.36805 17.9045 9.98696 18.0453 10.3005C18.1224 10.4831 18.2673 10.6268 18.448 10.7001C18.6287 10.7734 18.8305 10.7703 19.0089 10.6914C19.1874 10.6125 19.3279 10.4643 19.3995 10.2795C19.4712 10.0946 19.4681 9.88819 19.391 9.70564C19.3015 9.40406 19.0214 7.62908 19.0148 7.36126C19.0397 7.06118 19.0977 6.75885 19.1923 6.43701C19.2135 6.36499 19.4123 5.73483 19.8347 5.73483C20.4125 5.74158 20.6362 6.41226 20.9193 7.91266C20.9956 8.31777 21.0667 8.69962 21.1679 9.05221C21.6602 10.7655 22.2386 12.4517 22.9008 14.1041C23.0694 14.5272 23.2498 14.9353 23.4258 15.3374C24.1005 16.8738 24.6828 18.2002 24.498 19.8513Z" fill="#31FF7D"/>
<path d="M22.2847 17.0649C22.2286 17.1244 22.1889 17.2185 22.1745 17.3265C22.1601 17.4345 22.1721 17.5476 22.2078 17.641C22.6458 18.7856 22.583 20.2682 22.0511 21.3302C22.0121 21.4157 21.9943 21.5229 22.0016 21.6296C22.0089 21.7363 22.0406 21.8343 22.0902 21.9031C22.1398 21.9719 22.2035 22.0063 22.268 21.9991C22.3324 21.9919 22.3927 21.9437 22.4364 21.8645C23.1089 20.5229 23.1868 18.6453 22.6312 17.1927C22.5954 17.0996 22.5388 17.0339 22.4738 17.0099C22.4089 16.986 22.3409 17.0058 22.2847 17.0649Z" fill="#31FF7D"/>
</svg>
