<svg width="30" height="30" viewBox="0 0 30 30" fill="none" xmlns="http://www.w3.org/2000/svg">
<g clip-path="url(#clip0_222_757)">
<path fill-rule="evenodd" clip-rule="evenodd" d="M27.0714 21.0001C27.5843 21.0001 28 20.6021 28 20.1112C28 19.6203 27.5843 19.2223 27.0714 19.2223H2.92857C2.41574 19.2223 2 19.6203 2 20.1112C2 20.6021 2.41574 21.0001 2.92857 21.0001H27.0714Z" fill="#31FF7D"/>
<path fill-rule="evenodd" clip-rule="evenodd" d="M8.02956 12.2205C8.1968 11.26 9.13759 10.63 10.1349 10.809L14.8289 11.6515C14.942 11.6718 15.0581 11.6718 15.1712 11.6515L19.8653 10.809C20.8641 10.6297 21.8032 11.2589 21.9706 12.2205L23.3699 20.2573C23.4542 20.7416 23.9326 21.0687 24.4384 20.988C24.9443 20.9073 25.286 20.4493 25.2017 19.9651L23.8025 11.9282C23.4641 9.98467 21.5448 8.69877 19.523 9.06166L15.0097 9.8752L10.4771 9.06166C8.45711 8.69909 6.53593 9.98554 6.19769 11.9282L4.79842 19.9651C4.71411 20.4493 5.05585 20.9073 5.5617 20.988C6.06756 21.0687 6.54599 20.7416 6.6303 20.2573L8.02956 12.2205Z" fill="#31FF7D"/>
<path fill-rule="evenodd" clip-rule="evenodd" d="M23.3572 17.4445C23.87 17.4445 24.2858 17.0466 24.2858 16.5556C24.2858 16.0647 23.87 15.6667 23.3572 15.6667H6.64293C6.13009 15.6667 5.71436 16.0647 5.71436 16.5556C5.71436 17.0466 6.13009 17.4445 6.64293 17.4445H23.3572Z" fill="#31FF7D"/>
</g>
<defs>
<clipPath id="clip0_222_757">
<rect width="26" height="12" fill="white" transform="translate(2 9)"/>
</clipPath>
</defs>
</svg>
