<svg width="30" height="30" viewBox="0 0 30 30" fill="none" xmlns="http://www.w3.org/2000/svg">
<path d="M24.4444 4H5.55556C5.40821 4 5.26691 4.05795 5.16272 4.16109C5.05853 4.26424 5 4.40413 5 4.55C5 4.69587 5.05853 4.83576 5.16272 4.93891C5.26691 5.04205 5.40821 5.1 5.55556 5.1H8.33333V5.65C8.33382 6.08746 8.50957 6.50686 8.82202 6.8162C9.13448 7.12553 9.55812 7.29952 10 7.3H11.6667V10.05C11.6676 10.5844 11.8257 11.107 12.1217 11.554C12.4176 12.001 12.8387 12.3529 13.3333 12.5669V14.45C13.3344 14.7901 13.4418 15.1216 13.6407 15.3989C13.8396 15.6762 14.1204 15.8857 14.4444 15.9987V16.65C14.4444 16.7959 14.503 16.9358 14.6072 17.0389C14.7113 17.1421 14.8527 17.2 15 17.2C15.1473 17.2 15.2887 17.1421 15.3928 17.0389C15.497 16.9358 15.5556 16.7959 15.5556 16.65V15.9987C15.8796 15.8857 16.1604 15.6762 16.3593 15.3989C16.5582 15.1216 16.6656 14.7901 16.6667 14.45V12.5669C17.1613 12.3529 17.5824 12.001 17.8783 11.554C18.1743 11.107 18.3324 10.5844 18.3333 10.05V7.3H20C20.4419 7.29952 20.8655 7.12553 21.178 6.8162C21.4904 6.50686 21.6662 6.08746 21.6667 5.65V5.1H24.4444C24.5918 5.1 24.7331 5.04205 24.8373 4.93891C24.9415 4.83576 25 4.69587 25 4.55C25 4.40413 24.9415 4.26424 24.8373 4.16109C24.7331 4.05795 24.5918 4 24.4444 4ZM15.5556 14.45C15.5556 14.5959 15.497 14.7358 15.3928 14.8389C15.2887 14.9421 15.1473 15 15 15C14.8527 15 14.7113 14.9421 14.6072 14.8389C14.503 14.7358 14.4444 14.5959 14.4444 14.45V12.8H15.5556V14.45ZM17.2222 10.05C17.2217 10.4875 17.046 10.9069 16.7335 11.2162C16.4211 11.5255 15.9974 11.6995 15.5556 11.7H14.4444C14.0026 11.6995 13.5789 11.5255 13.2665 11.2162C12.954 10.9069 12.7783 10.4875 12.7778 10.05V7.3H17.2222V10.05ZM20.5556 5.65C20.5555 5.79584 20.4969 5.93569 20.3927 6.03881C20.2886 6.14194 20.1473 6.19991 20 6.2H10C9.85268 6.19991 9.71143 6.14194 9.60726 6.03881C9.50309 5.93569 9.44453 5.79584 9.44444 5.65V5.1H20.5556V5.65ZM15 18.3C14.8527 18.3 14.7113 18.3579 14.6072 18.4611C14.503 18.5642 14.4444 18.7041 14.4444 18.85V25.45C14.4444 25.5959 14.503 25.7358 14.6072 25.8389C14.7113 25.9421 14.8527 26 15 26C15.1473 26 15.2887 25.9421 15.3928 25.8389C15.497 25.7358 15.5556 25.5959 15.5556 25.45V18.85C15.5556 18.7041 15.497 18.5642 15.3928 18.4611C15.2887 18.3579 15.1473 18.3 15 18.3ZM12.2222 24.9H8.88889C8.74155 24.9 8.60024 24.9579 8.49605 25.0611C8.39187 25.1642 8.33333 25.3041 8.33333 25.45C8.33333 25.5959 8.39187 25.7358 8.49605 25.8389C8.60024 25.9421 8.74155 26 8.88889 26H12.2222C12.3696 26 12.5109 25.9421 12.6151 25.8389C12.7192 25.7358 12.7778 25.5959 12.7778 25.45C12.7778 25.3041 12.7192 25.1642 12.6151 25.0611C12.5109 24.9579 12.3696 24.9 12.2222 24.9ZM11.9737 23.742C12.0506 23.7803 12.1356 23.8002 12.2217 23.8C12.3469 23.8002 12.4685 23.7584 12.5667 23.6816C12.665 23.6047 12.7341 23.4973 12.763 23.3767C12.7918 23.256 12.7786 23.1293 12.7256 23.017C12.6725 22.9047 12.5827 22.8134 12.4707 22.758L10.2485 21.658C10.1832 21.6257 10.1122 21.6065 10.0394 21.6013C9.96663 21.5962 9.89354 21.6053 9.82432 21.6282C9.7551 21.651 9.6911 21.6871 9.63598 21.7344C9.58086 21.7818 9.53569 21.8394 9.50306 21.904C9.47042 21.9686 9.45096 22.0389 9.44579 22.111C9.44061 22.183 9.44982 22.2554 9.47289 22.3239C9.49596 22.3925 9.53244 22.4558 9.58024 22.5104C9.62805 22.565 9.68624 22.6097 9.7515 22.642L11.9737 23.742ZM21.1111 24.9H17.7778C17.6304 24.9 17.4891 24.9579 17.3849 25.0611C17.2808 25.1642 17.2222 25.3041 17.2222 25.45C17.2222 25.5959 17.2808 25.7358 17.3849 25.8389C17.4891 25.9421 17.6304 26 17.7778 26H21.1111C21.2585 26 21.3998 25.9421 21.504 25.8389C21.6081 25.7358 21.6667 25.5959 21.6667 25.45C21.6667 25.3041 21.6081 25.1642 21.504 25.0611C21.3998 24.9579 21.2585 24.9 21.1111 24.9ZM17.7783 23.8C17.8644 23.8002 17.9494 23.7803 18.0263 23.742L20.2485 22.642C20.3138 22.6097 20.372 22.565 20.4198 22.5104C20.4676 22.4558 20.504 22.3925 20.5271 22.3239C20.5502 22.2554 20.5594 22.183 20.5542 22.111C20.549 22.0389 20.5296 21.9686 20.4969 21.904C20.4643 21.8394 20.4191 21.7818 20.364 21.7344C20.3089 21.6871 20.2449 21.651 20.1757 21.6282C20.1065 21.6053 20.0334 21.5962 19.9606 21.6013C19.8878 21.6065 19.8168 21.6257 19.7515 21.658L17.5293 22.758C17.4173 22.8134 17.3275 22.9047 17.2744 23.017C17.2214 23.1293 17.2082 23.256 17.237 23.3767C17.2659 23.4973 17.335 23.6047 17.4333 23.6816C17.5315 23.7584 17.6531 23.8002 17.7783 23.8Z" fill="#31FF7D"/>
</svg>
