<svg width="213" height="213" viewBox="0 0 213 213" fill="none" xmlns="http://www.w3.org/2000/svg">
<path d="M124.296 35.6779C104.814 30.7279 84.9372 42.5507 79.9872 62.0328L74.601 83.2321L67.5345 81.4367C63.7863 80.4843 59.8132 81.06 56.4894 83.037C53.1655 85.014 50.7632 88.2304 49.8108 91.9787L35.4474 148.51C34.495 152.258 35.0707 156.231 37.0477 159.555C39.0247 162.879 42.2411 165.281 45.9894 166.234L130.786 187.779C134.535 188.731 138.508 188.156 141.832 186.179C145.155 184.202 147.558 180.985 148.51 177.237L162.874 120.706C163.826 116.957 163.25 112.984 161.273 109.66C159.296 106.337 156.08 103.934 152.332 102.982L145.265 101.186L150.651 79.9871C155.601 60.505 143.779 40.6279 124.296 35.6779ZM94.1201 65.6237C97.0897 53.9358 109.018 46.8411 120.706 49.8107C132.393 52.7804 139.488 64.7084 136.519 76.3963L131.132 97.5955L88.7338 86.823L94.1201 65.6237ZM103.133 148.579L99.0452 164.669L84.9123 161.078L89.0005 144.988C86.8895 142.945 85.447 140.311 84.8633 137.432C84.2795 134.553 84.582 131.565 85.7308 128.862C86.8796 126.158 88.8207 123.867 91.2982 122.289C93.7758 120.711 96.6734 119.921 99.609 120.023C101.791 120.091 103.931 120.648 105.869 121.653C107.808 122.658 109.496 124.085 110.809 125.83C112.122 127.574 113.027 129.591 113.457 131.732C113.887 133.872 113.831 136.082 113.293 138.199C112.661 140.669 111.389 142.929 109.606 144.752C107.822 146.574 105.59 147.894 103.133 148.579Z" fill="white" fill-opacity="0.05"/>
</svg>
