<svg width="250" height="250" viewBox="0 0 250 250" fill="none" xmlns="http://www.w3.org/2000/svg">
<path d="M88.73 57.0685C70.0095 67.0599 62.9078 90.4189 72.8992 109.139L83.7713 129.51L76.9811 133.134C73.3794 135.056 70.6888 138.331 69.5013 142.237C68.3137 146.143 68.7265 150.36 70.6488 153.962L99.6409 208.284C101.563 211.885 104.838 214.576 108.744 215.763C112.65 216.951 116.868 216.538 120.469 214.616L201.951 171.128C205.553 169.205 208.244 165.931 209.431 162.025C210.619 158.119 210.206 153.901 208.284 150.299L179.291 95.9781C177.369 92.3763 174.095 89.6858 170.189 88.4982C166.283 87.3107 162.065 87.7235 158.463 89.6457L151.673 93.2698L140.801 72.8993C130.81 54.1788 107.451 47.0771 88.73 57.0685ZM86.4796 101.891C80.4855 90.6604 84.7471 76.6429 95.978 70.6488C107.209 64.6547 121.226 68.9163 127.221 80.1473L138.093 100.518L97.3516 122.262L86.4796 101.891ZM152.501 160.206L160.752 175.667L147.172 182.915L138.92 167.454C135.821 167.362 132.822 166.332 130.319 164.501C127.817 162.67 125.928 160.124 124.902 157.197C123.876 154.271 123.761 151.103 124.572 148.11C125.383 145.117 127.082 142.44 129.445 140.432C131.196 138.933 133.261 137.847 135.488 137.253C137.716 136.658 140.048 136.572 142.313 136.999C144.578 137.426 146.718 138.356 148.576 139.721C150.434 141.085 151.961 142.849 153.047 144.883C154.31 147.26 154.925 149.928 154.829 152.618C154.733 155.308 153.93 157.925 152.501 160.206Z" fill="white" fill-opacity="0.05"/>
</svg>
