<svg width="30" height="30" viewBox="0 0 30 30" fill="none" xmlns="http://www.w3.org/2000/svg">
<path d="M15.001 20C14.9353 20.0001 14.8702 19.9871 14.8095 19.962C14.7488 19.9368 14.6937 19.8999 14.6473 19.8533L10.1467 15.3516C10.1002 15.3052 10.0633 15.25 10.0381 15.1893C10.013 15.1286 10 15.0635 10 14.9977C10 14.932 10.013 14.8669 10.0381 14.8062C10.0633 14.7454 10.1002 14.6903 10.1467 14.6438L14.6458 10.1406C14.7414 10.0503 14.868 10 14.9995 10C15.131 10 15.2576 10.0503 15.3532 10.1406L19.8533 14.6423C19.8998 14.6888 19.9367 14.7439 19.9619 14.8047C19.987 14.8654 20 14.9305 20 14.9962C20 15.062 19.987 15.1271 19.9619 15.1878C19.9367 15.2485 19.8998 15.3037 19.8533 15.3501L15.3547 19.8533C15.3083 19.8999 15.2532 19.9368 15.1925 19.962C15.1318 19.9872 15.0667 20.0001 15.001 20ZM11.2083 14.9977L15.0015 18.7916L18.7932 14.9962L15.0005 11.2024L11.2083 14.9977Z" fill="#31FF7D"/>
<path d="M15.0005 10.6699C14.7354 10.6699 14.4812 10.6128 14.2937 10.5113C14.1063 10.4097 14.001 10.2719 14.001 10.1283L14 2.54167C14 2.39801 14.1053 2.26023 14.2927 2.15865C14.4802 2.05707 14.7344 2 14.9995 2C15.2646 2 15.5188 2.05707 15.7063 2.15865C15.8937 2.26023 15.999 2.39801 15.999 2.54167L16 10.1283C16 10.2719 15.8947 10.4097 15.7073 10.5113C15.5198 10.6128 15.2656 10.6699 15.0005 10.6699ZM14.9995 28C14.7344 28 14.4802 27.9429 14.2927 27.8414C14.1053 27.7398 14 27.602 14 27.4583L14.001 19.8717C14.001 19.7281 14.1063 19.5903 14.2937 19.4887C14.4812 19.3872 14.7354 19.3301 15.0005 19.3301C15.2656 19.3301 15.5198 19.3872 15.7073 19.4887C15.8947 19.5903 16 19.7281 16 19.8717L15.999 27.4583C15.999 27.602 15.8937 27.7398 15.7063 27.8414C15.5188 27.9429 15.2646 28 14.9995 28Z" fill="#31FF7D"/>
<path d="M15.4402 10C15.3293 10 15.2209 9.96751 15.1288 9.90664C15.0366 9.84578 14.9649 9.7593 14.9228 9.65818L12.031 2.73356C11.984 2.60026 11.9906 2.45432 12.0494 2.32565C12.1082 2.19699 12.2146 2.09537 12.347 2.04163C12.4794 1.9879 12.6276 1.98612 12.7612 2.03666C12.8949 2.0872 13.0038 2.18624 13.0658 2.31345L15.9576 9.23807C15.9927 9.32187 16.0064 9.41291 15.9973 9.50314C15.9882 9.59336 15.9567 9.67999 15.9055 9.75534C15.8543 9.83069 15.7851 9.89244 15.7039 9.93511C15.6228 9.97779 15.5322 10.0001 15.4402 10Z" fill="#31FF7D"/>
<path d="M14.5581 9.87345C14.4665 9.87339 14.3762 9.85141 14.2954 9.80944C14.2146 9.76747 14.1456 9.70681 14.0947 9.63281C14.0437 9.55881 14.0123 9.47376 14.0032 9.38516C13.9941 9.29656 14.0076 9.20716 14.0425 9.12484L16.9268 2.31633C16.9869 2.18894 17.0955 2.08911 17.2297 2.03774C17.364 1.98638 17.5135 1.98748 17.6469 2.0408C17.7803 2.09412 17.8873 2.19553 17.9455 2.32379C18.0037 2.45205 18.0085 2.59721 17.959 2.72885L15.0748 9.53736C14.9855 9.7466 14.7774 9.87345 14.5581 9.87345ZM17.4423 28C17.3318 28 17.2237 27.9682 17.1318 27.9084C17.0399 27.8487 16.9683 27.7638 16.9262 27.6645L14.042 20.8565C13.9857 20.7235 13.986 20.5742 14.0429 20.4415C14.0999 20.3088 14.2087 20.2034 14.3455 20.1485C14.4824 20.0942 14.6358 20.0947 14.7723 20.1499C14.9087 20.2052 15.0171 20.3107 15.0737 20.4434L17.9579 27.2514C17.9928 27.3337 18.0063 27.4231 17.9972 27.5117C17.9882 27.6003 17.9567 27.6854 17.9058 27.7594C17.8548 27.8334 17.7859 27.894 17.705 27.936C17.6242 27.978 17.534 27.9999 17.4423 28Z" fill="#31FF7D"/>
<path d="M12.2 28C12.111 27.9999 12.0234 27.9772 11.945 27.9339C11.8665 27.8905 11.7996 27.8279 11.7501 27.7514C11.7006 27.675 11.6701 27.5871 11.6613 27.4956C11.6525 27.404 11.6656 27.3117 11.6995 27.2266L14.4995 20.1936C14.5585 20.063 14.664 19.9609 14.7939 19.9086C14.9239 19.8562 15.0684 19.8577 15.1973 19.9126C15.3263 19.9676 15.4298 20.0718 15.4864 20.2036C15.5429 20.3354 15.5482 20.4846 15.5011 20.6203L12.7011 27.6534C12.6602 27.756 12.5907 27.8437 12.5015 27.9054C12.4123 27.9671 12.3074 28 12.2 28ZM27.4583 15.12H19.872C19.7283 15.12 19.5905 15.061 19.4889 14.956C19.3873 14.851 19.3303 14.7085 19.3303 14.56C19.3303 14.4115 19.3873 14.269 19.4889 14.164C19.5905 14.059 19.7283 14 19.872 14H27.4583C27.602 14 27.7398 14.059 27.8413 14.164C27.9429 14.269 28 14.4115 28 14.56C28 14.7085 27.9429 14.851 27.8413 14.956C27.7398 15.061 27.602 15.12 27.4583 15.12ZM10.128 15.12H2.54169C2.39802 15.12 2.26024 15.061 2.15866 14.956C2.05707 14.851 2 14.7085 2 14.56C2 14.4115 2.05707 14.269 2.15866 14.164C2.26024 14.059 2.39802 14 2.54169 14H10.128C10.2717 14 10.4095 14.059 10.5111 14.164C10.6127 14.269 10.6697 14.4115 10.6697 14.56C10.6697 14.7085 10.6127 14.851 10.5111 14.956C10.4095 15.061 10.2717 15.12 10.128 15.12Z" fill="#31FF7D"/>
<path d="M20.5512 16C20.4236 16.0001 20.2999 15.9553 20.2013 15.8732C20.1027 15.791 20.0352 15.6767 20.0105 15.5497C19.9857 15.4226 20.0052 15.2908 20.0655 15.1768C20.1259 15.0627 20.2234 14.9734 20.3414 14.9242L27.2568 12.0351C27.3907 11.9845 27.5387 11.9888 27.6696 12.0468C27.8005 12.1049 27.9041 12.2123 27.9585 12.3463C28.0129 12.4804 28.0139 12.6307 27.9612 12.7655C27.9086 12.9003 27.8065 13.009 27.6764 13.0689L20.7609 15.9581C20.6944 15.9858 20.6231 16 20.5512 16Z" fill="#31FF7D"/>
<path d="M27.4578 18C27.389 18 27.3191 17.9866 27.2514 17.9582L20.4481 15.0741C20.3152 15.0177 20.2095 14.9093 20.1542 14.7727C20.099 14.636 20.0987 14.4824 20.1534 14.3455C20.2081 14.2087 20.3134 14.0998 20.4461 14.0429C20.5788 13.986 20.7279 13.9857 20.8608 14.0421L27.6641 16.9261C27.7802 16.9753 27.8762 17.0644 27.9355 17.1782C27.9949 17.2921 28.0141 17.4237 27.9897 17.5505C27.9653 17.6773 27.899 17.7914 27.8019 17.8734C27.7049 17.9554 27.5833 18.0001 27.4578 18ZM2.54223 18C2.41672 18.0001 2.29507 17.9554 2.19805 17.8734C2.10104 17.7914 2.03468 17.6773 2.01031 17.5505C1.98594 17.4237 2.00508 17.2921 2.06446 17.1782C2.12383 17.0644 2.21976 16.9753 2.33585 16.9261L9.13918 14.0421C9.27206 13.9857 9.42124 13.986 9.55391 14.0429C9.68658 14.0998 9.79186 14.2087 9.84659 14.3455C9.90133 14.4824 9.90103 14.636 9.84577 14.7727C9.79051 14.9093 9.68481 15.0177 9.55193 15.0741L2.7486 17.9582C2.6831 17.9858 2.613 18 2.54223 18Z" fill="#31FF7D"/>
<path d="M9.45035 16C9.3804 16 9.30991 15.9866 9.24107 15.9581L2.32371 13.0689C2.19357 13.009 2.09141 12.9003 2.03877 12.7655C1.98613 12.6307 1.98713 12.4804 2.04155 12.3463C2.09597 12.2123 2.19956 12.1049 2.33048 12.0468C2.46141 11.9888 2.60944 11.9845 2.74338 12.0351L9.66073 14.9242C9.77825 14.9739 9.87519 15.0633 9.93511 15.1773C9.99503 15.2913 10.0142 15.4228 9.98945 15.5495C9.96467 15.6762 9.89744 15.7903 9.79917 15.8724C9.7009 15.9545 9.57765 15.9996 9.45035 16Z" fill="#31FF7D"/>
<path d="M9.52701 13.2227C9.45282 13.2228 9.37941 13.2075 9.31143 13.1778L3.14618 10.4987C3.07907 10.4717 3.01806 10.4315 2.96675 10.3805C2.91543 10.3295 2.87485 10.2687 2.8474 10.2018C2.81994 10.1349 2.80618 10.0631 2.80691 9.99076C2.80765 9.91842 2.82286 9.84696 2.85167 9.7806C2.88047 9.71423 2.92228 9.65431 2.97462 9.60437C3.02696 9.55443 3.08877 9.51547 3.15641 9.48981C3.22405 9.46415 3.29615 9.4523 3.36844 9.45496C3.44074 9.45761 3.51177 9.47472 3.57735 9.50528L9.4046 12.037L10.7203 10.7213C10.7706 10.671 10.8303 10.6311 10.896 10.6039C10.9617 10.5767 11.0321 10.5627 11.1033 10.5627C11.1744 10.5627 11.2448 10.5767 11.3105 10.6039C11.3762 10.6311 11.4359 10.671 11.4862 10.7213C11.5365 10.7716 11.5764 10.8313 11.6036 10.897C11.6308 10.9627 11.6448 11.0332 11.6448 11.1043C11.6448 11.1754 11.6308 11.2458 11.6036 11.3115C11.5764 11.3772 11.5365 11.4369 11.4862 11.4872L9.90997 13.064C9.80841 13.1656 9.67066 13.2227 9.52701 13.2227Z" fill="#31FF7D"/>
<path d="M7.29213 10.2366C7.20058 10.2366 7.11054 10.2133 7.0305 10.1689L4.125 8.56282C4.06195 8.52883 4.00626 8.48268 3.96116 8.42703C3.91607 8.37138 3.88245 8.30733 3.86227 8.2386C3.84209 8.16988 3.83574 8.09783 3.8436 8.02663C3.85145 7.95543 3.87334 7.8865 3.90801 7.82382C3.94268 7.76114 3.98944 7.70596 4.04558 7.66147C4.10172 7.61698 4.16613 7.58407 4.23507 7.56464C4.30402 7.54521 4.37613 7.53965 4.44724 7.54828C4.51835 7.5569 4.58704 7.57955 4.64934 7.6149L7.19788 9.02378L8.11113 8.11053C8.16142 8.06024 8.22112 8.02034 8.28683 7.99312C8.35254 7.96591 8.42296 7.9519 8.49409 7.9519C8.56521 7.9519 8.63563 7.96591 8.70134 7.99312C8.76705 8.02034 8.82675 8.06024 8.87704 8.11053C8.92733 8.16082 8.96723 8.22052 8.99444 8.28623C9.02166 8.35194 9.03567 8.42236 9.03567 8.49348C9.03567 8.56461 9.02166 8.63503 8.99444 8.70074C8.96723 8.76645 8.92733 8.82615 8.87704 8.87644L7.67563 10.0779C7.5738 10.1794 7.43592 10.2364 7.29213 10.2366ZM11.1044 11.6454C10.9973 11.6454 10.8926 11.6136 10.8035 11.5541C10.7144 11.4946 10.645 11.41 10.6041 11.311C10.5631 11.2121 10.5523 11.1032 10.5732 10.9981C10.5941 10.8931 10.6457 10.7966 10.7214 10.7208L12.0371 9.40457L9.50538 3.57786C9.4482 3.44612 9.4457 3.29707 9.49842 3.16349C9.55114 3.02991 9.65477 2.92274 9.7865 2.86557C9.91824 2.80839 10.0673 2.80589 10.2009 2.85861C10.3345 2.91133 10.4416 3.01496 10.4988 3.14669L13.1773 9.31194C13.2207 9.41154 13.2331 9.5219 13.213 9.62866C13.1928 9.73541 13.1409 9.83361 13.0641 9.91048L11.4879 11.4873C11.386 11.5886 11.2481 11.6455 11.1044 11.6454Z" fill="#31FF7D"/>
<path d="M8.49345 9.03509C8.38622 9.03533 8.28133 9.0037 8.19211 8.94422C8.10289 8.88474 8.03334 8.8001 7.99231 8.70103C7.95128 8.60196 7.94061 8.49293 7.96165 8.38779C7.98269 8.28264 8.03449 8.18612 8.11049 8.11046L9.0232 7.19776L7.61378 4.64921C7.57843 4.58692 7.55578 4.51822 7.54716 4.44712C7.53853 4.37601 7.54409 4.30389 7.56352 4.23495C7.58295 4.16601 7.61586 4.1016 7.66035 4.04546C7.70484 3.98932 7.76002 3.94256 7.8227 3.90789C7.88538 3.87322 7.95431 3.85132 8.02551 3.84347C8.09671 3.83562 8.16876 3.84197 8.23748 3.86215C8.30621 3.88233 8.37026 3.91594 8.42591 3.96104C8.48156 4.00614 8.52771 4.06183 8.5617 4.12488L10.1683 7.03038C10.2252 7.13323 10.247 7.25178 10.2306 7.36815C10.2142 7.48453 10.1604 7.5924 10.0773 7.67551L8.87641 8.87638C8.82617 8.92675 8.76648 8.96671 8.70076 8.99394C8.63504 9.02118 8.56459 9.03516 8.49345 9.03509ZM8.77836 11.1714C8.67113 11.1717 8.56625 11.14 8.47703 11.0806C8.3878 11.0211 8.31826 10.9364 8.27723 10.8374C8.2362 10.7383 8.22552 10.6293 8.24656 10.5241C8.2676 10.419 8.31941 10.3224 8.39541 10.2468L10.2463 8.39592C10.2966 8.34563 10.3563 8.30574 10.422 8.27852C10.4877 8.2513 10.5581 8.2373 10.6292 8.2373C10.7004 8.2373 10.7708 8.2513 10.8365 8.27852C10.9022 8.30574 10.9619 8.34563 11.0122 8.39592C11.0625 8.44621 11.1024 8.50592 11.1296 8.57163C11.1568 8.63733 11.1708 8.70776 11.1708 8.77888C11.1708 8.85 11.1568 8.92043 11.1296 8.98614C11.1024 9.05184 11.0625 9.11155 11.0122 9.16184L9.16132 11.0127C9.11109 11.0631 9.0514 11.103 8.98568 11.1303C8.91996 11.1575 8.8495 11.1715 8.77836 11.1714Z" fill="#31FF7D"/>
<path d="M8.35655 8.8987C8.28541 8.89877 8.21495 8.88479 8.14923 8.85756C8.08351 8.83032 8.02382 8.79037 7.97359 8.73999L5.64984 6.41624C5.59955 6.36595 5.55965 6.30625 5.53244 6.24054C5.50522 6.17483 5.49121 6.10441 5.49121 6.03328C5.49121 5.96216 5.50522 5.89174 5.53244 5.82603C5.55965 5.76032 5.59955 5.70062 5.64984 5.65033C5.70013 5.60003 5.75983 5.56014 5.82554 5.53293C5.89125 5.50571 5.96167 5.4917 6.0328 5.4917C6.10392 5.4917 6.17434 5.50571 6.24005 5.53293C6.30576 5.56014 6.36546 5.60003 6.41575 5.65033L8.7395 7.97408C8.8155 8.04973 8.86731 8.14625 8.88835 8.2514C8.90939 8.35654 8.89871 8.46557 8.85768 8.56464C8.81665 8.66371 8.74711 8.74836 8.65788 8.80783C8.56866 8.86731 8.46378 8.89894 8.35655 8.8987ZM26.6367 20.5397C26.5627 20.5398 26.4894 20.5245 26.4217 20.4947L20.595 17.9629L19.2793 19.2792C19.1777 19.3808 19.0399 19.4378 18.8963 19.4378C18.7527 19.4378 18.6149 19.3808 18.5133 19.2792C18.4118 19.1776 18.3547 19.0399 18.3547 18.8962C18.3547 18.7526 18.4118 18.6149 18.5133 18.5133L20.0896 16.936C20.1664 16.8591 20.2646 16.8072 20.3713 16.7869C20.4781 16.7667 20.5885 16.7789 20.6881 16.8222L26.8528 19.5007C26.9673 19.5502 27.0613 19.6377 27.1187 19.7484C27.1762 19.8591 27.1937 19.9862 27.1683 20.1083C27.1429 20.2304 27.0762 20.34 26.9793 20.4186C26.8825 20.4972 26.7614 20.54 26.6367 20.5397Z" fill="#31FF7D"/>
<path d="M25.6123 22.4533C25.5209 22.4534 25.431 22.4301 25.3512 22.3856L22.8021 20.9762L21.8894 21.8895C21.8391 21.9397 21.7794 21.9796 21.7137 22.0069C21.648 22.0341 21.5776 22.0481 21.5065 22.0481C21.4353 22.0481 21.3649 22.0341 21.2992 22.0069C21.2335 21.9796 21.1738 21.9397 21.1235 21.8895C21.0732 21.8392 21.0333 21.7795 21.0061 21.7137C20.9789 21.648 20.9649 21.5776 20.9649 21.5065C20.9649 21.4354 20.9789 21.3649 21.0061 21.2992C21.0333 21.2335 21.0732 21.1738 21.1235 21.1235L22.3244 19.9221C22.4074 19.8391 22.5152 19.7854 22.6315 19.769C22.7477 19.7526 22.8662 19.7744 22.969 19.8311L25.8745 21.4377C25.9795 21.4958 26.0623 21.5872 26.1098 21.6975C26.1573 21.8078 26.1667 21.9308 26.1367 22.047C26.1067 22.1633 26.0389 22.2663 25.944 22.3399C25.8491 22.4134 25.7324 22.4533 25.6123 22.4533ZM19.9985 27.1788C19.8928 27.1789 19.7894 27.1481 19.7011 27.0901C19.6127 27.0322 19.5433 26.9497 19.5012 26.8527L16.8216 20.6891C16.7782 20.5895 16.7658 20.4791 16.7861 20.3723C16.8064 20.2655 16.8584 20.1673 16.9353 20.0906L18.5127 18.5132C18.6142 18.4117 18.752 18.3546 18.8956 18.3546C19.0393 18.3546 19.177 18.4117 19.2786 18.5132C19.3802 18.6148 19.4372 18.7526 19.4372 18.8962C19.4372 19.0398 19.3802 19.1776 19.2786 19.2792L17.9618 20.5959L20.4946 26.4216C20.5307 26.5039 20.5456 26.5939 20.5381 26.6835C20.5305 26.7731 20.5008 26.8593 20.4515 26.9345C20.4023 27.0097 20.3351 27.0714 20.256 27.1141C20.1768 27.1567 20.0883 27.179 19.9985 27.1788Z" fill="#31FF7D"/>
<path d="M21.9122 26.155C21.721 26.155 21.5369 26.0537 21.4377 25.8755L19.8312 22.9705C19.7743 22.8677 19.7524 22.7491 19.7688 22.6328C19.7852 22.5164 19.8391 22.4085 19.9222 22.3254L21.1236 21.1235C21.1739 21.0732 21.2336 21.0333 21.2993 21.0061C21.365 20.9788 21.4354 20.9648 21.5065 20.9648C21.5777 20.9648 21.6481 20.9788 21.7138 21.0061C21.7795 21.0333 21.8392 21.0732 21.8895 21.1235C21.9398 21.1737 21.9797 21.2334 22.0069 21.2992C22.0341 21.3649 22.0481 21.4353 22.0481 21.5064C22.0481 21.5775 22.0341 21.648 22.0069 21.7137C21.9797 21.7794 21.9398 21.8391 21.8895 21.8894L20.9762 22.8032L22.3857 25.3512C22.4312 25.4336 22.4546 25.5265 22.4533 25.6206C22.452 25.7148 22.4262 25.807 22.3784 25.8882C22.3306 25.9694 22.2625 26.0367 22.1807 26.0834C22.099 26.1302 22.0064 26.1549 21.9122 26.155ZM19.3702 21.7632C19.263 21.7634 19.1581 21.7318 19.0689 21.6723C18.9796 21.6128 18.9101 21.5282 18.8691 21.4291C18.828 21.33 18.8174 21.221 18.8384 21.1159C18.8594 21.0107 18.9112 20.9142 18.9872 20.8385L20.8376 18.9871C20.8879 18.9368 20.9476 18.8969 21.0133 18.8697C21.079 18.8425 21.1494 18.8285 21.2205 18.8285C21.2917 18.8285 21.3621 18.8425 21.4278 18.8697C21.4935 18.8969 21.5532 18.9368 21.6035 18.9871C21.6538 19.0374 21.6937 19.0971 21.7209 19.1628C21.7481 19.2285 21.7621 19.299 21.7621 19.3701C21.7621 19.4412 21.7481 19.5116 21.7209 19.5773C21.6937 19.643 21.6538 19.7027 21.6035 19.753L19.7532 21.6045C19.703 21.6549 19.6433 21.6949 19.5776 21.7222C19.5118 21.7494 19.4414 21.7634 19.3702 21.7632Z" fill="#31FF7D"/>
<path d="M23.9674 24.5089C23.8963 24.509 23.8258 24.495 23.7601 24.4677C23.6944 24.4405 23.6347 24.4005 23.5845 24.3502L21.2602 22.027C21.1586 21.9254 21.1016 21.7876 21.1016 21.644C21.1016 21.5004 21.1586 21.3626 21.2602 21.261C21.3618 21.1595 21.4995 21.1024 21.6431 21.1024C21.7868 21.1024 21.9245 21.1595 22.0261 21.261L24.3504 23.5843C24.4264 23.6599 24.4782 23.7564 24.4992 23.8616C24.5203 23.9667 24.5096 24.0757 24.4686 24.1748C24.4275 24.2739 24.358 24.3585 24.2688 24.418C24.1796 24.4775 24.0747 24.5091 23.9674 24.5089Z" fill="#31FF7D"/>
<path d="M18.8952 11.6455C18.824 11.6455 18.7536 11.6316 18.6879 11.6043C18.6222 11.5771 18.5625 11.5371 18.5122 11.4868L16.9349 9.90997C16.8581 9.83312 16.8062 9.73495 16.7859 9.62821C16.7656 9.52147 16.7779 9.4111 16.8211 9.31143L19.4997 3.14618C19.5267 3.07907 19.5669 3.01806 19.6179 2.96675C19.6689 2.91543 19.7297 2.87485 19.7966 2.8474C19.8635 2.81994 19.9353 2.80618 20.0076 2.80691C20.08 2.80765 20.1514 2.82286 20.2178 2.85167C20.2842 2.88047 20.3441 2.92228 20.394 2.97462C20.444 3.02696 20.4829 3.08877 20.5086 3.15641C20.5342 3.22405 20.5461 3.29615 20.5434 3.36844C20.5408 3.44074 20.5237 3.51177 20.4931 3.57735L17.9619 9.4046L19.2787 10.7208C19.3547 10.7965 19.4065 10.8931 19.4276 10.9983C19.4486 11.1035 19.4379 11.2126 19.3968 11.3117C19.3557 11.4108 19.286 11.4954 19.1967 11.5548C19.1074 11.6143 19.0025 11.6458 18.8952 11.6455Z" fill="#31FF7D"/>
<path d="M21.5066 9.03464C21.4354 9.03471 21.365 9.02073 21.2992 8.99349C21.2335 8.96625 21.1738 8.9263 21.1236 8.87593L19.9222 7.67505C19.8391 7.59195 19.7853 7.48407 19.7688 7.3677C19.7524 7.25133 19.7743 7.13278 19.8312 7.02993L21.4378 4.12443C21.5082 4.00038 21.6247 3.9091 21.7619 3.87041C21.8992 3.83172 22.0462 3.84874 22.171 3.91778C22.2959 3.98682 22.3884 4.1023 22.4286 4.23916C22.4688 4.37602 22.4534 4.5232 22.3857 4.64876L20.9763 7.1973L21.8895 8.11001C21.9655 8.18566 22.0173 8.28219 22.0384 8.38733C22.0594 8.49248 22.0487 8.60151 22.0077 8.70058C21.9667 8.79965 21.8971 8.88429 21.8079 8.94377C21.7187 9.00325 21.6138 9.03487 21.5066 9.03464ZM20.4731 13.2223C20.3294 13.2222 20.1917 13.1651 20.0901 13.0636L18.5139 11.4873C18.4636 11.437 18.4237 11.3773 18.3965 11.3116C18.3692 11.2459 18.3552 11.1755 18.3552 11.1043C18.3552 11.0332 18.3692 10.9628 18.3965 10.8971C18.4237 10.8314 18.4636 10.7717 18.5139 10.7214C18.5641 10.6711 18.6238 10.6312 18.6896 10.604C18.7553 10.5768 18.8257 10.5628 18.8968 10.5628C18.9679 10.5628 19.0384 10.5768 19.1041 10.604C19.1698 10.6312 19.2295 10.6711 19.2798 10.7214L20.5955 12.0366L26.4222 9.50534C26.4874 9.47677 26.5576 9.46137 26.6287 9.46004C26.6999 9.45872 26.7706 9.47149 26.8369 9.49762C26.9031 9.52375 26.9635 9.56273 27.0145 9.6123C27.0656 9.66188 27.1064 9.72107 27.1345 9.78647C27.1629 9.85168 27.1782 9.92186 27.1794 9.99299C27.1807 10.0641 27.1679 10.1348 27.1418 10.201C27.1157 10.2671 27.0767 10.3275 27.0272 10.3786C26.9778 10.4297 26.9187 10.4705 26.8534 10.4988L20.6886 13.1773C20.6207 13.207 20.5473 13.2223 20.4731 13.2223Z" fill="#31FF7D"/>
<path d="M22.7075 10.2367C22.5639 10.2366 22.4261 10.1796 22.3246 10.078L21.1237 8.87655C21.0734 8.82626 21.0334 8.76655 21.0062 8.70082C20.9789 8.6351 20.9649 8.56466 20.9649 8.49351C20.9648 8.42236 20.9788 8.35191 21.006 8.28617C21.0332 8.22043 21.0731 8.16069 21.1234 8.11036C21.1737 8.06003 21.2334 8.02011 21.2991 7.99286C21.3649 7.96561 21.4353 7.95157 21.5064 7.95154C21.5776 7.95152 21.648 7.96551 21.7138 7.99271C21.7795 8.01991 21.8393 8.0598 21.8896 8.11009L22.8023 9.02334L25.3514 7.61392C25.4136 7.57957 25.482 7.5578 25.5527 7.54988C25.6233 7.54196 25.6948 7.54803 25.7632 7.56775C25.8315 7.58746 25.8952 7.62044 25.9508 7.6648C26.0063 7.70915 26.0526 7.76401 26.087 7.82626C26.1213 7.8885 26.1431 7.9569 26.151 8.02755C26.1589 8.0982 26.1529 8.16972 26.1331 8.23802C26.1134 8.30633 26.0805 8.37008 26.0361 8.42564C25.9917 8.4812 25.9369 8.52748 25.8746 8.56184L22.9691 10.1684C22.8892 10.2133 22.7991 10.2368 22.7075 10.2367ZM21.2206 11.171C21.1495 11.1711 21.079 11.1571 21.0133 11.1299C20.9476 11.1027 20.8879 11.0627 20.8377 11.0123L18.9863 9.16146C18.936 9.11117 18.8961 9.05147 18.8689 8.98576C18.8416 8.92005 18.8276 8.84963 18.8276 8.77851C18.8276 8.70738 18.8416 8.63696 18.8689 8.57125C18.8961 8.50554 18.936 8.44584 18.9863 8.39555C19.0366 8.34526 19.0963 8.30536 19.162 8.27815C19.2277 8.25093 19.2981 8.23692 19.3692 8.23692C19.4403 8.23692 19.5108 8.25093 19.5765 8.27815C19.6422 8.30536 19.7019 8.34526 19.7522 8.39555L21.6036 10.2464C21.6796 10.3221 21.7314 10.4186 21.7524 10.5237C21.7735 10.6289 21.7628 10.7379 21.7218 10.837C21.6807 10.9361 21.6112 11.0207 21.522 11.0802C21.4328 11.1397 21.3279 11.1713 21.2206 11.171Z" fill="#31FF7D"/>
<path d="M21.6432 8.89809C21.5359 8.89833 21.431 8.8667 21.3418 8.80722C21.2526 8.74775 21.1831 8.6631 21.142 8.56403C21.101 8.46496 21.0903 8.35593 21.1114 8.25079C21.1324 8.14564 21.1842 8.04912 21.2602 7.97347L23.5845 5.64972C23.6348 5.59942 23.6945 5.55953 23.7602 5.53231C23.8259 5.5051 23.8963 5.49109 23.9675 5.49109C24.0386 5.49109 24.109 5.5051 24.1747 5.53231C24.2404 5.55953 24.3001 5.59942 24.3504 5.64972C24.4007 5.70001 24.4406 5.75971 24.4678 5.82542C24.495 5.89113 24.509 5.96155 24.509 6.03267C24.509 6.1038 24.495 6.17422 24.4678 6.23993C24.4406 6.30564 24.4007 6.36534 24.3504 6.41563L22.0261 8.73938C21.9759 8.78971 21.9162 8.82963 21.8504 8.85686C21.7847 8.88409 21.7143 8.8981 21.6432 8.89809ZM10.0017 27.1788C9.91184 27.1788 9.82344 27.1564 9.74441 27.1137C9.66538 27.071 9.59821 27.0093 9.54895 26.9342C9.49968 26.8591 9.46987 26.7729 9.46219 26.6834C9.45451 26.5939 9.46921 26.5039 9.50495 26.4215L12.0362 20.5959L10.7215 19.2791C10.62 19.1775 10.5629 19.0397 10.563 18.896C10.563 18.7523 10.6202 18.6145 10.7218 18.5129C10.8234 18.4114 10.9613 18.3543 11.105 18.3544C11.2486 18.3544 11.3864 18.4116 11.488 18.5132L13.0642 20.0905C13.141 20.1675 13.1928 20.2657 13.213 20.3724C13.2331 20.4791 13.2208 20.5895 13.1775 20.6891L10.4989 26.8533C10.4568 26.9501 10.3873 27.0326 10.299 27.0904C10.2106 27.1482 10.1073 27.179 10.0017 27.1788Z" fill="#31FF7D"/>
<path d="M8.08732 26.1551C7.99313 26.155 7.9006 26.1304 7.81885 26.0836C7.7371 26.0368 7.66897 25.9695 7.62117 25.8884C7.57337 25.8072 7.54756 25.715 7.54628 25.6208C7.54501 25.5266 7.56832 25.4337 7.61391 25.3513L9.02332 22.8033L8.11007 21.8895C8.00851 21.7879 7.95148 21.6501 7.95153 21.5064C7.95158 21.3627 8.00871 21.2249 8.11034 21.1233C8.21198 21.0218 8.34981 20.9647 8.49349 20.9648C8.63718 20.9648 8.77497 21.022 8.87653 21.1236L10.0774 22.3256C10.1604 22.4087 10.2141 22.5166 10.2305 22.633C10.2468 22.7494 10.2248 22.8679 10.1679 22.9707L8.56128 25.8756C8.51454 25.9604 8.4459 26.031 8.36252 26.0802C8.27915 26.1294 8.18411 26.1553 8.08732 26.1551ZM3.36237 20.5397C3.23758 20.5402 3.11646 20.4975 3.01952 20.419C2.92257 20.3404 2.85576 20.2307 2.83039 20.1086C2.80502 19.9864 2.82266 19.8592 2.88032 19.7485C2.93798 19.6379 3.03211 19.5505 3.14678 19.5013L9.31149 16.8228C9.41119 16.7797 9.52152 16.7675 9.62823 16.7877C9.73493 16.808 9.8331 16.8598 9.91003 16.9365L11.4868 18.5139C11.5371 18.5641 11.577 18.6239 11.6042 18.6896C11.6314 18.7553 11.6455 18.8257 11.6455 18.8968C11.6455 18.9679 11.6314 19.0384 11.6042 19.1041C11.577 19.1698 11.5371 19.2295 11.4868 19.2798C11.4365 19.3301 11.3768 19.37 11.3111 19.3972C11.2454 19.4244 11.175 19.4384 11.1039 19.4384C11.0327 19.4384 10.9623 19.4244 10.8966 19.3972C10.8309 19.37 10.7712 19.3301 10.7209 19.2798L9.40466 17.963L3.57795 20.4947C3.50753 20.5251 3.43387 20.5397 3.36237 20.5397Z" fill="#31FF7D"/>
<path d="M4.38728 22.4534C4.26739 22.453 4.151 22.4129 4.05631 22.3394C3.96163 22.2659 3.89398 22.163 3.86396 22.0469C3.83393 21.9309 3.84323 21.8081 3.89038 21.6979C3.93753 21.5877 4.01989 21.4962 4.12457 21.4377L7.03007 19.8312C7.13287 19.7741 7.25147 19.7521 7.36788 19.7686C7.4843 19.785 7.59219 19.8389 7.67519 19.9222L8.87607 21.1236C8.92636 21.1739 8.96625 21.2336 8.99347 21.2993C9.02069 21.365 9.0347 21.4354 9.0347 21.5065C9.0347 21.5777 9.02069 21.6481 8.99347 21.7138C8.96625 21.7795 8.92636 21.8392 8.87607 21.8895C8.82578 21.9398 8.76608 21.9797 8.70037 22.0069C8.63466 22.0341 8.56423 22.0481 8.49311 22.0481C8.42199 22.0481 8.35156 22.0341 8.28586 22.0069C8.22015 21.9797 8.16044 21.9398 8.11015 21.8895L7.19744 20.9762L4.6489 22.3857C4.5689 22.4302 4.47883 22.4535 4.38728 22.4534ZM10.6294 21.7633C10.5583 21.7634 10.4879 21.7494 10.4221 21.7221C10.3564 21.6949 10.2967 21.6549 10.2465 21.6046L8.39561 19.7532C8.34532 19.7029 8.30543 19.6432 8.27821 19.5775C8.25099 19.5117 8.23699 19.4413 8.23699 19.3702C8.23699 19.2991 8.25099 19.2287 8.27821 19.1629C8.30543 19.0972 8.34532 19.0375 8.39561 18.9872C8.4459 18.9369 8.50561 18.8971 8.57131 18.8698C8.63702 18.8426 8.70745 18.8286 8.77857 18.8286C8.84969 18.8286 8.92012 18.8426 8.98583 18.8698C9.05153 18.8971 9.11124 18.9369 9.16153 18.9872L11.0124 20.8387C11.0884 20.9143 11.1402 21.0108 11.1612 21.116C11.1823 21.2211 11.1716 21.3302 11.1306 21.4292C11.0895 21.5283 11.02 21.6129 10.9308 21.6724C10.8416 21.7319 10.7367 21.7635 10.6294 21.7633Z" fill="#31FF7D"/>
<path d="M6.03329 24.509C5.92606 24.5092 5.82117 24.4776 5.73195 24.4181C5.64273 24.3587 5.57318 24.274 5.53215 24.1749C5.49112 24.0759 5.48045 23.9668 5.50149 23.8617C5.52253 23.7566 5.57433 23.66 5.65033 23.5844L7.97408 21.2612C8.02437 21.2109 8.08407 21.171 8.14978 21.1438C8.21549 21.1165 8.28592 21.1025 8.35704 21.1025C8.42816 21.1025 8.49858 21.1165 8.56429 21.1438C8.63 21.171 8.6897 21.2109 8.74 21.2612C8.79029 21.3115 8.83018 21.3712 8.8574 21.4369C8.88461 21.5026 8.89862 21.573 8.89862 21.6441C8.89862 21.7152 8.88461 21.7857 8.8574 21.8514C8.83018 21.9171 8.79029 21.9768 8.74 22.0271L6.41625 24.3503C6.36601 24.4007 6.30632 24.4406 6.2406 24.4679C6.17488 24.4951 6.10443 24.5091 6.03329 24.509Z" fill="#31FF7D"/>
</svg>
