<svg width="30" height="30" viewBox="0 0 30 30" fill="none" xmlns="http://www.w3.org/2000/svg">
<path d="M15 21.5625C18.6244 21.5625 21.5625 18.6244 21.5625 15C21.5625 11.3756 18.6244 8.4375 15 8.4375C11.3756 8.4375 8.4375 11.3756 8.4375 15C8.4375 18.6244 11.3756 21.5625 15 21.5625Z" stroke="#31FF7D" stroke-width="1.875" stroke-miterlimit="10" stroke-linecap="round" stroke-linejoin="round"/>
<path d="M15.0506 11.2884L15.9113 14.0719H18.6966C18.7481 14.0719 18.7697 14.1412 18.7275 14.1722L16.4738 15.8925L17.3344 18.6759C17.3503 18.7275 17.2941 18.7697 17.2528 18.7378L15 17.0184L12.7463 18.7387C12.705 18.7706 12.6488 18.7275 12.6647 18.6769L13.5253 15.8934L11.2716 14.1731C11.2303 14.1412 11.251 14.0728 11.3025 14.0728H14.0878L14.9485 11.2894C14.9653 11.2369 15.0347 11.2369 15.0506 11.2884Z" fill="#31FF7D"/>
<path d="M8.4375 15H4.6875C4.6875 17.0709 6.36656 18.75 8.4375 18.75H9.61875C8.87625 17.6869 8.4375 16.395 8.4375 15ZM21.5625 15C21.5625 16.395 21.1237 17.6869 20.3812 18.75H21.5625C23.6334 18.75 25.3125 17.0709 25.3125 15H21.5625ZM2.8125 11.25C2.8125 13.3209 4.49156 15 6.5625 15H8.4375C8.4375 13.605 8.87625 12.3131 9.61875 11.25H2.8125ZM20.3812 11.25C21.1237 12.3131 21.5625 13.605 21.5625 15H23.4375C25.5084 15 27.1875 13.3209 27.1875 11.25H20.3812Z" stroke="#31FF7D" stroke-width="1.875" stroke-miterlimit="10" stroke-linecap="round" stroke-linejoin="round"/>
</svg>
