<svg width="65" height="66" viewBox="0 0 65 66" fill="none" xmlns="http://www.w3.org/2000/svg">
<g filter="url(#filter0_d_362_1843)">
<path fill-rule="evenodd" clip-rule="evenodd" d="M32.5 0C29.6969 0 25.0128 1.07656 20.605 2.275C16.0956 3.49375 11.5497 4.93594 8.87658 5.80937C7.75896 6.17846 6.76811 6.85533 6.01787 7.76222C5.26763 8.66912 4.78844 9.76926 4.63533 10.9362C2.21408 29.1241 7.83252 42.6034 14.6494 51.5206C17.5402 55.3352 20.987 58.6943 24.8747 61.4859C26.4428 62.595 27.8972 63.4441 29.1322 64.025C30.2697 64.5612 31.4925 65 32.5 65C33.5075 65 34.7263 64.5612 35.8678 64.025C37.3567 63.3014 38.781 62.4519 40.1253 61.4859C44.0131 58.6944 47.4599 55.3352 50.3506 51.5206C57.1675 42.6034 62.786 29.1241 60.3647 10.9362C60.2119 9.76869 59.7328 8.66791 58.9826 7.76032C58.2324 6.85273 57.2414 6.17512 56.1235 5.80531C52.243 4.53299 48.3324 3.35452 44.395 2.27094C39.9872 1.08063 35.3031 0 32.5 0ZM32.5 20.3125C33.9391 20.3104 35.3325 20.8176 36.4335 21.7444C37.5344 22.6712 38.2719 23.9577 38.5151 25.376C38.7584 26.7944 38.4919 28.2531 37.7627 29.4938C37.0336 30.7345 35.8888 31.6771 34.5313 32.1547L36.0953 40.2391C36.1522 40.5331 36.1434 40.8361 36.0695 41.1263C35.9956 41.4166 35.8584 41.6869 35.6678 41.9179C35.4772 42.1488 35.2378 42.3348 34.9669 42.4625C34.6959 42.5901 34.4001 42.6563 34.1006 42.6562H30.8994C30.6002 42.6557 30.3049 42.5891 30.0345 42.4612C29.764 42.3333 29.5252 42.1472 29.335 41.9163C29.1449 41.6854 29.008 41.4153 28.9344 41.1253C28.8607 40.8354 28.8519 40.5328 28.9088 40.2391L30.4688 32.1547C29.1112 31.6771 27.9665 30.7345 27.2373 29.4938C26.5082 28.2531 26.2416 26.7944 26.4849 25.376C26.7282 23.9577 27.4656 22.6712 28.5666 21.7444C29.6675 20.8176 31.0609 20.3104 32.5 20.3125Z" fill="url(#paint0_linear_362_1843)"/>
</g>
<defs>
<filter id="filter0_d_362_1843" x="4.0625" y="0" width="56.875" height="66" filterUnits="userSpaceOnUse" color-interpolation-filters="sRGB">
<feFlood flood-opacity="0" result="BackgroundImageFix"/>
<feColorMatrix in="SourceAlpha" type="matrix" values="0 0 0 0 0 0 0 0 0 0 0 0 0 0 0 0 0 0 127 0" result="hardAlpha"/>
<feOffset dy="1"/>
<feComposite in2="hardAlpha" operator="out"/>
<feColorMatrix type="matrix" values="0 0 0 0 0.463671 0 0 0 0 0.574099 0 0 0 0 0.662442 0 0 0 1 0"/>
<feBlend mode="normal" in2="BackgroundImageFix" result="effect1_dropShadow_362_1843"/>
<feBlend mode="normal" in="SourceGraphic" in2="effect1_dropShadow_362_1843" result="shape"/>
</filter>
<linearGradient id="paint0_linear_362_1843" x1="32.5" y1="0" x2="32.5" y2="65" gradientUnits="userSpaceOnUse">
<stop stop-color="#475764"/>
<stop offset="1" stop-color="#293640"/>
</linearGradient>
</defs>
</svg>
