<svg width="30" height="31" viewBox="0 0 30 31" fill="none" xmlns="http://www.w3.org/2000/svg">
<path d="M23.0769 15.8835C23.0769 12.7754 24.7523 11.6522 24.8215 11.6077C24.8763 11.573 24.9214 11.5251 24.9526 11.4684C24.9838 11.4117 25.0001 11.3481 25 11.2834C25 8.70355 23.0062 7.2047 22.9208 7.14183C22.878 7.11059 22.8292 7.08842 22.7775 7.07668C22.7257 7.06495 22.6722 7.0639 22.62 7.0736C18.0154 7.95527 17.3277 4.82571 17.3008 4.69461C17.289 4.63264 17.2619 4.57457 17.222 4.5256C17.1822 4.47662 17.1307 4.43828 17.0723 4.414C17.0331 4.39714 16.0777 4 15 4C13.9223 4 12.9669 4.39714 12.9277 4.414C12.8693 4.43828 12.8178 4.47662 12.778 4.5256C12.7381 4.57457 12.711 4.63264 12.6992 4.69461C12.6738 4.82724 12.01 7.95987 7.38 7.0736C7.32785 7.06385 7.27425 7.06488 7.22251 7.07662C7.17078 7.08835 7.12201 7.11055 7.07923 7.14183C6.99462 7.2047 5 8.70355 5 11.2834C5 11.4245 5.07923 11.5548 5.20308 11.6215C5.28923 11.6675 7.30769 12.7899 7.30769 15.8842C7.30769 18.9785 5.28923 20.0994 5.20462 20.1446C5.14283 20.1772 5.09113 20.226 5.05507 20.2857C5.01902 20.3454 4.99998 20.4138 5 20.4835C5 20.6169 5.02308 23.7534 7.06692 25.3825C7.23 25.5121 7.47692 25.4768 7.61154 25.3189C7.61692 25.3128 8.16308 24.7002 10.3846 24.7002C12.7092 24.7002 14.6954 26.8523 14.7154 26.8745C14.7514 26.914 14.7954 26.9456 14.8444 26.9672C14.8934 26.9888 14.9464 27 15 27C15.0536 27 15.1066 26.9888 15.1556 26.9672C15.2046 26.9456 15.2486 26.914 15.2846 26.8745C15.3054 26.8523 17.2915 24.7002 19.6154 24.7002C21.8246 24.7002 22.3769 25.3059 22.3785 25.3059C22.4088 25.3484 22.4476 25.3842 22.4924 25.4113C22.5371 25.4383 22.587 25.456 22.6388 25.4632C22.6907 25.4703 22.7434 25.4669 22.7939 25.453C22.8444 25.4392 22.8915 25.4152 22.9323 25.3825C24.9769 23.7541 25 20.6177 25 20.4835C24.9995 20.4194 24.9831 20.3565 24.9523 20.3003C24.9214 20.2441 24.877 20.1964 24.8231 20.1615C24.7523 20.1155 23.0769 18.9916 23.0769 15.8835Z" fill="url(#paint0_linear_54_6112)" fill-opacity="0.72"/>
<defs>
<linearGradient id="paint0_linear_54_6112" x1="3.01251" y1="15.5" x2="23.0091" y2="15.8185" gradientUnits="userSpaceOnUse">
<stop stop-color="#2EFF7B"/>
<stop offset="1" stop-color="#5FD94B"/>
</linearGradient>
</defs>
</svg>
