<svg width="23" height="23" viewBox="0 0 23 23" fill="none" xmlns="http://www.w3.org/2000/svg">
<path d="M11.5385 8.51001L12.7952 9.67343C12.9555 9.82293 12.9912 10.0462 12.8818 10.2293C12.7713 10.4104 12.546 10.5072 12.3131 10.4775L9.90592 10.1191L8.63192 11.938C8.53225 12.0808 8.35675 12.1651 8.1715 12.1651C8.13142 12.1651 8.09025 12.1613 8.05017 12.1526C7.82483 12.1066 7.65692 11.9389 7.632 11.7348L7.40342 9.78268L5.0515 9.4693C4.81642 9.43768 4.63225 9.27476 4.59758 9.06584C4.56292 8.85789 4.68533 8.65376 4.89983 8.56272L7.13583 7.61588L6.90942 5.58901C6.88667 5.38776 7.00908 5.19609 7.216 5.10888C7.42292 5.02167 7.66775 5.05905 7.83025 5.20184L9.47583 6.64605L22.5668 2.57601L14.9651 0.0316289C14.8307 -0.0134128 14.6834 -0.00862116 14.5523 0.0421705L0.945669 5.4213C0.694336 5.52097 0.567586 5.77109 0.649919 6.00397L3.58358 14.1968C5.136 18.2438 6.71225 19.0066 10.9253 21.0431C11.9946 21.5606 13.2469 22.1653 14.73 22.9349C14.8145 22.978 14.9098 23 15.0041 23C15.0897 23 15.1752 22.9818 15.2532 22.9464C15.4179 22.8697 15.5284 22.725 15.5436 22.5601L16.2347 15.1436C16.2532 14.9443 16.1286 14.7545 15.9238 14.6702C13.924 13.846 13.7853 13.7885 13.1754 12.0664L16.4525 10.8253C16.5782 10.7784 16.6778 10.6902 16.7342 10.581L19.4122 5.27947L11.5385 8.51001Z" fill="#31FF7D"/>
</svg>
