<?xml version="1.0" encoding="utf-8"?>
<!-- Generator: Adobe Illustrator 25.4.0, SVG Export Plug-In . SVG Version: 6.00 Build 0)  -->
<svg version="1.1" id="Слой_1" xmlns="http://www.w3.org/2000/svg" xmlns:xlink="http://www.w3.org/1999/xlink" x="0px" y="0px"
	 viewBox="0 0 279.2 65" style="enable-background:new 0 0 279.2 65;" xml:space="preserve">
<style type="text/css">
	.st0{fill:url(#SVGID_1_);}
	.st1{fill:url(#SVGID_00000049938244340191267330000016580402079335590819_);}
	.st2{fill:none;stroke:#121C23;stroke-width:6;}
	.st3{fill:url(#SVGID_00000038401547478620481800000014011114229959477131_);}
	.st4{fill:url(#SVGID_00000167357600475446305800000007093507546769108121_);}
	.st5{fill:url(#SVGID_00000005980109429561285280000006619758847587736740_);}
	.st6{fill:url(#SVGID_00000129203293791380435230000006752231051797938841_);}
	.st7{fill:url(#SVGID_00000113328546660907170090000000827571274170210457_);}
	.st8{fill:url(#SVGID_00000039820779574408500640000016400751379168308900_);}
</style>
<linearGradient id="SVGID_1_" gradientUnits="userSpaceOnUse" x1="26.5" y1="59.89" x2="26.5" y2="6.89" gradientTransform="matrix(1 0 0 -1 0 65.89)">
	<stop  offset="0" style="stop-color:#99C1E8"/>
	<stop  offset="1" style="stop-color:#3399CC"/>
</linearGradient>
<path class="st0" d="M12,6h29c6.6,0,12,5.4,12,12v29c0,6.6-5.4,12-12,12H12C5.4,59,0,53.6,0,47V18C0,11.4,5.4,6,12,6z"/>
<linearGradient id="SVGID_00000072267886258151844590000005252376248375763072_" gradientUnits="userSpaceOnUse" x1="70.5" y1="59.89" x2="70.5" y2="6.89" gradientTransform="matrix(1 0 0 -1 0 65.89)">
	<stop  offset="0" style="stop-color:#99FFFF"/>
	<stop  offset="1" style="stop-color:#2CBAD7"/>
</linearGradient>
<path style="fill:url(#SVGID_00000072267886258151844590000005252376248375763072_);" d="M56,3h29c8.3,0,15,6.7,15,15v29
	c0,8.3-6.7,15-15,15H56c-8.3,0-15-6.7-15-15V18C41,9.7,47.7,3,56,3z"/>
<path class="st2" d="M56,3h29c8.3,0,15,6.7,15,15v29c0,8.3-6.7,15-15,15H56c-8.3,0-15-6.7-15-15V18C41,9.7,47.7,3,56,3z"/>
<linearGradient id="SVGID_00000140719105303665888170000004480764557278678169_" gradientUnits="userSpaceOnUse" x1="114.4786" y1="59.89" x2="114.4786" y2="6.89" gradientTransform="matrix(1 0 0 -1 0 65.89)">
	<stop  offset="0" style="stop-color:#DD7F5D"/>
	<stop  offset="1" style="stop-color:#D85C30"/>
</linearGradient>
<path style="fill:url(#SVGID_00000140719105303665888170000004480764557278678169_);" d="M100,3h29c8.3,0,15,6.7,15,15v29
	c0,8.3-6.7,15-15,15h-29c-8.3,0-15-6.7-15-15V18C85,9.7,91.7,3,100,3z"/>
<linearGradient id="SVGID_00000029022061649569219180000011352479206634727306_" gradientUnits="userSpaceOnUse" x1="114.4786" y1="59.89" x2="114.4786" y2="6.89" gradientTransform="matrix(1 0 0 -1 0 65.89)">
	<stop  offset="0" style="stop-color:#FFCC66"/>
	<stop  offset="1" style="stop-color:#996633"/>
</linearGradient>
<path style="fill:url(#SVGID_00000029022061649569219180000011352479206634727306_);" d="M100,3h29c8.3,0,15,6.7,15,15v29
	c0,8.3-6.7,15-15,15h-29c-8.3,0-15-6.7-15-15V18C85,9.7,91.7,3,100,3z"/>
<path class="st2" d="M100,3h29c8.3,0,15,6.7,15,15v29c0,8.3-6.7,15-15,15h-29c-8.3,0-15-6.7-15-15V18C85,9.7,91.7,3,100,3z"/>
<linearGradient id="SVGID_00000031888423701392634080000012293942695396601005_" gradientUnits="userSpaceOnUse" x1="158.4785" y1="59.89" x2="158.4785" y2="6.89" gradientTransform="matrix(1 0 0 -1 0 65.89)">
	<stop  offset="0" style="stop-color:#D9D149"/>
	<stop  offset="1" style="stop-color:#DFCB15"/>
</linearGradient>
<path style="fill:url(#SVGID_00000031888423701392634080000012293942695396601005_);" d="M144,3h29c8.3,0,15,6.7,15,15v29
	c0,8.3-6.7,15-15,15h-29c-8.3,0-15-6.7-15-15V18C129,9.7,135.7,3,144,3z"/>
<linearGradient id="SVGID_00000048502911011545779540000002779890329686970780_" gradientUnits="userSpaceOnUse" x1="158.4785" y1="59.89" x2="158.4785" y2="6.89" gradientTransform="matrix(1 0 0 -1 0 65.89)">
	<stop  offset="0" style="stop-color:#E3E790"/>
	<stop  offset="1" style="stop-color:#999933"/>
</linearGradient>
<path style="fill:url(#SVGID_00000048502911011545779540000002779890329686970780_);" d="M144,3h29c8.3,0,15,6.7,15,15v29
	c0,8.3-6.7,15-15,15h-29c-8.3,0-15-6.7-15-15V18C129,9.7,135.7,3,144,3z"/>
<path class="st2" d="M144,3h29c8.3,0,15,6.7,15,15v29c0,8.3-6.7,15-15,15h-29c-8.3,0-15-6.7-15-15V18C129,9.7,135.7,3,144,3z"/>
<linearGradient id="SVGID_00000079474906049495142040000003465579074910536111_" gradientUnits="userSpaceOnUse" x1="202.4785" y1="59.89" x2="202.4785" y2="6.89" gradientTransform="matrix(1 0 0 -1 0 65.89)">
	<stop  offset="0" style="stop-color:#FF6666"/>
	<stop  offset="1" style="stop-color:#993333"/>
</linearGradient>
<path style="fill:url(#SVGID_00000079474906049495142040000003465579074910536111_);" d="M188,3h29c8.3,0,15,6.7,15,15v29
	c0,8.3-6.7,15-15,15h-29c-8.3,0-15-6.7-15-15V18C173,9.7,179.7,3,188,3z"/>
<path class="st2" d="M188,3h29c8.3,0,15,6.7,15,15v29c0,8.3-6.7,15-15,15h-29c-8.3,0-15-6.7-15-15V18C173,9.7,179.7,3,188,3z"/>
<linearGradient id="SVGID_00000125577718179473497720000016593422926566138533_" gradientUnits="userSpaceOnUse" x1="246.7618" y1="59.89" x2="246.7618" y2="6.89" gradientTransform="matrix(1 0 0 -1 0 65.89)">
	<stop  offset="0" style="stop-color:#66CC99"/>
	<stop  offset="1" style="stop-color:#009933"/>
</linearGradient>
<path style="fill:url(#SVGID_00000125577718179473497720000016593422926566138533_);" d="M232.3,3h29c8.3,0,15,6.7,15,15v29
	c0,8.3-6.7,15-15,15h-29c-8.3,0-15-6.7-15-15V18C217.3,9.7,224,3,232.3,3z"/>
<path class="st2" d="M232.3,3h29c8.3,0,15,6.7,15,15v29c0,8.3-6.7,15-15,15h-29c-8.3,0-15-6.7-15-15V18C217.3,9.7,224,3,232.3,3z"/>
</svg>
