<svg width="30" height="30" viewBox="0 0 30 30" fill="none" xmlns="http://www.w3.org/2000/svg">
<path d="M20.25 20.25V12.625M17.7084 6.35339C20.0877 6.72795 22.3006 7.80563 24.0625 9.44788V20.25H20.25V24.0625H8.81251V20.25H5V9.44788C6.76195 7.80563 8.97486 6.72795 11.3542 6.35339H17.7084ZM8.81251 20.25V12.625V20.25Z" stroke="#31FF7D" stroke-width="1.15312" stroke-linejoin="round"/>
<path d="M14.5313 7.54167L11.9896 5L10.7188 6.27084L13.2604 8.81251L14.5313 7.54167ZM14.5313 7.54167L15.8021 8.81251L18.3438 6.27084L17.0729 5L14.5313 7.54167ZM11.9896 5H17.0729" stroke="#31FF7D" stroke-width="1.15312" stroke-linejoin="round"/>
<path d="M14.5313 7.54163L15.8022 18.3437L14.5313 20.25L13.2605 18.3437L14.5313 7.54163Z" fill="#31FF7D"/>
<path d="M14.5313 7.54163L13.2605 18.3437L14.5313 20.25L15.8022 18.3437L14.5313 7.54163Z" stroke="#31FF7D" stroke-width="1.15312" stroke-linejoin="round"/>
</svg>
